<mxfile host="app.diagrams.net" modified="2022-12-03T10:08:08.180Z" agent="5.0 (Windows NT 10.0; Win64; x64) AppleWebKit/537.36 (KHTML, like Gecko) Chrome/107.0.0.0 Safari/537.36" version="20.6.0" etag="GoREB9QJtOfQe7jn_o4o" type="github">
  <diagram id="h9zfmRYfLPr7FFqTkoWQ" name="Страница 1">
    <mxGraphModel dx="1673" dy="887" grid="1" gridSize="10" guides="1" tooltips="1" connect="1" arrows="1" fold="1" page="1" pageScale="1" pageWidth="827" pageHeight="1169" background="#FCE7CD" math="0" shadow="0">
      <root>
        <mxCell id="0" />
        <mxCell id="1" parent="0" />
        <mxCell id="qzAXN5MgQcx4XRJyxpNU-1" value="&lt;font style=&quot;font-size: 19px;&quot; color=&quot;#000033&quot;&gt;Составьте блок-схему нахождения суммы всех четных чисел от 1 до 15&lt;br style=&quot;font-size: 19px;&quot;&gt;&amp;nbsp;&lt;/font&gt;" style="text;html=1;align=center;verticalAlign=middle;resizable=0;points=[];autosize=1;strokeColor=none;fillColor=none;fontColor=#FFFFFF;fontSize=19;" vertex="1" parent="1">
          <mxGeometry x="89" y="20" width="650" height="60" as="geometry" />
        </mxCell>
        <mxCell id="qzAXN5MgQcx4XRJyxpNU-4" value="" style="edgeStyle=orthogonalEdgeStyle;rounded=0;orthogonalLoop=1;jettySize=auto;html=1;strokeColor=#23445D;fontSize=19;fontColor=#FFE599;" edge="1" parent="1" source="qzAXN5MgQcx4XRJyxpNU-2" target="qzAXN5MgQcx4XRJyxpNU-3">
          <mxGeometry relative="1" as="geometry" />
        </mxCell>
        <mxCell id="qzAXN5MgQcx4XRJyxpNU-2" value="Start" style="ellipse;whiteSpace=wrap;html=1;strokeColor=#FFFFFF;fontSize=19;fontColor=#FFE599;fillColor=#182E3E;" vertex="1" parent="1">
          <mxGeometry x="340" y="80" width="120" height="80" as="geometry" />
        </mxCell>
        <mxCell id="qzAXN5MgQcx4XRJyxpNU-6" value="" style="edgeStyle=orthogonalEdgeStyle;rounded=0;orthogonalLoop=1;jettySize=auto;html=1;strokeColor=#23445D;fontSize=19;fontColor=#FFE599;" edge="1" parent="1" source="qzAXN5MgQcx4XRJyxpNU-3" target="qzAXN5MgQcx4XRJyxpNU-5">
          <mxGeometry relative="1" as="geometry" />
        </mxCell>
        <mxCell id="qzAXN5MgQcx4XRJyxpNU-3" value="a = 1&lt;br&gt;sum = 0" style="whiteSpace=wrap;html=1;fontSize=19;fillColor=#182E3E;strokeColor=#FFFFFF;fontColor=#FFE599;" vertex="1" parent="1">
          <mxGeometry x="340" y="190" width="120" height="60" as="geometry" />
        </mxCell>
        <mxCell id="qzAXN5MgQcx4XRJyxpNU-9" value="&lt;span style=&quot;background-color: rgb(0, 0, 204);&quot;&gt;yes&lt;/span&gt;" style="edgeStyle=orthogonalEdgeStyle;rounded=0;orthogonalLoop=1;jettySize=auto;html=1;strokeColor=#23445D;fontSize=19;fontColor=#FFE599;" edge="1" parent="1" source="qzAXN5MgQcx4XRJyxpNU-5" target="qzAXN5MgQcx4XRJyxpNU-7">
          <mxGeometry relative="1" as="geometry" />
        </mxCell>
        <mxCell id="qzAXN5MgQcx4XRJyxpNU-28" value="no" style="edgeStyle=orthogonalEdgeStyle;rounded=0;orthogonalLoop=1;jettySize=auto;html=1;labelBackgroundColor=#0000CC;strokeColor=#23445D;fontSize=19;fontColor=#FFE599;entryX=0.5;entryY=0;entryDx=0;entryDy=0;" edge="1" parent="1" source="qzAXN5MgQcx4XRJyxpNU-5" target="qzAXN5MgQcx4XRJyxpNU-29">
          <mxGeometry x="-0.7284" relative="1" as="geometry">
            <mxPoint x="730" y="590" as="targetPoint" />
            <Array as="points">
              <mxPoint x="690" y="330" />
              <mxPoint x="690" y="620" />
              <mxPoint x="400" y="620" />
            </Array>
            <mxPoint as="offset" />
          </mxGeometry>
        </mxCell>
        <mxCell id="qzAXN5MgQcx4XRJyxpNU-5" value="a &amp;lt;= 15" style="rhombus;whiteSpace=wrap;html=1;fontSize=19;fillColor=#182E3E;strokeColor=#FFFFFF;fontColor=#FFE599;" vertex="1" parent="1">
          <mxGeometry x="320" y="290" width="160" height="80" as="geometry" />
        </mxCell>
        <mxCell id="qzAXN5MgQcx4XRJyxpNU-19" value="yes" style="edgeStyle=orthogonalEdgeStyle;rounded=0;orthogonalLoop=1;jettySize=auto;html=1;entryX=0.5;entryY=0;entryDx=0;entryDy=0;labelBackgroundColor=#0000CC;strokeColor=#23445D;fontSize=19;fontColor=#FFE599;" edge="1" parent="1" source="qzAXN5MgQcx4XRJyxpNU-7" target="qzAXN5MgQcx4XRJyxpNU-10">
          <mxGeometry relative="1" as="geometry" />
        </mxCell>
        <mxCell id="qzAXN5MgQcx4XRJyxpNU-21" value="no" style="edgeStyle=orthogonalEdgeStyle;rounded=0;orthogonalLoop=1;jettySize=auto;html=1;labelBackgroundColor=#0000CC;strokeColor=#23445D;fontSize=19;fontColor=#FFE599;" edge="1" parent="1" source="qzAXN5MgQcx4XRJyxpNU-7" target="qzAXN5MgQcx4XRJyxpNU-20">
          <mxGeometry x="0.25" relative="1" as="geometry">
            <mxPoint as="offset" />
          </mxGeometry>
        </mxCell>
        <mxCell id="qzAXN5MgQcx4XRJyxpNU-7" value="a mod 2 == 0" style="rhombus;whiteSpace=wrap;html=1;fontSize=19;fillColor=#182E3E;strokeColor=#FFFFFF;fontColor=#FFE599;" vertex="1" parent="1">
          <mxGeometry x="320" y="400" width="160" height="80" as="geometry" />
        </mxCell>
        <mxCell id="qzAXN5MgQcx4XRJyxpNU-25" style="edgeStyle=orthogonalEdgeStyle;rounded=0;orthogonalLoop=1;jettySize=auto;html=1;labelBackgroundColor=#0000CC;strokeColor=#23445D;fontSize=19;fontColor=#FFE599;" edge="1" parent="1" source="qzAXN5MgQcx4XRJyxpNU-10">
          <mxGeometry relative="1" as="geometry">
            <mxPoint x="400" y="500" as="targetPoint" />
          </mxGeometry>
        </mxCell>
        <mxCell id="qzAXN5MgQcx4XRJyxpNU-10" value="sum += a" style="whiteSpace=wrap;html=1;fontSize=19;fillColor=#182E3E;strokeColor=#FFFFFF;fontColor=#FFE599;" vertex="1" parent="1">
          <mxGeometry x="500" y="470" width="160" height="60" as="geometry" />
        </mxCell>
        <mxCell id="qzAXN5MgQcx4XRJyxpNU-26" style="edgeStyle=orthogonalEdgeStyle;rounded=0;orthogonalLoop=1;jettySize=auto;html=1;entryX=0;entryY=0.5;entryDx=0;entryDy=0;labelBackgroundColor=#0000CC;strokeColor=#23445D;fontSize=19;fontColor=#FFE599;" edge="1" parent="1" source="qzAXN5MgQcx4XRJyxpNU-20" target="qzAXN5MgQcx4XRJyxpNU-5">
          <mxGeometry relative="1" as="geometry">
            <Array as="points">
              <mxPoint x="280" y="570" />
              <mxPoint x="280" y="330" />
            </Array>
          </mxGeometry>
        </mxCell>
        <mxCell id="qzAXN5MgQcx4XRJyxpNU-20" value="a += 1" style="whiteSpace=wrap;html=1;fontSize=19;fillColor=#182E3E;strokeColor=#FFFFFF;fontColor=#FFE599;" vertex="1" parent="1">
          <mxGeometry x="340" y="560" width="120" height="60" as="geometry" />
        </mxCell>
        <mxCell id="qzAXN5MgQcx4XRJyxpNU-33" value="" style="edgeStyle=orthogonalEdgeStyle;rounded=0;orthogonalLoop=1;jettySize=auto;html=1;labelBackgroundColor=#0000CC;strokeColor=#23445D;fontSize=19;fontColor=#FFE599;" edge="1" parent="1" source="qzAXN5MgQcx4XRJyxpNU-29" target="qzAXN5MgQcx4XRJyxpNU-32">
          <mxGeometry relative="1" as="geometry" />
        </mxCell>
        <mxCell id="qzAXN5MgQcx4XRJyxpNU-29" value="sum" style="shape=document;whiteSpace=wrap;html=1;boundedLbl=1;strokeColor=#FFFFFF;fontSize=19;fontColor=#FFE599;fillColor=#182E3E;" vertex="1" parent="1">
          <mxGeometry x="340" y="660" width="120" height="80" as="geometry" />
        </mxCell>
        <mxCell id="qzAXN5MgQcx4XRJyxpNU-32" value="end" style="ellipse;whiteSpace=wrap;html=1;fontSize=19;fillColor=#182E3E;strokeColor=#FFFFFF;fontColor=#FFE599;" vertex="1" parent="1">
          <mxGeometry x="340" y="770" width="120" height="60" as="geometry" />
        </mxCell>
        <mxCell id="qzAXN5MgQcx4XRJyxpNU-34" value="" style="shape=image;verticalLabelPosition=bottom;labelBackgroundColor=default;verticalAlign=top;aspect=fixed;imageAspect=0;image=data:image/png,iVBORw0KGgoAAAANSUhEUgAAARwAAAEWCAYAAAC0byiGAAAgAElEQVR4nOy9WZMcR7qm93weEblV1r6ggMJKglt3W3fPGclkko5kpiuZ6Rfo5+jv6F4XupDNnTSa0UjnnOacbjYJEisLqL0q99j804V7REZmZS0ACiRI5gurSlRmZLhHhPvr3+7yD3/+R+WGIICIoOpOqah/X8pjtPwt019/ZywuLvK7r76i0Wjw17/+laOjI1QVq1r2adz2ZH8RQa0t/pj43IiQ5TkiUp7Dnchf19R5pfxY3WciqFp/uQKqBEGAtRZbnGPyV9knAGvtZLvVz2dcn7UWpvs685rdr0a9zr3793n+7BnD0chfp3H9R1DcdZT/L+6Xb3fWtU/f5asGV9H/ou/FvTP+/8VIKcZUcW9kum3/fr1eY21tnV6vR+fszJ1bdeKYOX4+hDd9QvU/qFYGm04+bJ3x3luiOuBtnjMYDknTlDRNzxPAJX0VvbgfjidmTOALCEynPnd9EFTG75fn9BNLVXFdcFOruHcX3Znic5givArJXQX19384GvHtt98CYIyptKAgxf3T8v1q2xdd+1X3fBasfwYTZKsTo6dEQT4qkxQn/vh4FLO7u+sPHt/vOT4O3DjhUFmJLnzMNzUA/EqfJAlv3rxGEIbD4Vu1c+nEKCbxu0KrZ5+U6sRPhuIaZvXrrdq+5rHXIYLpdvUt6ONtxeXpO3St42dc642J6XN8UNwo4fyUD7262mZZxuHh0cyJ+95t3NQ5Cqnuhvv4m8FcSvlV4OYlnJ8SXhR3aklFDfnYB+cFUs0cc/za8cslnOqEvUx9m2OOOT4a/HIJ52OXYuaYY45zMFcfMsccc8xxM/jlSjg/KS6OLakqc3OZa445LseccC7AeVfwJM2ogKigGB89MzcCzzHHVZgTzkwo4n8cpPLqflS9dKMGsAiKMQYBcrX+LHPMMUcVc8KZAU8pY8JRZWzuqkozgqjFGGjWQxbbbVSV406XOLVzHWuOOabw4QinmvsyHXPy0XqYfG5SkaMEFXXJVo7JMWSIWiJjWFte5MHdLXbubDMaDvinbzKeHfR/rouYY46PFh+GcKrJm7bIzamYV50+wlhF+Tgg4POYHOEYQEphxhGOI6OcQFKadWFrvc3nnz7iwZ37rK4s0O0c8Wy3xtPD/kd0ZXPM8XHgvQjHTVD3f5XJvxEw7heFOqJYl/VbSjyG6xCOvm9O01tCgUBN2euCiNCCNCOiaIH7Dzf59PEG7dYGp3GDYTfBhEpiFLnZhPg55vhV4P0kHJ0sE1D8XQ8DFhtNGvU6YRSW5QeyLGU0GnE26pMUZRuu1YybvdPz96I5LVPHVN+/slyCCFhFxHhilCJjsDyzogS1Fqubd9BQ+frv3zPsN/j0sw02tyCXK9qapzXM8RvFe6pU45ouqoKIs3lsNVr88c49lpeWMb4eiQrUAsPpWYd/fv2M571TbH7xxCsFJRHUip/ulZIEolgmZSQFjLr3tHoeTwCijiycNFYlEHeQYjHiWTMQslwRAWu1crT7xjCJ+fb7l8gPMSdHpzRqCzy6V6eVLxBVSnPIVD9mXbFMHDnHHL9evLcNpyjNJH5NFyCwSmgtjEYMRzFpnhGEAeur69y9dQdbFzpP/sZpLyafMc/KNEwFEYOUDCIl6RRTWoHQBEStJqZRn7S7ALbCFINuj2wUe5ISUEGlqC3jzU24mjI5zkwsIuRYjFRlFmWUJey+OUSwGCyNWkagOTVrCT3BMm56XI5iVv2dj9aIPsccN4v3tuFMrOBegtgb9fgPuz8QiMGmlhyLCDzY+5H/7nd/4ve3d3j1/Bl/z0f0ZvSgkD6C0BCYkFCVNE0dAZnAGXbVEGBAhHq9xfZnj2k/2JnoWwHF2YH+8pd/YfB8l3bujdje6KRYlBwTBBjj6tsFEmA1RVUxcs0MEC1/TV3QlKdO36bCzBxz/Hpww/VwnEF4qDm9UUzNCjVbGDQsbzo9Bv0ODzZXWbVQu8CWUZDFQmvB23/ccUmSEpipoDsRBAMmRKPowlA9VSU3gQvR06Iynno1ULAIzXqdKAowAqiQZRnWWowvu3klpHChX3xdc6KZ47eM9yKcIjpF8V4qHU/w0ARsBnVuBU3CMEA1p2FdNC7WIvnFxajUB93VahGg5NZS1xqjeABB4D1GRcswTDq8/O5fMa+eOBuNcyihCCEQFCF8vS4NTZyRx4xbExEiIDKGWhAiRlCrpWqm/t/7FsGYk80cv3W8n4QjVCb32MKyGDa4vbbMp8ub3G+tYGsBiebUrWV1eQnj6wRfPH2dypHmKVEYgQgWixUtyc0WNODJIYtHRFq8Wxzj+6eOcII0R404uw7O/lSNH46TGBMYyMbkMn59D8xVqDnmAG5Awinib4qfKIp4vHWb/+rhI2oScnZ0zKtun06krKU57XqNhVbzygmoQK83oNlawKqlNxyiGJI8R70KZEVQDTC1Outbt9jcvoUVZyguFJtAlcD/8fzZM7rHxz6oz0lRRnOMKiFKlmakWY9AhCgc3xpX7Lz8y/dPi3jGiU47e9H73NU55vj14r1tOFWbiQDtdpuHd3bYqC/w1x++52/Pn3IQZHRCZTu2bEdNlpcXL/XMFOdMs5S833NbvljrXexQVON3r0IQRayur3J75w4qggbjcxstTCvK/v4eJ8euBfXvud0BLBZFVN2WMcZAnpekdVFPx/HItnyv6qaXeSnROeaYwI1IOGUAoECtXqfRXuBk0OP7k32eZwNiq+SZMopz0jTBFmrYBTO5Gu+ieQZAAFhv6FW1zv2uzhisgw77z7+HYdd9SyqTvsy/VJKTAxr5qBIRPZnGUMhFVi0GU9puCpVsfNWUUcfus7HaJV7PlIrNZ045c8zhcANxOBWCUL+fkDppIcbS9S0YqzTqDRqNBmIEE4WIudzdPD1dBbefkxVn0BXr44BUGZwc8rJzOvndiZmu2DwnUj3HADL1RzVo0P3oBDmWEUdWfdiOswap94A5ycaWhd1FJmODLrviop2Ld6aaY45fLm4kl6qI4kWV0WjEqN9nub3C1uo6L2yMqFIzhkeb26xtbaGBYXF5ifDkpIi2u2Z77tigdHA5T5UAWMXmyeTxU4QjZQThmMrOT+urJ7oiiDG0F1osNiLA0mzVieotolqD5aVlttYNgjCMRwwHQ6zaa5wXppltLh3N8WvCjUk4biUXBoMBL/fe8HBhkUf3HxBtrhGoUo9ClhoN9rMRG2nAzr17tPYPoHf9Mg5VKpAqm+j0p/6vyltlgrqCCZwR2L61fWUsdzQbdT57/JiHd28DFjHK1qKysKB8+cUXLO9ECPD8xQuefPcdg+oGfdduZY45fl24EaNxVa3K8pwf9l4TinJva5udoElkDKqW79+85q8/PuWP2/e4v751oQ3nOpC3XP6L44VxIOHbBuI5wvLpG6I06jVq9SbWpoQmZzTqsjc6Y6QrRFHLxfKImacuzDGHh/zDn//xPaT2cUCcqFNXRCyRtdSN0JaANiFRFJEkMQfE9EJlMbUshXWOc6X7jhtHnLfRzPh8Zo8ntZaLThEGAdba0jvmiFXLPayNMSwuLNCo1xGxGE0JGBIxIGaBVJ0nrt/rMRyNkCuorUgPVSqm7LlKNcevDDeiUo0jjZ1xJROnrqRYTu0Imw1BIDOQW6ErQi+LyQnhunlKU/De8Ys/1+tYY94F7orzPKfT7dLt9TBiQTNyH5woOsBo4tz2U/E7F/a3QjhzzPFrxc1W/BPxOxlAJkqOotWyMqpgC/c2TsWZlT19TVw2OS9Ul67ZlNUiZnns+p+wrVSCC1FB1ZBLQE5RuMu7yn2KxbVysZjbb+b4deMGCGccbVJEo4zdyhXHtjKu2lcwkEw41W8U1Vicifcv+P+549QHB1aklCLWaPo6rY/kEQRTxOf4ax0TzTWuc+qQubQzx68N70k45yfROduD+nA4mTzqou/fJC4llHf4dmEgn5ZCiqjncTZZ5dtzg/Ecc5S44fIUhQoBJZnMlDQ+/kl4kQY0++3LEiDeHh//3ZljjnfDje/aMEE2vxn81q53jjneDe/mIppjjjnmeAfMCWeOOeb4yTAnnI8S1/PeqX44L98cc3wI/GYJ52Odpi6C2rifC+DKvrtCYxZXAh60LPE6xxwfKz7c3uK/AHyUk1PH1XlQS7mFZ1mGRyfKZWhRQKPYFfRmHWZzzHGj+E0TzkcJwRHN+A8mKpwBoJgZ/vlix88538zxsWJOOB8ZXPyynShqNhn9kyFB7ra0CWogkNucYZyTpGPCmUcpz/ExYk44HwnKWj2AUfU7iFb1I6cyBVHG+mbAzs4aS4tLAKRJyu5un703Cb3RiMxLSO9T/mOOOT4EfmLCqa67V2U6TR+nE+/ouc+mzzcrfaL41keYle21JqOuoqEp1SZXAFrEEgaWjY0m/+Yf7rK0vIhIiFqIgpCd9YDnCx3++v0zToYjt+Hfz3xJc8wxjQ9EOBcN9SK/eqJ239RnF5HCWNUwPiNdxfhjLOetF8W5zMTfrnYP3g47o0rgFVfwITF5V6R8z+WnjWgtZvzu91+ys7PNd9//yPNXHSQP2Nm4xe+/eMTqVwGn3TecPRv45NHfrBNyjo8UH4RwjCoBSiOMWKjVMEGAouSqZDZjNIrJrCUTIQdAMEAENBsNclXiJCGrbCAXqNIwhmajQZylDOIUK1AToRXV0FxRAhqNOqAkaUyaJIgJaDSahIGQZTH9UUKqilWZrXKIT8CslKeYhVLKKlPJp1O9K0R3vQrqxdG4fbfw2xA7hEHO9madTx5uc3J0xj/987fsHVkijQiTFr/7JGVjFe7trPB0t0M/zXxRoLFK5rh+LvfM8fPhhginWl/YUEdYq9f4ZHWdT1fXMbWI1GbEAv004c3eAUfdLvtZQhdFMBiFtSDiq50HnMUxT16+YIgr5gXQUuFxa4k79+7x3fE+37/ZwwKrUY0/bW2iKWQ2YGNjHRNCp3PG8ckRUa3J6totFhci+oMOf3n5gjf9Aa7c+qy0UuM3vhsXPZ+eouJ/ORtLQUym8qmgvmC7zDjLtCJYlGQudzGVqYw0q7SiiMfbOyyZNt/sHnB02EeJaNZCNlcbBMaSqeHWrW021zsMXu+74mZV0pFqy3PM8dPjBiUcN31EhJVagz/c2ebx1m2WTcAwiRkkllajzsrSEutLKzx5+ZLj/deozXFBa0LbBPz+7gNenhzy/MVzYsaTriHC5+ub3L+zw8Goh/GywGKtxu+3b1OrLXDUT1Cbs7jQ4NHqKqONDXqZMsxgs16nvdLmuN/jeBST5jqDSQRjHOHkee5q4RRFuJikDGMC6rUaqi70DjFlDRzBgASIteRJjM3TyTtVkYpExqqTi6eh3Dq5uK8qShRF3Nu4hQ6V44MBUCMwsLG+zL3bm3TOTun2hywvPWBtZZkXr/cmlNeiouDcsjPHz4l3IpwywGzqzWK932ov8ec7DzgT+HcvnnN8dkJmLWEUsrS8wtrGJgcWJvcxcDaaZqtO2A04N8UF6o0aUWQwav0uUG4HhnqzRlyP+ObwgMPdVzzc2uBPjx+z1lzh6bOXfP1ql89X2/zbx5+wvrZK/fCQwbBKZ+4CjDGEYUgQBKgqubXk1iKBIVcte2TF0GgusvXgPsYE5EK5sZ8KhCJEJoDhkMNXr+icnUy2JFLuWRUEASYIQN2+Wbm153aTEBHCMGBtbY1OP+H4+JTQRNQaDXZ2HhDWWzx58h0rKyGfbX5Os1lz6pjfv31cEK3y/OaY42fAjdpwxK+i7VqdjeYCb06OeXl0zGGvS2wUsdDo9mkcnzIYDomn96RS67Z/Eeuk/2phYgXVHPH+F+c2LuLhlP3eKf/86ilpr0N9qcZnmiLDmBcHb3h2dsSyJKTJHRq1iMCYc7ZrY4Qwimg0GoRh6La8GQ4nCuMUkocKBLUa61vbNBcWxvuZi4sAjkSoG0PW6dI7OqJzdjJ5n0Sw1hIEAfV6nTCKQJUkScjjeKoYj5Tk0ag3OO3E9LpDaiZke32F+/fucnjW5YdnL/jy8zsEQUgQBuU2w0VxsFnm+jnm+KnxToRT2ByqfytuO15RSLOMfpKw1Wjz5+VbfCchb7IhoyQmTmNGpymY85W5FJyKohXpxlVnHx9TmYsi40jcNEnp9/uIwCAU0kCIk4QkTcFP8GKLYDMj50hEqNfr1Go1jDFEUQSDAcYY1CoBzkpTSHGSDDh584JBo1GWHXXeJMFYdy+S0Yj+YID6+JqSsFQREYIgIIwiojD016YMR6PJfk3cG5fCYLOAVsPwyd02rSZ8/c1rjvtD0mJbGn8sUxLOHHP83HhnCUen/q8CahWjymH3jL8f7HJv8w5/fPSAlXidp70Tzs7O6Pb7nPR7DGzG+b0o3ba9qH+t0sJ5fnLylI4JxKk7kBhxao7vl4jzSFnPlGVt5RnXo75t8fYVo+L7qT5Wxp0rjQe8evEUY4LSW1XaSbxjylpLlibFHWLa2V1YVhTcVjT+2qcvcuJ9FURD1paaPLqzweHJAU9evCJTQTVwoQLlNeB00bfe8G+OOT4MbkylKoQQRXkz6vPvXz9jP+5xf2mFdrvF7xc2qN/aZNDr869vXvH3g9ecpZZcQiryQYliRa+6m0sDq4yJxuB+qiH957OmXXZ15m0sZQui5RtqLaPh0KlbQJqmuKxsJzXkaBlMp0AYhCwsrxIEocvcrkQEgdcGk5S42yXNMnd9nkONQJYrWZqRpilWFSNCkkxuVVy5EaXxWjC0mg3u371Ho9bixd+/ozuMaYU1grBeSjhzzPEx4kYIp4z08DEsQ8150Tul3+/wyhhWlpZYW15la2mZ9aUV/u3ql+Ri+evrfTI/4Q0QqGBw0kmxtxU44rFeSinsESU8AxSEUw3/cxJQcYAAwZQpmmrYMnmeMfIqzWg0clKViPdCFce59hvtNn/4059pt5d8iQjfHXGkk6NkZx1++M//yv5oWGEiPIm56xuNRqU05UjuPBTFWmWUpER14cGDVe4/vMPh8T4/PP0RwbDQbLK00CZLU7I0Le0+xS2aY46PAe9MOLNtA05icEbRnDObMVTldZoQnZ1QD0K+/OQxf3r4mN/desDuUY/+aEShhoQqhNbF3qSiWK+bqPpoFyMQVLeh8RO89JBV3q/87YgnxGiIqJaKTXm0jL+X5yliDFZzxEcylx4lTziZCLm1nHW6IMFYEvOReplaUs3R4ZDcWlSk3IurSs6uvXzck6lAPSnENSDOM94cHbO5ucznX64Q1XP+8vUx/YElEmWl1WRzuc2o16PX602ec445PhK8l4QzbQkpiKFmQgKxJKQMjAAWTXMao5iTk1N0O2U5rFOTYDwB1UcoW2gSULOQ4SKRnWAj1Gq10qVcuqGn+lMYtGXqfVFBCHCyR9njyW9qQS6KmIKFdCoMwOU4Dbtd/vUv/0JgwtKGUxhpc1FyIMpzdBS7/lbul/OszZA+pt4rN50RIc5Tfth/zda9NW5tLPL0+SHfP3uDzQ1RmLHerrO51GC/dzYmHPE2pznpzPGR4Ea2+p04YRhxZ22Z1Zphr3vK0ajrVAWrbEUtPm2tsGBCDrPUq0ziyUDJVAmMcDtqcYsar23KSKAW1bi1vMLq0krFVjQlweBsOnj7TmHHcWRR+JYm42UucxS7OarlZB17xLzNKMvJej1yb4S2nqjct9ze4IkqBm9/qbqbLmyVsp+T8pAyyFL++voVX6ZfsZjV6J8MyJOcQGBleYGHO9u0a4a//rDL6dkZFEQz55o5PiK8n4QzbZwVod5ocPf2bb7Y2uCoe8ru4T6DwRC1ls9WNvhy+y6pgednR/SztDQV5wI9sez3u9xZ3eCPDz5lpd8hDg1Li4t8tr1NxDhgriSSghBKghlLCcX/Ck9V6ckq3e6XR6XMlgzUxwEZRHOnQprqvRj/zgupR7wrnUkb00Uw5RVo+b3MGvZPU/765Ef+sHOHxeUlPn2wjRrL9p0N7t3d5se9A54+32U4HILUPM9eyXBzzPGT4caTN5Mk4ej4mJNGxMZCm7v3F/0+3dDC0BkM+PveIf+894qzLEEJnN1D4CSw/J9PvuG/fvglj+4/4GEtIvcBcaNuh+8PX7P1yQPiJMEgGFWyPKcz6NPzxl5FGaUJp70Oaa9LnDv3e6aW3mDAIIvJsqzcbfidoIqSO3XLs9ikCudd4+IM4EWpiSJYEareskm4xNHimMJ1LghNhj3Lf/rnHxDg4dZt/pv1dSAgR9g/7vHXb97w9M3Z1CJQ/ppjjp8d70c4PsSjFPxVSdOE57u7dE8OuLW8zHK9Xq6yRuHNwQGvhh3OjGIlGkcLIwzV8s3rH0l6MfdWN2m2WuRW6Zx12N19iZGY9XzE0VnXNy900xH/9OoZhyNHLAqcnZ7y9ZPvqPcHHA0HIIbjeMRfXj3nLM+I4xnu57eGJ5tzVqTpoy765MLTVqQ079pSQQhBhePOiH//L39j/84Z67VFrFXiNGX/qM/rgx6ZjVCSSpDBpHI2xxw/J+Qf/vyP76XlF6qNeBXFFfPOMZITiBIYLW0qAFYtuUAugtUI9RMJFDEp2Iw6IUYFMYbCDGHzFJGEQARsSI4hMSGBSQklJtOQTJuo5Kim1IwSaE6qEbnUqKGECmqdwTb1UlVVESuif01gGMXJhEo1GSx40S0rzuXsUpk4VTHAYqrnuux+VgjHlhIOFHu0W0nIzYi6hNRsiJBhJcXmDbALiMQII3KJSCWq9Nhln5mSlueY46fHe6tUCpVgVucesgi5GFJsuWKbQlMQIRCfy0TxOpYDVAIShMxaAhHvzREsBiQkUAiNgDqXdYoh1gCRwE91AwSkKImPvREcwSQoRpxqcz7KuWLfsbM+reKinOvzVFIIQdPHX0g65b0cS3468YUA0Tq5FRIb+luogEHERSyLBtWqyJUez+WcOX5e3IgNx5GOm+7qZ5dbpcOxPYLxpMvL2Vf1X/sYHgyoYDClmx1AxGUzqUCGM8aqb6P4jjuLoIReUlB8mqd3TStWzLnJWPQPVfI8pwiNmZUCUR57qZ8JkIpx+9zxesX0v0gCcfacUENnwxJBNcRbiVDJysjo6WqGrgfVp/Dx4bKeffxU+aF6+PE+r3fBDRmN/WQv3EDVKnMVr1GBWbewUBvKbKPpiGJ/LufanrabBJXzCtPRyOPKfcbz0vsPjssnx7jFqhv/Oh6qqyBaEHshpVWvv3DLBzP698seuB+9fPahbm8lHOPXgA9YRP1th8eUCiCzbnPJaG/ZxocaqhdLQBcPk8sHT5WvZx45876MvV6zJJvrtv1x4W2f2c95bYWk/iHG2S/pmV2ND0Q4b+8ZKYy2MvXeRed+1z7dzKHXk1Wmjxibp2FsDH73blxlR/rpJYLrtVjKfz6MajLftJBwi2IglU+uPfd+jkn6oRe1XwfxfNBtYt7qFs042KlPN9SZt8EVAbqXl1e/ZgO/Sug1H1ihZk8GJVWlM5fCcv70V7b/sxSJv2LAvA+uWpV+YfhghFPIOKUt5op8nmKHgnK8yE2sGe/xoC5t/N2sMZPfulrC+eWgfNqlPnidyxLnXUBViGoRiiFNExdmUdq3havVxGr0+dtLBIXtb+Ib0xGaFxHZh14RP3rj1dvh/ZM3K1nQVUOveLJxBaouWAEqN1K0qBhYuNbHxamu05EyWK7MfWJmaoJU/1Mx6E4fcLmEc5Wt5MJuniecXwtKg7837k88vIqfn8lFxUUghHzyyeeoGL5/8i2iGSLjImwFIVxsMdMKXUy/Vv9/mV/wPOFMEFi16uTEYT/BU/wVbe3zXuUpiuzo4lV8iQbxK1MQGIwJLnQvTxNOpBBgsAIZ9vohajMJx1xKOFVCUlW/D1SxQl/uPn4fwhm/XuVc/4WhQjgWwUq1lKsWhwA+yRZftMwaAlnmyy//WzQI+eHZIUbPCE0+QTgX0Y1vfILIJ8WCnGsRjg+zqD6VscRtLyAcmZKqPgR+LjXxw+DdJZwZZFMSi4CUdfgmvjTx17Rz26jb8SBjLOlcqyvTffL9QX0kjnd5TbimlVLNc4X/xp9W9meY0dPz13FdTJlAry/B/YQoC5a93beAindOGG+Z4+/ttN3LXbuChKguAKuohOQsEMgAKOoETVh2Lmy/Sk0OhSW6IIsL3BHFLq7lUx9LaeP2pby4cTpt1d7EhyWdj22QvAdupDxFSTbVCU9BQD7dQc7bPSoVPstzBSZwxary7Np9KBMxvZU5CAz1WgNUSeKkJJYi76toMgzDclVWEawfdGmeUOQx6czV5d1sONVvf4yDSPyvd1UWtULqRscJq9aTTtW6UtC5ioAGrh4z7seNntkqzMVQ/8yKVorFQiiL0JYnmkU+7kNT2R5Z8XWXxvIzYPDJK+7bWjF+fxC8vU3qY8YNbxMz/b/pisPnh7JUBmkghq2NLWIsuwcHKPatFw4B2u0l7u3cg8yy++Mu3W53om+uJ4aNlU0a9YbvgJNs1MCr3ZfkZK6GseQzHvUNEM5HqEudrwV97W8ylnJc4khVPgjCEKxi1dV2tlJ8RklSE7txVJSbQp26aro5A7T1krU7nzEKBL6o/ISiNF6gPPsHxve23F4696RoJmQfZ4+UKS1HZpJOtYlfB128P97PaOwlm6qEU35WSjjF6jL+fJaiJQqtRovPH3/Bcb/L3uGx21tcuYYOK6XpRVEWFxd5dP8RGlt6x336p4NxP3HHiRjWljbY3NggDEJQpVavYULD3u6u2+pXdHYaRJnGAZVf0zfngp769i+/HN/QrA+vvhfvPMJluvzqxXCXPTYGKxZLQFF8TAwQRIS1BkuLawz6Q7r9Y9TG5SwsnrtWSOh8K5f3RyqvxueToZawVqPdXiAIQrqdLnFS7J7hpRM/YEQEQ8ad9QUCcpSAXBWrOYpBNSLTnMGoT5ymPvk3JM+L3dGgtOUUHrrqzqrlpcwpBz6AW7yQH6oei3MSzowJJwrNepOtzS1GeV75vte7LiUdLdRDgFUAACAASURBVIr6IeL2ozo6PEYSSJPUi8lFZcHiK4bT4w41U6Me1bB5zoMHD1haXcLkxrVs1JcznWy7UOHGY0jPG6T82+808ydcu9U7dR37ikx9/+3glJJrKAlT16a4HDkbhkS1kEarzsLSCmtrW6wtrvHm5WsGL7skaVw+WaNO3cpx+XHn95u4jp2ranURosDSqBs2N9fY2blLVKvxn//yNYdHA9DKXus6JpxWZPgv/vAIyWOGqZCrYLG4nLyIYZLw7MfnHB4NSxO0I9bAPyFT9n48JHy+XLH9zxzAexJOcRvLVcYnXzrpxicUXnGO6go1/vFZ3RWVXGdM3om8KPU0p0LntMN36bdIrvR6ffJg0t8lCIGNODw4pnfWIwwMNresrK6zvLKKWOMMnVoYO88bjYtawWV6qE7p/p6Epifv2w09d/R40F5FOM7G8K6tTZ7pIttVcUBVrfSv9Sb11TVW1jZY29hgYWGBZr2OGcagMUYtgY5VN8EVKIsFYgP1qVVIpGIyvuRSnKwhNOt1NtYNO7ebrK+vsbnZotao8+z7PscHQ7DtSve9LKZCqx3x4P4tTk4OONsbkkvN25YMAQFgsbkhz4vE49wtYsX4kMhJc1GECQKSJCHzO3DMyWYS7yfhFMZYr9IEEhBIBDo2IKqMB6V4j0AxJQIxiBFs7nZ8KkpcqK+OLkAtrBEEEaqQxiPAutVHqkRQFKYwBCZAM6V32sOokNscK27nKKpHS4ARS5zFJJkjyzzPETUYCalW7Ssvt/i+CqLGpUwqBEYIw8jtSW6V1CbkNqnuXfdORDPGeJ0PUWoItSjy98pluCeakYr1bb7f3lRlqZFp+OhM9eRujUAYUG80qdVq1NY3Wbl7n/bCEvWwSb/bYW/3BfHxAYPjA/I0cYbkykql4OsjXXaPLlarChW1Vquxc+cOjx60WV5J6XVPGQ4tjcYKRgagKRMGQbVOnRKDEYOIZe9gj3/9Zp9U655ShFBdDafBcOAz810JE1+DgCJ4caHdZvv2bZrNJvsHB+zt7ZGm6dvd+N8A3p1wVP0qgNtCV0KajQXWlzcZDYZ0uj0vAVQIB8pdLVFlbW2NKIo4OTkhTVMyDJkJsBhq9SYLjZD24hq12jLGBpztHTIcdemmp1iTYsULuOoKrS8tLlEP6xgMTbtAPWuyP3jDUXJI4SIvpITMxKgpSpUKQR4gfia4chfG6/dj8vQfYtQguSEkom7qtBfatJcWaDbrpFnKaNCh1zmkF8ck5FhlwlBanUDXsZgUwWVBKGzX22xryOriEopg85w4HrGb9tjN+ySppcgef7fnelEnKtIGQGAw7RbB2jLr27dZbC8iUZ2w3mB0csrJ3g+cnZ7QOTklTweoTb3iMXZeF8qQQUqK1GoJyYpKVYydCc213BhRiKKApeUlgmiRZ89e8Pr1C7763SMWV25hpYmVFC2YrljYvN3RlSwJSRLl9LRPmrta245wBMSSSQZBiFpX+iMvmE4BArbv3ObPf/431Ot1dnd3ieOYg4OD8Xh/b9zEOX5+vNdWv24QFCRiWVle5U+//zOvXryi3/kWVcWYgFq9RhgEpH6nySJj7/GDT6nV6nzd/RobW6wGKCH1eosH9x6xvN7GhC2sbbEQLCBrD9h9/ZxvXnxNikU0L92t7fYCjx4+olFrEFjDqtlihQ3+32f/kaPXR1SlBGekdJKPIARqwEZI4TIr1LOqPaQ0i7ihGBLRClrsrO+wc3+HxlIdcMZG0pjuyRE/vH7GYfeIWG05kaUY6IzNUhfr+d7I6SO467WIzz95xK0EFutNcnXSTpjnbOd92H/O7nGP5IrBWRg430bcL6haJKDebtFcarO8c5v6xjqNZpMszTk6OKRzckp6eAanPWyaOeozSlqqplKer5RM1Uu/49vv74uXnj1JnetvuY+XkqQpr1+/5ujwgKPDAwajLo8eK1Zr7kcmSVgpHB1gRcjVuJ1LfcE2yAgICDRyUe/GtaW+LlMRQoG4q2i322xsbBCGIcYYnjx5wv7+/g3RxK+DbOC9VSpvr1D3U4vqbK3fYtSNeRG+JEkSWrUWd267FfD46Jj9g32SOGFpaZE7G3fIspwaEYmGhLkh0oitlS3qYZ2z0RndboduZ4+t5S0+2/6UekN5tv93smw0acy1Sp7mxPkIsYbNpZCN1Q1a+63xPtsXXMRY7vFEMPH5tAHWTYBaWGNzfYvPP/+CVrvJafeETu8MEVhZWOfuzl2yoMbw2b+QDHqcCzqqIAic69b6SoPTE2ucGqIMAuWFibGjAXmubEnE/bDBo41NsrjP4HjI/hWPzQQu+tvmtnx+V6Hofq3R4N4Xn9O8vcVCrUHa6XP06iUnB0f0ul2SUQxZjrFOmimk2cJmc33lsvB+OolietueaaRJyt7+PgbF5lk5Nsp4GSqu9XGJSi+dA+K8kgsLbYKohgRdbGIhadDt94suUdRamu7Gyckpb968odVqcXx8PN5R1bc3t+U4vKfReDyJFIhHMf1un/bCIkvtZY6PT1heXOHhvU9YW1nlTfMN/c6AdHjKxuomjajJ0dkRZILxO2MGGiBi6Bx3+duzvxPnMXE8ond0zHptiZX1JdbXVujtn5U2HEHo9/s8++EHRA2iQrjd4Hbr3ltcyyQfzFZ6xu01G00ePnjI8tIyz1485dnLZySp2zlidbHDF4//wJ3th+yf7HM2eAakE2d0q6MQBgG1Wg1w+5ln2XTAo5aEGccj/vb0CVmWYNUpI+u50K21+H3jEx4sLvOkdcz+IL7wOgPfnjGGLM3I8gxr7TUnhNBstdh59JBsfYXhwQl7r3Y5fvWa5KyP4Ay/FreBIX4hUqN+8r3dpBMRxBgQ4ye4LRe3sbepFB2xec75OOBZKMhG/SncZs3NVp0vvnrAwuIiYa3LoDMi6db54ekrjnoX31NV5fXr1xhjaDaaHB0fcXR0NG5pTjYl3t8t7j1FgpsQvV6PZrNNrd5AxNBqtVlcWqbRarO8uk6t0UKlS62xQBDUOTw5I05zVJ2Gn6twfHzKt09+4LhzijUZxli63RPOuqesb63QbDaYXimzLKOb9hDrjMeD4WBi8t5kNKiIsLCwwM7ODv2TPt9994RO/8ytkkA6HLCyFPLw8z+w1P6EwByDPWXacG2ModVqucLtxhAYQz/LzpuMfQxRnls6Z2dO9bMgEnJoLUmesDzo8NXaBgvtNlxCOLVarSScKIomtgW+jgs3zTJOTk5QUUxoaN7dZslaNDilPxoySBPnBBB3uWrHqsd1H4G7XvelwBhMELpoZc1KSbCqdr3LoxUBaxVVcWOn26PeEJawRPURJgipr7ZZvL1EvaX8f18P6V98W92C9+wZxhjSJCG/si72bxM3sNXv+IknSUqv32NhYalUE1qtFmEYMRwlNBpNarUGSEBUqyPGcHp6RprlpehsVRiOYrrdnhdhtVyBkjgGdJyYWcmRGe9tN3Z36LneXjYyrz9qjTG0220azSadQ7dlTbvdLgknUEuaxmSZodncIIoWGMZnZR+KlgI/6QtCCcKwVEGq/R7v7Ak1DOutBRpRncLpHtYColqNKIqoe2npIoRh6AjOSw+F2G+vadzs93r87V++JlhdYvP2bVZW1lj//HPCuwlvDvbZPzlm1OmRDYbYJMUIpQ1q/LSug7FBOAgCRCHL8vI9oFQz3xXFbqpxnPLtt8+xeY+9o2NyFCFgcaHJV48f8ODhNkfdhL99+5JCuJqFJLmJ7Yd+3bjRwL84jun3+zQbdVqtFrUootVskoxier0+yysrNBt1wkBYWmxjbU6WJIi6vbyLGJzx8CyYIwACsiz3knSh019z+F64DI7tM1J4HS4dwO48QRjSardRVdqLizz+7DNsqTIpojUWmyuEYZswGhGEBuLp/jrVIMsyjHE+mmyGdANe9Aea9Qb3lhb5am2L1YVF4lHiVIgANlotX07+8nuS57lrLwiwb+m2FcBmOYPDY/S0Q7Z3wnBllfV7d2lurdNeeUCY3CY5OmXw5oDe8QlJr0+cxbyViKPjVErXsLcDlZHq3uP41tLN5L0xPg4wHlm+++YQyBkkkKki5JxGp0ia8N//D4/Y2dnhr9++mKtH74kbJRxrc+I4xoih1WiwtLjIYnuR4XBIt3PG4mKblZVlFlotGrU6g16PPMtceIe1jni84FLNp3EDxVDu3OBztOTcZi/VCOfquy7wrzhb1UBcvG8Fch9fOh7qVYPxeHSLOEkht5bc5jSbDawZ7wFlaGCCOt3+Cf3BAdYm5dlExplGubUMh0PCMMRtIpiWbtRqXR9UaQYRn93a4ou7d2nGKcko4fT0DMUiorRUWY2Wr5wQ8WhEnucEQUCWZaWh+joQIAwC6vU6vSRhcNZFe0MOzk4xm+ts3dpiaWmJja1NGuubdE7PONrf5+zkkEH3jCweudDiK1A+J1WnmvidUq21FElRReDlxawzaxxUn2txHshzpd+3GAI0XAS1qOZkaZ+zThdFaTQbiDHYbLxHfTUNJAgCmk0Xj9Tv94njS/Sv3zBuINJ4/LBFhNFwRL/fp16rsbS0xMLCAvt7+xwfHbF96xZL7TZryyvUvf0gT1Nf3a3IwhkPFTfxC2rwNCGCqsHtRKm4hL3SwUoZAavFaugT8iqBglqReIoW1UAmuavRUrZYDChBcWodOCmh3++R5xn7+/t8893f0CAviSoMhSB0q/AgHjKKz8bSm5dW1JNK1VA8036i7v3FIOS/2HmEiQL+72ffc3R6SprkbnKQ82ejbK+sVAItx8+kCmstSZKUpFaoO1JRRS973q2FFrc++5SX3TOysx7SGRGf9dDBiL29IwbNBeLNDVZvbRKtL7O9vcbW6Rlvnjxh78dX5NdWO9QV58oy8tw6T4+tdLG8Vxd1WkB9SktJDe7ZlvHj6pcvYyF3HjFrM5/5oCA5qpYsS1ARTOA2kT8XcirC2toan3zyCYuLi7x48YJnz57NVawZeH8Jp2IvERHSNGUUj2g2m6ytrVFv1Bn0+xweHjEcjlhYWGBtY52wFnF8ckKaFav6jMW5VNU99eh4wFASzJioKqMRJMdl/BZpDe44K9XtVcaUaVGsjz5FnE3DVR2s1EsR9baElE6nU6pq3W6XlKQ8zgYJKrH7pkKO+GOF8aI8bvsyQ61Tp4SaCrdbS7zun/B0/w39PHPpFKKozehlyfWkfU801TbLQmRXMI4CQRSxff8ejeg+aWdAvHfE4d4BndMz4m4f6Q7pnp2xu/eGxa11VrdvcavRYKHVwhhTVrm5vKHxhjfWWh9rVcT2Tt+biYur9HRy6XKSs/gATD+OvB3Q2bOk9KqBi7tRtURRQBRFoBnW5hhx/Siyboo0jZ2dHf74xz8ShiHLy8t0u112d3en7E2VLv5GcXMqlX9YcZIwHA5ZXV2j1miiAsMkpjcc0BsN2Ni+xWqyThBFnHROGWWpTyQX1IhXbagoQVoZR8V/ck8o4C0L4+PKiWRRyTxRVEsmWIraXqKmjNdQHcfARFHkvNgFJxUrXvGWKnGSkiQJyysrrK6usn+yX04HVcHUGwSiZKOhMzQW8SQyPebOm7bLT/wfLgvaeWwCIFQhtO5axUCt0WRxoc2YlN8Cb3n8YDjkxfPnBFvrtBcXWV1bY+X+XV69fEVv/5DsrMdoOCQ+OWXY6dL98Q39pUWGvTOy5Ho2o5L+dPLv8e/ZcJKMLVVoRzc5QobBjktPiFuijLcFrq2uEVrL6fEJAeIWHpsT1QxbW5vuuvt9X9incPFT7hHmajC5cIMoilheXqbZbE5b7Mo+/pZx49nig8GAs06Hu/fug4XhaMgwHpJj6fZ7ZHlKe8lNjlGSYNWWC5GKV33EojJdbc96L1AOlZxdB0MUNVmor5UCdGthBROELLZW2F67j5WcJBtxNjjB2rhi6xkP4W6viwKfPvqUpz8a1Li+aWDZP3vjc7Lc8YPhgGfPn/PwzkMef/YZPBNGowGgBI06q5vr2HzA6x+/53QwGiuLUpohuGj6lENSC7nMqUL9Xp92VOer7R1eHxwAhlotYmtrg0+37xCagEa9ThRF187jeVsTaDwa8fSbb7EvmqxurHNra5vFxSW++OQx6d377O/tcXTgJJ6s12d01uVNt+Oiwu2sYh+X926cVjL+LcBkKRSXn7VQr9NqgsgAEzRZbBgiEtYWayQbDbB1Bqlw1k98LWUXB/Xl776gYTJ+fP49g04XVDEGVtbX+Pzz+4ziEc+fvQD1gYhakZ/UYEXZ29vjyZMntNttjo6O6HQ650q2zPEBCKe0EQBBLWR4OmCUjsBYeoMOw2TI0tIipycnpHmMpYiVMVjJUcld2kFBRCUpWJAUJ3pUvUrumKXFDT7/5E+IhggBW4srhI0GO9uPaK9sEJuEo/4Rf//un0l7h34yT9qfXr58yePtz/j9F39gZWHVidkGUhPz7/7j/4GSlhXg4jjm6dOn1KXO1vYmi6uLnJ6eAEqzuUK9vsL+0Xcchi+AkbdFKWYiH6jSfuV1WgJSlFGW8u2zH/js4X3+ywePedNaARWajTrNZg26A0YLTZbXVlk87XB8fOy+fZNeFfXG/UGMGab0zvqMnu2yuLjMvXv3aW5vsvHgHst3b3NweEj/zT7J0SmjzimaZudc/krhebo4/kf9r4sKsRUqTQjcu32LRw8WETkmCISNjTY1Mr54dI+7txJU6/x4mPGXv+8ySlKsVaIwwErMynqDhzu/4+T1ayJc1ciljVW62YCnT1/y4tWPqETezpOPVWQfM7S3t8dgMKDRaDgnSbdbsQbOUSC4vX3/f3m/U3jjrAiR1ImkRiAhCnQGHV69ecHe0R6pjZ3UEij9UZ+9wzfsHb1hlMVYsaixBJEQNSIOTw7ZP9knx3qhQAkQmkEIBt4c7dEZ9HyZdSerLLSWWF+7VYbTp8mQTu+E7qhPnMaM8iH9uMfxyQFpMpp5FVmcQwKBRJjAYMIAqxnDbMjLN89LCcxogNGQdJQy6A4ccRkwxg3UUZyyd3TMyx+/56x7RK6ukqD3tfkWZ6tShV3A3dPiSEFszrDfZZSnZAasCQhrDYbpiDcH+/yw+4KzdEhHDAf9EcPhkGK/95uDW7EDdVnUQa5ImpMOB5weHXN8esooywiDkLX1dba3b7O4skIzishHQ69SVewuAkpIri0+efx7AhPw/bf/mZAegWTn2i3HWuXmlDUlBVZWllhabYJkpNbQ6yccnw4ZxEqSQaKGs77l8LhHnBWqtWXYOyONB658hoQ0Gi3SHI7Oenzz5DnffPeSYaIgEVbFOdpEKIvLifPQJt6cMBqNSu/fzSRu/nog//Dnf3y/JVDHhLMQLtJkASMhQRiSmYSRjsqcHeODuPATIctT/5knrDCkGFRpmpaDSrBEVmkSEEQ1hmpJyEnVDWADBFKnFrTK1AbFOruMT0O2xpJrSpZ7Na4Q0X2VO4MhtCEtFglNiKkLhDAajcg0Y5j3Soko0Bqh1gnygFAjgihAjTMwBkboJkNiySGPEZthpaho55MUZezxKh/E1Ku/ua7vGAJyInJC4+5jLapTj5r0Bz2spuQ2dQmGUZtEa6UnCm5SypFydwN3LZOlJnITQBjRWF5k4/Y27VubLKytsK7wt//wH9h99Qpr8/GWTwZSWyPWTf7H/+l/JjAR//v/9r/S4A2RDCezw2VclL9KOIG6qkvW5pjIUKsJIj4iWV0ksfgyoSpCnkJuDZkXP0IskVjqxhACzXqd5aVler0ug+GQOE2cEi8CYY0sE8ajx98HGdsAb/6e/7pwM6kNxQCSnNykZDaDXMhs6tL6/SyyQG6zSvwEzsuC93CpurB444y5Y2nAkouSoGiWkUqALXdK83E0mhKnPYo6NnkRUePndemtmnYb6/g/VnMSRsSpkuUZaqy3IdhSuikII9cUjCO1xDqPxih30lgqGYlxmdJGxs5Yd4/e7vYWRT9zX0ZhqDlYS6AJkmRY9WH+EoLmSJqVjXyQQa8gMqOomILxFarioxNenp7Bi+esbG8xaLfpdzpgc0xhk/EePusN3aaUYKo/1+iOeFtuYMhUSUbWR2W7SGrVSjlYAXKLmYpQz9UwzCCUgF4cc9Q7xFpvHNYaVpRcM4wtRltVSp28E3OeuRw3YMMp5H/IJSM1I2fnuKQsqBtq/sHJWOgvaqGMs7vHvqocZVQSzPntW5Rx4p4T1Qsim+7tdJ/GA0+NkmgMgZ8KJZH69axMVM3JxbrdJc6pSOoronrppGoBvqAHxacVp9hE33wn0KJyjBTGVGWsVACEaFFG84Pg/G6hVStUEaQoNkdsjj1LOel06WIxmpf3BIwjCeNSNqCqelxGOOevSxmTeOEmN8Vm5Tom+ul+j5+ad3ELpC5BzfVJKtKKAL7WsbPE6SULx6x7P1erCtyQ0div4eLqzBS8L+LKjU6utOJnVkUWn3k+SkMreA9W+ZnOOBoQO/He9KOfbTWZlD5U8rHEVn6vSgf+b5lNHNWzz54eF2M26VS+p+NJWQ09+2kHtOtd1Q5TRRF7JBTqlvrn4mNp1O/KWUg3qCOpssj+Vdejkzw81bp78+InX/CalMtTRfqZhSIPzLvQdcZzv9w4PCebKj7Y3uIwW6S/Ksit/D+TU9z9rqxW099lchpeMGVnfrNsa1Z/r3GGm8TkdV/W8myrz0+D2VLiNBmMj60SpouJAlDNQUy5UaEJrlsadbaMeH0V0pOmThZgnz5tQUTuCuQdSsXOMY0bJxy9gu/f7lyz/5optBpBz+UFXVaBZfrsH89Qun5Pfs7V823vl1IGaBapJt52Y42zshQqTL1exyaDG25/+ltTO3pecLqSbN6jzatkoN8SbpZwytBwqWR0fzgUuUBliYXZxoU5fnYUm8hZL0kWtjAwgSBqUU1QG2HznDAM+KnTkBQ9Z3J0tsiqfD17WbqUSryY9DEtaFVMWyAnLkbPvzWNt72qm1eplNKoCZeoUDrbWnHuZD5Z7txR3qhXrIrWWiZiTiYMuh87pmxcvzh4pWSWRuU/LyhGGNv2sBlBqGAS0uQMsQZEGPT7GJuD90CNDcpO3qiOmqobWtFLZkBhIxqjjPguLMoy2X/3WeHimDEGJ67+4g/dd39OFfhiTPKLlsLe2Ngu5467+AxX42YIx0sYxrhtX7IsRy+teiBMmvkv6vQlhAOEYUAYRiRJMqNM5vsSzlXc/b4DZ7bpccok+wtBQTgXTcpCMXHXZv11Ws0IggSkx/NnXyPRJkJCmsaIjYnCkHInz9Ky5VWyomUZOyEUS5EhXm3XTSXDTNeSek7xaRciFq2U0NCyeNjli8JlE3LS8vihnu3buzCmR5pFvUfW91gv63VhcP+pCad0IRpX5Q/F5rkr3wgX3Ifpy7iEcErd/zyMcaQzHGW+OFdVpXofwtGp12lczftXnr0SRyQYJ6EZ5y42RcCjyMTgvw6u6tGHEewLKqkYiM+1qhgtjjJeXcnIsEDGt3//T9iwzSgeshjEkKcEga+K5LfscZja1LA0v3iH9QThFMfnF9oWi62GVV2tHcFip+55eVVlW3LuHD8X4YxVoapxvqTjqdcpu9UMwrFVwmFMKdN7qRef/LSE41eaYsM4Y0wpabho3uua9WcNhvGEvCiex5VZsKi1ZaRniYtI/VooxOvZJyhTDyYaOyeczjzveOBWH6xTBaoDu8hKnuWGndknytNdMQTetpT59aFwQX+rtY60uL0uW9taIAFJSdMhbpt3JTCCFvt7U7UHVsbF1N9O+xmPOXcvi00QL1HffUkKLSPQJydsOV3Pp/pf665M7a71tifgskaLsilVKXJ8+Fg3KK1mpRRq/PvVelOMt7+pSpSX9uDqT6u4URvOeXtNIa+eOxAmHoI/dhbeeUF4t2lVrgl6fgUoP9fx+uDiRwxhWCeKaqRZTpqOsGR+Ak5+W4qBLRaKbZHV7TmlEvigwRzBlx/Vy6wH5/t9E0e9K1TGtYamVRBB8CVnym4U9YzwdYYwvuRIuVDbQjaqtsIkKRQTzU0mtEjwHT8rnfiuf50Yl9NkUyWcKWlmBmlcPRk/DNm4T8flOCh/jyWbca0owZGMlhmI7jOL8dcuxu+2MTEnz/d5eua6I683tm6McMa69PQnM26yVEfeJSvPT4zqYyriMmTqcydeFsUtBFFDGNTZWt9m+/YOxyenvNx9xih1exmdF87cSV34vcFoQLuxwMbmJkShS2TNYozA4eE+vV4f8xa350NJL9dp1ypY4wy/GCEwgbvWPCe31m92Nx7ERgy1WkiaJhUJdRxPU0RTn0+kmJIOUdzWvW5P+sAUXlI3tvKsSKFgQnos4d8bt3SBZHvxRxeM4Krs8CHGuZccy3tqfcXH4kfLcr1FoqmiBGGAL4Tgcv0yX/xJAnIf0T7u8/ltd8YSH2XFyOvihr1UPrzdG5EvD8SaZqePg3RKKOdu9FjEdhnToi7VoGZqbK3f5otPv+THH3c5PNgnTmbUtPWib6DGf1dYqC/yh0f/wObmNn0zIA9ibDqi2ajRarb55m9/e4vwAl85cWL1//BQ8JUUXb5X1KjRXlpiod1GgH6vT+fslCxJK5IItBfa7OzcYX/vNced08qULAinoIApNU10YtC75A6lVYtYXFigvdAkDEOyLCO3OYN+n063S5ImqHVEFATFTpzVkv0XW6Euw88zcisqVKXnRsdRQ25xtJ4+LAZLa6HJ6soCtVqIAEk8pN+zDIcxmSoQkGlV0jmvWokxYIWxWeBnUqmquHLInzNszRDdfmYOmmWLqDo4i6mQ5Rmd7hlv9t5wenZKnhePS6a/7uG3twUePfiEP3z1Z16/PmT/5IBE+oim3NraIgyja4uqE21cuBRf9DTe70YXZpNchKBeY/vePe7cvUez2URVSeKYZ0+f8vrHH0nTDFElCkJ2Hj3iqy++IBc47ndRr0peqX74THCAQNx2O0sLde7dWWdrBN6gowAAIABJREFU4zatepswDF1musQMRh2ePn3O7us9BoMRxgQu7aJ0qTvFxAm1H9nCdwEmJQ6dUK2Ml3oMBeGAkLLQivjy8x3ubG+5u6ugmtLt9XjxfJfd/TOyDKwaJmnLHezsQ37RLYSKt6TnD0I4VV78ZUJL4+f54ecMuXmZMQixpjw/fMrR6JBklNBLu7g1QqbOWnkVp4I8ePwA24z5+of/h5d7P5CTEhhlb3+XOEnKyofXebBV8+Akpg3q475XvzlLprsuVEANrKyv8vjLL2gsLHJ0eIhVy/b2NlGrxVm/z/HxMUbh9p3bfPbll9SbTdLcFbQa79gx2VWF0puEV42K8hNB4LyjOzurfPnlJpIv0j8LGYwyxMDKWsDtuxu0WhFJmvHqxzcExu3u6m7BeFqN7/B5y93l43myTHv1/enjzr930dIsU6/nv+HOZjHkJelMq4QuJUOo1RZ49PhTvvzDZ6TJgIO9LlhlacnwxecPWFlepPN//RP90xwl5Hwcm4AvLxMGEdYqaZafd9ZcgfcmHKdBjTv2LiLpxZgcAleeV3XKPvQ+LV+UEezsAQgEGEJxgzdNRxwfx/4G5CCWWa55lUkJqdaIOBnss995iRJjfMj/0fGBqzhYrMLXvKvy/7P3XltyHFm65rfN3UOlRgpoQRBFUFSxq7trpufirHVmrTMPNm91buZmZnq6uleLYrMEiwQBEhqJ1BkZyoXtuTBzEZGRksgkwPa/KonMCHc34Wa/bWG296H9Jm7VCxUiIIwijHFhMuMsIbYu5mIZeW/SrXx6BEHA2rVrLK+u8uTH53z7zTdoZgmjJtdu3mD52jV29ru0Om0efP457ZlZnjz6jtcvX6OZEkwtWUo1sbBVeDuP5oZ3iBohg1GXlz9usrMRkMQJKhkLi0O+/Ns7XLtxlTs7V9na3SFNjFOtEKxm5JJrEUJ0KlFUx+AkGQil12c6jiaz8W+nW0vGr6pe7ZR6A/hDx+JkHf9JUfO1q1f57LNPCaOIf/33/+Dt6y4BlpUV4fr1/41PHtzh1etN3v7hB2+XmRi7Cs12m2tXrzIzM0s8ilnf2GBvb/+IFk/HhR7ehGOGbvHFpGpVfl6e5z0F3fhjFWPUd0adLN95WiWbo8yHgRgWmnNcn1slIEQkRBVGo5jt3hb78X7RJq20wWAwxomrAYZAhF5/QCDQiCIUi9UMm2kRruOI2la6rtrqCWMqShQI1xodlsMGC7NzNMIGCuz0u7yOD9jo98jSDJWg4hY9PQQIFEwYMjM3S7PRZHd7h/31TYJM2d/bZ/nWDWbnF1hYWODmxx+xeP0az354zqM/f0s2iAnVBdEv3kAerVDGX2Ouibtd5o440yzj5YtdtjaUva0B6TDAmJBMUzZ3+swuXuE3C4ssrCoSpYjtkKnBap5Qz6eaFh/q42gtv9LiyoSUknCOuvo45CEv8gIN+OMf4+9VJ+4BUBM676bNsJSJBdw+J0VECcVy/84KVxdDvnvyhh8fbxAPhxiTcPP2TcIoxEjGp58+4D/+8pI0geI0fS6OCywuLvF3f/872q02SZLyxz//md29P5/UWWN454Qz1k0Tga6PrdJUy6gWg84p2Ec/QfPyxuLmnnHqHEsy45cZMSzNL/DJvQcENDHSohk2GfaG/PGHP9Ld7hcPEl9/QWk1W8zPzTtJQwwN00QbcG35GpmmWM1INeblm1dY6w43HkV6VRdYoV/nynneEnFZKD67c4dbrVkajYZTX4KQQZZwNe3x/fornr54TeIH6HHtlymvofCEqMslZRFMEBKIoRm4FMY2CMEE3L57jzsfP2B7d4/vvvkrg26PQJ1k5aSNvKdcYUZyj1Ml3U8ZYwJwqWS2tg8I1GUeNWJdmBEUtQ329i2DeEiqB1hSMhEyAjeh8tVcfILFyhnAsYSEk52QKzHGOG+cOe1J9yqcemitJbO2kOKMj5MsmIrhfNw865ru6o0RH/pUinVWyQVdSyMyrC7PMRNZHn/3hCwOMWJoNkM+++wzBoM+o4M9FudXWVlZ5unrXZQ8TVLZrmarzcrqmrOPZZa5uflDKtxJuFAJJ1e38h9rbWHsG8c0aUQJ/O7lzNoTM0SWaWApcmbjN5ZNL3N6fXPvRZqdlEHJMrBD1pNthA6hUe7ML7PWWWPm9XMCG40NXPcvzLeXuH/nPp1OhyAI6TRmiaTJr+49xAX2yhjpgNcb6y7r5DF1FRMUBlRn53BxZQLyDVxu2GRZStRwEQFf93fZTUdEUYPZmRnura2yNj/L7uYOW8OY4yTDvH9UrQ/fmX/jpK04Ttjd7dIbxixcXWPl9i3C1DK/vOzUtnaTWzdvQmr54Zvv2NncpqmOoMTk8R3HSVREEC90VDznpTdUS4518WqcazhTZ19QsUhgCYIGSRoiQYNM1R+vqBKXD3AmpoyZ48esqC0WzCqfS7tFe3GeRrNZ8XqdEn4Toc2ULE1JfDJEFALP6v1ej0G/58hH8z3ajuCNr/chVa1oi3uYiDA3O0On3cZay/7efrGQ3f/oI1ZWVvj6q99zZa7NnXvLLC4t8vTNnk86OK7qHfR6PH/xkqWlRXq9Pptbm2drMxcRniJXbfKYs0FAGIYYY0jS1MUq1mmr6IS5TcTl+Wk0sFnGcDg8dgIWu56NIYoigtBl5kySBJumpX3nGIRhSKPRQEQYjkZFRszD0pmS2YzNvR268QDVFq3GEi3TYX5xwVlPtbyr7A+fKHA4dHaHqOmMn9YyGo7IsoTMpAx1wKG9IhP9FAQhYeTSC6dpQpa5HdfiReBcUlFVRsmI7358zKtU2SZlnxQTBMxFTa589gW3V69yfWWZ3VevySr7ZKptd/WNiKIIay1pmo7nQhfAWjZfrfNy7Tnza6t89uWvMaklmunQ7e6zuLxE2Gzww1/+yubzFy6FLz42sjmcBdj4dykiZDYjTtLKMu9rJk4iyjfa40nWHWdICCLDwkKbKGrT74HQcPuFCnXUFM8BIYxCTx5+gYzjkmm8+J4T7fzSEnd/8xmNVuuId3UMFKcSWj9nsjIhQCBCEsd8/+hb9p/3nMTjyQbNw9YKgQhhGBIa1xdWS4ms+lrm5+eJoojhcEgeTbPVbvH5F7/moJfwpz894stP73LnnhJGgd9wmW82KLG3u8fXX3/NleVlegcHvHr16mxt5gIJJ0fUaND0YnwQBKi1JGlaTuJD8rl7o2EY0u50CIOgmJSD4eFsC5MIjKHRaBSTUYwbOGmWHatLC9BstWj4+4IgcKk+pklH6oZ2kqTEaQ8YkrVSEr/Zz/pQq9Vn5//Z68d892OPwAQEQcja7WWGowF/ffJnRvGQzP/PWjt9EKubiM1mk2arCbjBORgOSb1YnjHuM8lQnu5v07BKCmjgRPWEHltb21y/ssLSwiLmzTpk09qrGJ87252Xg3g0Kldl38pQldHOFk+/+QvXhvdYmp/HKuxsviWam6G9MM/z58949cMTgtEQ8SpU4CXR8lxUKd20/GROs4wk7blt/IeqaMd/VwWJUYYsLS1z9foiSSK8XR+SJAFqxd8jbnEoPDJK00srIkKWZS7ovh23peWLh/GZOmRizJ8a6gP4i0GisMg4YsDFrRa3O9sLc0W/5EFlG42ITquFQRkO1S+Qk0ujW0jFCHEc+/kJ9z+6z8rydb76zz+yv2vIkgiRgGYzcpKxCmKCsXaN4phXr16xsbFBlmXnSmV8cftw/AptjCEMQ1QVE0VFkvc8R9HYepobff19LouDw4kia+XEehiGBF6tsl66khNUMsXZOgJPcCYIXGrayVPoRc7y3LAHRc4scTlDrVhsJc1JaYdyK2vci13gKYXExiQ2Zq+3y3A0wFKGaB0Xmct25m0MA98/UcQojr09wt1TZNXOVQ+EZjNiud2hEUSoKk2EdhhWVKXD/pm8/Kq0gQhZmvo2aHGhQSFJ2H3zll6vR6vdJohCVu/c5ua1VfYPumxsbTIzP0ur3WE0GLK/s4ONE0gzF5NUvNHYl+tsXROW47EKajFB8qg7zj+T0J4J+Oj+Nebnm7x8+ZaN9T7JyL03H5nYd3KpgoSRGzt5o3IP2eQ0VrXs7ezwzdd/xMgZ1akC5SFg8dvJjXhRTy3d/X3vuSt9RoE4z1QgLstJGAaOgEyud8pECRWLnifGdrvNw08f0usN+Pavz1DbQnzOLbfgWm8GOSwP5JLteXHhXiprLVmWFStGbouZtiJUD4Dm9+XXZifaVHx5+bW+t9LUSwscb9oShDRJCIxxecXTdPqqJVp5qf4MkJQb+crVdtKIWB0IOSWU1DD+c3RN86ekaVquxNaW0Q5z0tGyBjPNNh/NzHFndoHlpSuEGNRajCoL7aYT7aXMZzoGv3BYdSuo21BnDw+6ol8CNLUMdrsMDwZcvXmDtavXSFXoHvS5dvMWM3dCIoQszXj++Akbj37wC8L4SXBVJfXpgo634fnt+Go86StRw3Dv3nVu3Vpjd2+DJ9+/YdADa01h4XA9LWPVz9IUcjtemjpVlaoMJYWUQJKi3T7Hy87HoQxbqsb7hQSMCjZLSfoDwjz9DKV0U4yBJCExhsBL8dNHTq4H+r9E+Pj+RywtLfGf//kH9vedgTjfBZ+lmZcQLaoZx3nfzoMLj2kcj+LCfmKzbEy1mewcY3IvgSON/mDg8z+7nOUnwZkRLKPRiNCTW5Kk7gR7qfwfWdfBYOivded/rJ9sUw+lVtUWb6zN7Sfu46oMPvE3E9fp6QlHgcy30arFiCmM6uW5FvccVaVh4f7yGn9/5yOWMOz2+3R7XbIkdRkm05j51RVPUta7hsvS8l6zWcZwNCJIEvdefQyiUvLI6+4mDDgbx0cPP2FmZpZXW5vMzc7R6rTZe7tJfxSzcuMaH3/5G5Juj+1nz334ihJWldFoeOxCkdfTGL/xwFqazYC161e4e/86ozjlu2+fs/6mi02bXh2qyNW5vuvcQgyHw0IiT9O0SBdjK1JGThRz8/PcvHOHIAjPbMPJ35PFHQtRcKEhFAIxDPt9nv7wI/2DLiLW22/c9UZc38RxDGoJAuPSGuUva6LDkuHIR1IUZmcDPv3sDv1Bl0ePHrm0TChR5Gye8SguauZ2X5viebkq3+l0iOOYXq93ojNnEu/eLV64MdUTR8pwlCeHcqLoZCaHMQLy5KSqjEajov9ObJi6vRtYS5wkhUFTra1MwuORZSmDYbWuJw11P3AlDxEgQOjtApO2qfG6Vu8tJ8Dp7AA5IdtRqUS4jXBVInS4Yhr8Zvkad5ZWePbsR/7w/EfWhz0ky+ggfHnjFjfBHQC0XoUoHpCrHq7OVZ0979dCJfBqo2qGSMDs7Cy3H9xn9uoKr169RK3lyrWrvNnY4Mc//pnkoEeafcH9Tx9y8/493r58TphCVTlRL6HmPT21L3y/iXHepLAJt+9e4/6DFYIw4cn3W7x6kRGPBHxa6UpaKrde5GqTugSMbuxo0afV4OnGjzNFCNotZq6uEEWNQiU6PZy8kgcjc5sQc2lLifoDZH2bYX9AIIlL+Cc+ppCvjM0leHULThFit0I6osr+zg5ZktCeDXnwyQqLyxl/+I9v6PV6qA0IMKwur2C8qix+XEreB76zZmZmePDgAUtXrtDv9Xjy5Alv3749U6svjHD8H8Wkr1wxPnhKi2q552HqfScVTEk6qt7bcqaKTy3z5AOoOVXkrzsXenXiuurfVXKpLutnIJ0pdfUVrlwBi80Oa80ZdBTz8tVLXm5vsmUyIoRBBomfVKb63saaWL7LSdIvrlc3YYpNh62Q1Xu3uX73Njv7ezx+9IhPPr5PMwrZ3d6it7VN1h+w+fYt9x7+irkrC9hA0Amdzr3So6TM8b5Is4xW1ODmzWU+/ewOUQMePfqWVy8TRgPHomLGVYRCICjNUIA95C1TYDzNmlsUD3oHPH36I8YE7kAjp1nWqq2rBrEypdxslSxL6B10CQxjkp/rci0qn2+PLbKU5t5YX19VZTDsE8cxYdDhwYNb7Pc2+P7xX0kz543qzMxw49p1RGFnZ2dM4pbKfF1aWuLLL7+k0WiQeo/zz044p8ZZ3YgnP/Asb/unlpQrDygGo35/xJi0cnq8ywyZeUyaAFeN1IeGsNY6cTnLCHG52o1V5mdnvWdECMVMdVKdtg1WnNg9d22V5Yf3ybC8ePQ9OxsbJHfvgBfd3ZxRwsBgBNIsPYeEkMNJdM1Gm7u3PuLTzxZoRDt8/91bnv/Qpd/PwIrPtmm8dluWNa6FjJO1f7z/x19R2e8Vd7tsDoeF16q4/JRje2xtkIqU6r8wo5iOyS+sKMt61FA/LFVbVRKrbG3tcnt1hnZ7hv/407/R7XaxtoUGyse/+phWq8OrN+usv9kACVEN0Qn7jXg3fLPZRMwRC9QJ+PkI5wOHwYWWmG0vEwCdVsRCY54wEBbnF7gWXweBQb9PbzAYk0YKDx6C0QCxQkCAqD8VI6czkE9DYUbyi+DuqM+b4QHzq0usraywaxNm0oRIDMuzs9y6eo2GMay1Z1kMIjaThOwcc9/ZOWB2aYG7Dx/SXJzn2TeP2Hr+Chkl7L7dZPjRkNXVVfavX2XkDciCsPnmLSarxqY7A+uJO8B5+9oa/8vnn7C8kvL85Y/Q67PamSVt4TZIhi0SK2xu7foT4waZukgdLrsIqVFZ7UUVMncERcau5fSE45+YxwgqJBQvrUSAUePc7kyS49H1Ha+884Y++WGdW6urzF9vEwQhC/MLZFmDK6srfP7rB6RZxFdfPWIUZ6hEqD9TVm3J/v4+33//PSsrK3S7XdbfvDlVO6uoCeccUMCEhhtrt/j01m9pEtIMAubnlmi1Ij766B7zt9oIwqvXr3jy5AmDwaC436p18XAUjCeagBCjgU87a08dWnQS1RVQgH1j+ePWG5pzHW7dvsP80hUO+n2iIGRxfp6kP2Qvybh/ZY37iyvsvX3NeTO0BI2Iq3fvcvX6dZ6+XufFk6ekBwOaCDsv3/D6x+es3b/Dgy9/Q5YkzK+usPXmLetPnhGlmhvxKo1xxtx8C0UBLW03iPNI3b2xxIOrHaztYudusPzJKhBgibDSgNYC+0PL7//l3+j3p8QqGuvBKnLJQip/+b99fX+KfJrbinSi3cXfqsX7nFbOcdSmuH1Cag0v3vT4+ps3fBJd5eHDL2g3b5Blhtv3luk0A779fp1HP+5gJfBjz+/FqRSwv7/P119/zeLiIr1ez6lfZ0RNOOeCeyGpTRnEfVICYhG68QFqYCQDhmaIKGSa4Q5wl8OliEEr8Oz5U4ajIUmWFMnhzq6UlchV/HycJAI/br3FZBmfrF5jptUmandIs5QXW5tsbr6l0Yi4ef0OqZw9KHZeqNu7JBi17Lx+xcvvv6e/vUlkUwIR0v4BP37zF0ajPvNzcxhj2PjhCc+e/MBgd4fAZkVO72pbxmujY9/lf1mrbO/s8t3j70HzzXopJoixmpKRokNhf+jsDlEjclsndNpTp5U3/vmYye2QGjNBjidBDlPWhIXPeaam1K684WjSc+PJMEiEPz96xYHtc+PWFZrNOQITsP56k9Ew5Y9/eM4gNSgBBZdOFJhlGbt7exwcHIxtWzkL5O9++9/OT9AVI28YhrTabVBlMBiQZdlPYv7ToBFFzMzM0O12T3H26d1BVDFiCE2TRthBEAIEt3ch3/jnJI3MZiRpOp56pNhFLDRbLVStc/+qy8WkclRojFNCy2Qs6oOIt8TQDkM6jRYGd6o9sy4inghEQYvYKt00JT3jQcTCcmWEmdl5wkbE/sEBdhR7+5bb2JaJYCJnAzDGEI9GpHEMmcWoM7xXERjjVB8RrFoyVdePSmHXcPZRYTYKaRsp0gZb6zZi5ocaLc4+NYwTIN9dXNbfettXMdnGWjYJwaWjmfbVWV/ceBnjVqRSqRHyXO3jMIFBTL41ogxR4e5RUEsgEGYBAUKjoQSBMjfXoRGF7O/soBrQGypWhJSEVISECJDiOEW16YW0dw7bYy3hnAO5sWyUDYk1KT/3g0eLkev9Ds6iXFyn4jMMIAzinlMRxK9l8m6N32qdoXOIMkoS9pPEey/cypofJSIZgoTYcxnz/cCzymB/r9jrEhQD0nuJsgxN3VmyPGODO4QojJ1ryJ+qWuwvsrnhdHKM+x3Gw0xJUou1+NjJbhOh1fwUtq8GAnnEGP8OzpUz/Cgd58ze0emPrZigx0jokAym6uyDR5Sr6g6qpgJWBJsZNE7ojfbdmaxU3TlHFTBCpqZwdB31vKMkv9PgYiL+VfTui5ZyijLxnfHOvV+HkRv3XJl28pvyv1J1u1Z19Mo1Y6Mo191/Yhsqu6FFyj1BSuWolBflzViZ5+u/PNaPVGwaUnzuUD3QC1puUssNsVMmjPr7Jl39ef3ze0WV1GZk6suUspHFHV6iLJ7k9bV8gucqxOFaHNUf+pNf01GY9thcvdSJi5wWWtkvU7nZCTvO3Z6JzzuVvwcN3KIjTlrPfAB6W2Qrmexr/2uhhk6mpDkdagnnnDgsBB8eDO6zs+nz73IUa2UATq2bOunnfPmWxnGqIGmHCjkh4n9lwTrWOFoRC0ppRrzkWK3h9PLOTjaXi0myGVe3p0h91W+lcqfio1WW1jEXbM71y3jg9GMqo+cjG6gJ51yoqMnvLXIO8Va2I66SM2sAlwk94vep11abWBDQZCDwCWVAKhLPT6jnZeC4MXd03ccVtKkn7aU8xsqYFHoMfsLgrwnnBBQu2QkV8bIH6Gnkh0kcTzYXQJo/MwuP9Y8c+uVMBPY+4nx1Hn8nxzsjzpZj6jx4t0dBf4HQaXaoMbtCjRo1TouacE4JVRcXJxfFL6/cmthq/HJQE86p4WL1BEHggoFdEumISBEY7D03G9WocSJqwjkFhNyw7yZ/Hob0ssrOQ3s66Cl+atR4P1EbjU+BYp+I2rNH5/+JEBEaUcRwOJhuT5q8vvhPjRrvH2rC+ZAgh7KV16jxQaFWqWrUqHFpqAmnRo0al4ZapfoviKpa9vOZmKceRaz8PlnLWpkcx2RfHdV37xdqwvlgIBMb1afjdEbl8glyrCH6LHTk7UvuNOXh4e/PWuiYN238iGc16BRF9ojxa6e2ZyJDxlit/S7xom75x+/vnBxDWe/ysGh5FLc6Gib/hveReGrC+RBxzB6g4whk6qbFEwJGqVqMON07tBDg0/gIxU9BBn5OGFx2g0zUHQhUf3CymA8uVo9BEHWRewBCH4jeajUMmJKffneRmF0k6TJGXvUgIpUyJtp9+OOJoxA5U8nYBC9LkWl3FURaPRRQbk4YL3GS9PIPy9pPKaF6KF21eH0uzpAWdU3F9XduJakGbH2fcCGEc5xgPH7hxCc/YTPdRaoG5VlAgerp22rpxanAo07YHVHDih/7iCF9+PIj/j7xZPUpvFxa+a+bbpZQhKVmmwVCFggZacaBWHazmP00IVM71oaWKnNByKhh2EtjNKnmdFDA0mk1iKwhGcbE4qbHQhQRIHSHQ1qdJo2oAaKMRn3iOCVqtWlHEaF1Ocv6aYyKcWEXpJpG7whJaKKhbmtVNa8lRGHEzMwsapXd7i5lUDCfvzw/la755JZDBZTvr0rmUh7AnDzUNSa8lWOpSAcjJZE3ROhEEe0gpG0Cx8VJxjYxu3bk80yV6WfeN7xbwslzOeWr7MTkm7b6jpPTT9TVL3T3rxz6bwE9Wpg96cDgWI6knHyOIKc8fY5U/q4+W/I0Oce1YIJ0jl4EFKNKxwRcX1zk/tpVVhsd5jVgqJa+sbzY2+HF3g5bBz16lQSHDVVuLS9h5md5sv6KvWRQJJIDS1PgwY3rECsvnr8kxWJQbl9ZZnlunmdv1lm5fpX2zCzNyLD15hXbu12Wb9xlcWaWIBnxamOdF2/XGWYZqSc8NzFPN9HKLnezXVWwIjQX5nn4my+xWcb/94//L+CC3ZeSRv6yXU5wVfGE50eGThK/Yxid+KSoR3Wg+MEwnhk0H1uKYFlozfCra9dZas8w22gToNhRzIvBHs+6W7zd6zLM8kpMWxx/XtQq1QeCQ5KNMUUuqTwyXk5Gxfmrqq3G/52H7MwnTjXXVElmTh7pqPBw7gp/+/FD5loNkjSjHycEarjebrLYaHKjOcN/pi/4/mC/KEdEWFtdZnFxkcHGJnHWp28AcVEAVxsNfnvzNlsHA169fI34tMNrC/P8+qOPubZwhYFm9EW5tbrKnVaLrZ09wtkVsixlbrZDZ6ZFPx2xvrNDkmYgLguDiiu/aHmRO6uim1RtOZ4MMmBkhPb8LFe++ITRcET3n/+RdgbNXM3Kg675drqUKR1iLDEuemEulQT+d2stozh2GTwr76L6u6I+t7uPUpjX16N8rrIYNfhscYUwiDBhSKBK1GyztjjPx4tL/LP+yHd7O5CdIhbyz4CLUakqnSUiLjm8DymZWXvqA4lhEBaqdZZlp74vMKZITJbnKT8NjAjGn1kqcpSfAiLi83wDuIRxRyXxqw5YwKWJ9TmZ1FofSvN0ZYahSzFrK306NWe7v16MGesbKvfY/AS8JyNRoWWEz2/c5qOVNb57+pjHr1+yk2U0UK40mizMLmBMAHmIS8HZNIzLPzUbRMxmEGmptBhgPghZbXU4GMTgMwSIurQoi7MzJGnG7//wFbvZiLnQ8MXqGpIof335kt3dbe7dvMbVe7dYWlxgc3+PLEt9iFZTRJs0xiDGJ4izvm1aGq2rQQQVV7FMYBgZRs2IXhozDIRWHiZ4XO9Bgdb8PDfufkSCMrJpkRVT1E0sUaXf6/P69Wvi0ajIX1ZqUerHjikIJ7MZVKTF3O6TSz1xPOL1+hv6gyEpINbSCgwfX7/Bw7VV3gz6/Dg4IBmmxSv+yZrDO8Q7J5x8tc2NkVEUFYmzsjRjOBySpmlx/Vg3+PFuVQmDgHanXeQWH45GY6lmp0Eo8x9H/rxTHI8YjeITJ7Kq0mg2aTSbjnCs5aDXOxXJhWFIu932AxwldsUfAAAgAElEQVTi0YjR6OhUJLnmFJiAdrtVHJcY+TYeW6InBSNCEIYYI6RpimQu7q9OXJurXTnxB0GZJTJvm7UWzcm18gBjDIsLi/Q04y/7b/lm8xWpCTAoEUqru0UUNtkZjXxMcZ8rW13mU58TcixtjSM/V5BLqy5kCoEIqhkplsfrr3ny9jWEhoODHtkqvN3b5a8vf8SORsy3Im7dv8tM1MQEAWmelM2rOiJC6A+8ZllKlmblAlBoG1q0MZCAOMswCskoLioaGOOzXlbI3NtTrCpmdobWvdu0FGazDKNS5JEK/H1mawPd2saO4iKlcF4PESE0hlarmb8wRvGIzKepLsaKhwXexD1215+SxQkhAagFyRhpwurcLIuLi7TXWwwG3dJI/X5wDXBBhJPHrxVjCMOQRsPlXraBdaRR9YxUbQ6VyV3c56+11p5IOAoEQUCj0XCE48kqjpOjjbYVNJtNokajUEv6/b6fOMfDGOOIypeXpel4GyfqaHybgyAoMhjgyzxNG3OJJTAGEwSoVVJJKZKo+XKrKZfx7yO/T3ESFcYcijdcmRPsDA5orywwv3yFlX6P4TChNxrQz0YcxAM0jbEEqJQpjosxXqlL/jz/sUsr4+uVm5QdUWW83t4kEWdDQoTMKt1Bn246oimKzTIin4XCiGCN84IJUkg4gTGEQeAWQLFjxhLHG+66udk5ZubnGVqlHwjxjMvCEYYh127eZKY/JMwtKMMhB1ubnkSF/qDHy9evCFSQzCIqGFwyQ/ejdPf2yNLEJ/L1P1L2h7UZ7XabOI4JAkNms3IMeHE4l4oQGNmMRBM6YYNO1EaMy6ueZimD0YjGbMtJvhWB81ypfy4IF2rDOSy9SKFfT53EuVE0X5VhYjIcg+rk9pkPDunxx9W1WuYp75m8N7//5PfrSykIofzmNBLVVOPzKes72c6x+6pdCMTW8u2bl3QW5/hs8SofNRfY3d3nTXeHt8N9tvp9unFMilJNCmQUt8LnxCXORmJhzKhttEx94hUdRxCpy2V1VLsF554PxDiJmAlbhbfjOGmHwtiefymVfUKzc3Ncv3uHeLZNPzDEnpTDMOL+Zw8JktgvEIbBxia725tEKoQCyc4em3/6xpVl8wzhvm3+3yxNkXhEQ3P1vOITU3FB7scaefjt5j5AozAnEVdnOlyfW2KtPY8JhTAUWgitTqdIUWSLgfhfwGici7dWlSRJCjHeZtmJ+aoEl4MoTVPiOEb8CpwkyTF3UUzeLHMrRC5Cx0l8pD2lClUt1SBvF7GTWe2PQJZlxKORq6t1dT+qkd5a4+5LU0Zx7GxcwCiOvY/i+HLzYZTbw6y1WD1dG6v2LKsWtRWJiKp9ARK1PN18i/kO7ixdYWluntXlFZaWr3BfE15ubfLD6ze87nbpGxkjhHyVH/tQvAQ8MQ8mjaluoSm/MBV7b/5I9e2pSmPVC/JxlmVZYVAvFBq/6NnMMhgO6B50GdiYQRgQdGawvp/29veJstSTh2HU6xcn9gWhGTWYWVxATOhIwatROXGCMOj3yNIEKeyBpaSV25r6/T4ikGU6Zm4AitjUkYU5E3J3eZlPr99kYWaWZJCQ2RQJlKYIQRSCJkVQ9PdLtnF454STSzH5i0nTlP6gD3hvSlbuljjUG1Ud2driPgB7CgNuft9oOCSuGI1PIzUIECdJkVCvmn71pHUiTVN6/X5xnSO4w7SRLzr5XLLWMhgMCinDTYyTyQZfRpamLteQtZXtHlP22qjLXZRTTZ7rSXHvo+wjLTQqBRKU/XTEN+svebG/SafdYXHpCtc7c9zpzLFy/S5Xgw7/+Pg7niYjR9RSBmZ3+dPdRAwU91RvYLY4b0w+Gpyh1SUUzASnUvmJY3D3G9wETAUyA9a4IWPKrTKurbgFStK0UPGnjQFF2d3boz+KSUToh4b2rRs8/PUXxGnK93/5hvk4JVRcLZK4aEcmMLO8xL3f/ZawOUOaVyZ/8/66V8+fM/jLXyDpTindvcfBYEAYBYXpYOx9K4gqbSvcbc/yu48+YW6mzZONtzzaWGcYD7DGctM0+YcghNlW+f7fM/sNXCDh5EZaq4pNJ8lCjuyIfAVyZHW2bJr5kMqsdQP7LCikmjPehyOnQ4bwaTt6p9X1zBlDS3LKsqywU+UiwZh8VNm3U3Wdl0/xbvFSUBirofWqR2pTev0YHfaIel3emAbdzjy//ugBv7p6g+fdfZ6/eurF+PLwghgDRhBVn610/IiBMxq73w1grDhXsupYFkzxqpeM3SeFepa7jMn3IVUWi6I10xYdcQb39OAAixAHQjjyxKmWg709WrEFdft0BOe+z42/SZLQ7/WJMiG1k8uSS8aXeJe4mTbgVZ0rXBQSO7WegrNltTAst2e5tXqVNxtv+PN33/IiGTDSFBtYwqDjJHRPOIU17T0jnfdrH86Fbtz7pcCnIMvd9rlxWvPvpt2Bz7apqGaHvxz7VYvfRKEZNYiTIeCkzOFwyIaOsGnCcm+Nm1fWWJybx6h4Gw2F5BK1mgRR5OxwFQms3Wo5g7cvI1e/qnt+nVomhYG9uN1LS7maVU6ufIJNlxCn9cy0KwtpKvMu7IKxKYz1ueF5sLXDD//6B4wxFZot7UeqSjyKkWHf98hRpeuR6rsAIQaMwTYjaIQMk5j+wQEmEALjCDoKQxph6PtSDqml7wveL8KpcSIK8vB2gkKBqqhqTExStDLhPPGcdMwhMIbZqMnDmzfpd/fY3d3moN/HorSiiOWFBeZn59A0I4njUh3WYm2l2WwyOzdHa3ObWCGUkKWFRe7euE6Ue1IU718iN8y4CeNd/+KlCUX9JD6qU6qEOf2SkxCoYAYxvddvSZOEZi61iPH2pyLHqDOEJwmDrV0gQ6QkFOcYEXJ58tg5L8fXz4qQBsJALfuakgi0owaL7Q7D4ZAGQrPd5s7qVebm5hiosJDCjoWhSCkWvie4GMJ5v9r4i0NplCyFQqNSCohe6pHq9ZTietVInP+b00++edGIYS5q8uXNu7SBN69esL+/j1hDs9Xg6rWrrM0vsbm1zfbuLmq8pOWljINulziOuXH9OkMJOYgzZhsNbqysMNsEMc6dL3mdBKw4VUqMW6OdNCFkZG57gj9GkOI26eXq9+SMPs/wyw2zurPPj//6Fc1mk5nMbWHIvKrmNvONl5HXsezQIsP8eI1OlDQOX6A4b1NsQK3yNhmwvrvNtdl5Pr/3MQvdfQyW1cV5blxZRppNrhDwcGaJ3d0DXlvnvHifFId3vw+HowT7Gu8CquOeh/xv582QcnTl/+YiQfVfLWUBKSaJFueAnAcnYzAc8uz1a26trLBy4wZXVtZoEKAG0gAev13n1cvXvNzfcWWrBYEEeLrxlrDTYfXKMlfv3mFZhaYY4t4Bf335grvRHfb7fbBu0mbAbjzizf4++/0+VsEq7PR6rB906WVu8liFgyxh+6DLME7I7DGSzxkhKLY/YOPHZ4RRRGgVTG6PrNjDxm6q2kmmzWyd+Hd6yUch15ZTETZ7B/zbo2/58vpNFq5fY+bqVdx5fOXV/h4vD/ZYWVqls7hIc2sDel0KA917wjoXIOH88smmqhq/t609qWJerTo0i/zfVpVumvCvT5/w/e4miwvzRAotFVKUvWTExs4O/cGQkTe0i5c2YhFe9ntsP33Clb0dOq1Zvx1O2NhYp9vb5q0mpD1HGCqQGvhxZ5veo+/Y6h6gYkgtPH/7lnjYZ6d74A5IirA56POnx48Z9gbEacY7cf7mxG0tiR2RpomTZirCSdUgX3x2LNnkn5/PmJLLTkGmiCjDJOGvb16y3tvn+sIy8yZiKJbtpM/Ozg5xMmJ5aYsgaLCTJaWq+n5wDXARhJOz6btYct5beMPtpdKNlgvVlGJ17D+Vi3TK5ROjcHI65JstU5SdZMTe9ibB7jYR0LDOLT3CEme2kKycdOVsHSlKqpZBv8/ucERkQowaLJBkCVYtj16/ppkFWLSIqfO232dvOCK2FhW3/2qn12O/3yWzkIpBEfZGI/ovXyKZZYRSnlA6P8Z2WgNo5jYIam7ILt94SToKVM6RHf30c9ZKC6O6ABlKL8vo7++y2+3RscJQlL6xWJuS2Yy9jXVEAs7s/LwkXJhb/LKnY+76vQzRUcvZ7QuXwhZRVOZdIlcZdIJMJuuFVlbc8tO8Tj6OlTfsls/Ovy8nkvjNY256ZVbdpjRg6D+1+W2Fpubv0fwJxqlAmTLKUkQrnhwxxCkujo4R8qOKIxXSLMNI6UROrGWQ7yX2mwtVlThNvSpZ7Y/zdPxkX1Z7oTyBn5vhx0vKieaiRroURFeWIqiFviaMVLCiZIW92pAVf5gTVL2fBxez0/giHvpeYcoAu0wdWY6O+jLJhZWbQNwZoImInNMlHk8cmm+9l9yxO43wJg23cuh3HSsjgIpkU0TKEUdKgUqlfMhwkk3uIaJqqxor7/ySRPGPVD5TxYz11VEusgtErvYWi2neV5PHF/IxUV7znphtxlC7xc+Bn01b9JLUyc7Woyoo/v86/tm0J8hx30//TMZ+m7xm0pYhY984uCOOGeM277wuJZleRLKRCbXIFzYZWvTniIV8/Ls45vP3kHFqwjkL8gOBP3c9fjJO24LzGTrPPDEmoHKM3HBZnS9VCn0f8D7V5fyo81KdEULVwFijRo2zoJZwzoKfSZUqDyB+OOtc1ZowxeJTXDOmZP2E9nmTz/u7TaEGUBPOGaHnPuD5U1CGynj/p9MhgvEkoofsI4yxSzUq4Hmh08qq8V6hJpxToNgTp5CkiYuRe1llK4yGw6IW7zPliLodMVlxfseUvpMxS3vOCC44hTlkmj07CpfxOe+vcTmoCedMUNIkLVfSSynRBQb7EPZR5ntTxkOIHRY3Sqe+u7bqlT5/M6WWbD4A1IRzBigUYQQuc/6fNvLgz43ydITzRfgdI/6zKgVVTl1THnYsvVOnb+/xXrEa7xtqwjkjfo6DqR/KYdg8YHexN7YI/TexQ7doTrmJzd9wjpY6y09NOR8GasKp8ZNRkIhU5Q3nf8ptKwaX3cL6w5r5OaFyh8FPMRlXCK72VL3XqAnn3Dh6WEtlylWvvshV+KecJnoXhY9LLrmS5M5XtUKYaTXodDr0+kO6/RGJBcEWRxjGpZSzt6I07H9Aewf+C6ImnHNBKz9+uoyd3cwjvjl1wV15dmvDpOfmMKm4U9LVCL55XXJ7yGR5k9flf7wLqWDsGeIkmlazye3lFh/fusLiwgJPnr3gz48HJHHVXvMuzkXlz6nlm/cZvxjCudxhlpNNeZwxKL4T7x4Wl12A0oh68gmmKcVAkXtpXGJyGRKE/HxVrsIo4xF2DxNX/lnxuZZnBH8yfBCZRiPkysIid65f4961DrfX2szPdBh2N/g+yBCVgowLkiRXws5HHMYIJoiYmZvFGMNBt+tS74jQ6XSYmZlhd2eH+KSUQzUuDL8Ywrl8+D0kIjRNSCOXanzaXKMWa5yE48JBlD6b8q/pkyo/+3vUd6AkgcE2m0TGoMMYtVkRMKpqfJ0sQQ/94qd3VRM5J/k4FcmdsL6xtsznH9/l2pUF0rTPxl6fZhRh1CI2QzSgjKVR7ZVzSikimNBw7do1Hjx4QJqmPH/xgu7+PkEQsHTlCjdv3uDf//3fiXf3ztG6Gu8CF0I4uaJxckq3d4xLOuMkQCjCbLPFfLPNXLtDKwwRFdJ4RG/Ypz8YkNgYi8s57eLBOAIKDm3uH8ek+lXIU1KSkTQaLFy/xnyrze7LV/S7XZc+d4LOjpu+1e/KntNzSTxKmfguMMrSwjyLczNsb7zh2asXzMx3WJufLYKsi9gxbcrF6akqqWeDi9wg3Llzh5s3b7KxscH169e5urZWxHAOw+jMz63xbnFhQdQ/FFfueRCoZTYMeLi8ysdXrhKEIZkRmgpNCzt2xA+b6wx3N9kf9Yu+sBOT2B8+B3AZMN2n7m/K0AhVaSVPlddstrhz+y4r8wt83+szODhw2TcnJZUJG+pY+X7CV59/HsrOM2lqEfTcsrm1w38OBuzvbLK/v8H9e7cmjoRMo7rqb6etibvLiMvsurW1xdrVNcIoohFFbO3vE0YRszMztFut2oH+M+NCYhpXk3kJzngILk7utIRkkyut9ZPNVGbkWc4vGZEiRbBWkr+dBkElYydMX+VFnc0mMoYI5eCgy0Ga0BJhpT3L2soSUafJvk3Y2hiQ6LhNpXiOCMb4xIFisZmvayVod46xe9X16dzcPAvz8zSbTU8slVCbhU1EiKIGjfkZJIoKcghx+ZdyySRU2Fx/iwvKPe71KfKR+9QtqlokOiwbAxYpXub6xhbrKDbLCGyGi+tXdWdNmfhjH53yrRWZKCzWwuMnT0BgcXGJj+7d4y/ffMMXn39OFEVsbW259NFnK6HGO8S7z9rgswnmLzUMQxqNBoiQxHGRI7zqoagOP5cY3mKModlsFoN9FI8q4ROnFuxCmxpDI4oIwxBrLUmSkKbpyYNLlTAMaTabgEv7m6UpWqTFrVwq0M8SHm284eXeNsM4JrYZAcJMq8Vvwwd8eu0mrxa2ebq54SZD4a0qf8QIYRi4RGrWkmhKZm1FsvHESy4xCsYrqoFP2JjXTW1+ckk8+YhLFifC3NwS1774lGB5ochW6eLkuuyQTRXmY+X/+Z//02Utrco8qoi4GjQbDYIgwKoSj0bjWUPzXFjqiCfJMhSD1ZDW9LyT7xRWXb8lScJf//otrVaL//2//3dmZmb4m7/5LX/4w3/w+9//ntFoRBhFfBBnRX6BuADC8auiMRgRokaDVqsFIgTGYK0lzTLyre3FffnN3vMSBAGtVmssV/kgGx5fNk5CaTabRFGE9SSUn/A+dogJtNptR46qmCCg3++DHlYOrUCsGVuDA7YGLiRm6FmzPxqyu71Ne+0mi80O7SBkpEmRlF6hiL1sfJ80Gg2Xj9yCpBlJVtY1v8+EIc25WUc8VplZnKfZaEBgYKZFY3GOwEJTDcQJo+GojO9tDGEUEXgCLwheBM0yF9IzS0F8uO6J5GmKJTAB7XbbZ5l0RNbv9ab0o1QI01f+IsMuVTcbVmx4aZLQaDQIAsPMTIckSciyzEnbNdf8bLhYL5UIQWDcSxaIooggCEiPCClf5MgWwRhDEASFhBMEJwzaPPmbCCZwUoMB0iBwOa5PVMmEKIwcKarSiCKGPl/S9Mo6w/Fco81S1GLRRATiSPZ61CHMLCFC4CUUkxtEcwLBSSSBuB9MgA1DUMgyi1XIA+paVcKZNjd+86mLA2yVuc48CwsLaCNg7s4Nrs22CSzMq2H4ZouXz5+TjUYosN/dJv3zHzHNxrg6IUBmMVYJM0U1YXw2+syXqv59hHhhhzAMxslL89egiFpElKDYFJArbuMm7Mu0pljVgihrxvn5cKGEo2rJ0ow0zDAihd5/5CsvBkMplRhjsGqPV6fGynQ5twtbg7VTpZRpSFM/4XwY0aPqGyh0TMjV+QXurKxxpTNLSwKnflllqd3BiEGzDJtlrh6eaELvAXb7Z/A6iC3VIGN81otc6fRG0SCg3emQGcAqzVbL2amModFs0pmZIVBoqSFpd0kDITE+w4JatNsl7AXk+Zds0TBXvoghwfpw5ePvJM9LnqYJJnC2sSytUHHVMK1OSRa0jHFTsBvOba5K4BXGi4os1Gq1aDT8ZgUR5mZnCYOANEuL93vacVHj3eFCCcdaJUkSt76JOOJIsyO9EUXoTlXSLGMwGHibgT3dZi0RbJYRj0akaYrNMrIs83aJ46FqGQ6HhGFYqHBZlrlBOeFub2K4PTPL3330kLXOLG97XdZHPUZx7IzUgbDCAqm3gaRAYlxOp0jLya5W0cySqOsjm+mYd6raS2lvwMuvvyHzByHbC1dofTHL3PwMe89f8ebZSwLrNr8NBgMOsozMOClkYX6Ba9euMzPTqdqU8dXA2gwRw5+++oooGRJMmYZZZhkMh4UEmPr3ekyPohhQJ8sVhIMSaUakFkuIlfywp2Aq+5XOjInbPvnVJ+zs7LC+vs5XX33F7du3WV5eZn19HWPEnek6X0k1fgIuJk3MBHFUc1qPh1o4YnD5CT8ajZw6pHoq0gAnlSRxAiZFC1vIaYaWkKSpN4QeL3Z3TMjHy1e5u7rG5uYm3/zwmBfxAWlmMUB0Xbm7sursL+LitORb24J8wlsFLDZVrKMmrJUiz9JkDbJRzO6rN1hc/u3hKKP/YMhM2qK/vcfu6zeEGWTGZbFUP3lVIQxClpeWWFhcYLI7nJBlMWL4JjCQTG+7oiRxTHqEl+qo3lIB6+uS04lBCdRlk8z7Pv/5KWpWtQ6ra6vs7O6yu7vL48ePefDgATOzs9g3rxErpbe0jk99qbiwRHilvowjCz391M+RWbdzNR+Op73XqkUzCnvQaeutqmQVN7D/4tC1TRNytTOHBb7d3eDJ3iZdTZ2xG2GQxqSqXpJxNpz86ENp83CqjK1sIxgL7YCMCYDVqRngVBOt2FAKu5C61LD5+q2qZAf7bL14Rn+7fVh6chn2MGKI0oSp636+NcHb2PJ78Anrcld7tcoGsOLoMUQryfcUJF88rFeqSgnoXUCAx48f87d/93fcuHGD3/3ud2xtbbG/v4cgpfG4xqXj4ginOtknxPhTo5j8pTh+2mcUXhj/nPLDsSvG/iomtRzvNc3vtF7tyqwFEUJgNoiYbXUgDBHjXdNWycd3brbJzVXWZmX/5OpFPpHz0qSsvyC5KxBRW9hkjO+fPMwnFcJJ+z3evnzuJ9nkxFZvthJIU+SkHq52THVX4SFiFkQyVDNcktp8B7O3IAnucw2cpFMZI+ehHvX/seq2MTx9+pROp83SlSt8/PHH/PO//Av7+/uIcRsNxL/kWq26XFzSWarzvdhy/8vZ7j7y6lNoc6cpbmhT3va6rAU3uLO4zNbCNlvpiFkTcnt+iTtrV4naLebm5phtt9kZJIVxNJVxf82YB7oqxoyh3OOSz+s0jtl4/YZ4v0uve4DfgeNJunygk6YsSRxPPG9crzq198bzX2Fpmqhzrhh1Wh3m5iICkxJaZWFhERMYZmZmWF1bpRlDXwNeb+6/m4iGvjPVuvTBo3jk7If+YGvv4IAkdlJoGIZk3lBfe6wuFxe08e8dPexd6dfVNI4wlWyqK+tJ1e/blMe7G1zZXWV1cZm/+VXAdjygHUTMt9qkmWXv4IC5uQWuXFnm7f6Q1BuLc/VjmpqoJ5SdX68ipIMhz757RBQGxP1eIemAz3N+bNdNlCJTPjuhFlKt0MS3osKVK8t89qubzLUUNGB+Zo5ms8Hq6iq/iWbo2ZAhDf6v//v3DIfOwjVtF/rp6kPB3LmXr9Fo0O8PGAwG7O7suj1ZRlDrPJfuKElNNpeNC5Jwcvn4PPLJBeIkAjslwQ1RnvW7BE8e8+DKVRqNBgthk6EqT/d26G3vsNBsM7O6Qpw6l7NYp0bk7nEtXMVlmTnhTJM1qp9lgtuZ3O16I67bvKdIqZ6ob8+ZOPuUb6qozPjzq63J0oy41yNJlVQiBoOE/vaQSIf0NGQoDRJRvLXnUC3OutTkx1marSaf/OoTFhcXefToETvb2/zTP/0TK6ur/B//43/wb//2b2xtbTmJrjYYXzou5rT4L1w3zgS6WcaPW5vs7XZphhFBYOhrxn4aI3FK2wSEu9v0k4REs2JwF1JUYWAdJxyOsaI4onLSRQhFHByrivEk4+PsVR94epx6/h1NZHmbtrd3+OPBFg1JSDVAxdAkJtCURAISCcmkwWiUeI+ardx/lqo7PdOYADHCp59+xoOPP2Z3d5dXL1/y0Ucf0R8MGA4GzMzMEIZhYV+s6eby8W4J57/IiqHe3XxgLYN0gMRDBBdsy50gUro2xRzEiAqJDzZVOH+ltGqVE0vG/tXKR9VezUNA5Jvrcu0pPxh5sjp1caiSxChJSRKLO19hPUcp4vcdKxkqA28LqpDsCQb7qaWqYv1htVarRaPZJMsyoiii0WgUWzNif65OzMWf7aoxHRcUD0cpxeJf4qt1bUrF/Ux+l58UC9R5qaxQxHuBaSRT/XtS4pm8opyyObkYysOy7wfnOwLJcJJNQY6I+9sTZhl/2JPsOOeeDorf35URhiHff/89jSjCBAHr6+u8ffuWKIq4fecOt27eJMsyAuM2k9a4fMjf/fa/nV/7ybf+i7P8t9ptbJbR6/VKwrnAGdCIImZmZuh2u0eez7oYnK7LxghmYovA5AHJ8tFTxJpT1Oa94JkqikpN+rul9GEfs03hbGW5JS70Z+HCKMIYw2g4JE4SwiAkCNzZvP6g79TY94OZ/8uhDjF6LpxusE7NBCmHfjnPo3/qLRePyXbK5HfvsNYiYJU0TclESP05L7eDWrA2I8tS56l6x0XXOBveKeE4+4RU9nTUb7bG5SDfHe6OXRyO0zNmJK6H5c+Gd0Y4eRyc0kNVv9Ual4jCC3jk7sl3l5mixrnx7ggHLUJK1Kjx8+G4ha52hf/c+GmEU7GDungp6Tl3i54PefgLqQ2ANWp8EPiJEk7FhWstaZai9nBohYtCZjNGo9HhgN41atR4L/FOjcYuut7l6clqLYm1797rUaNGjQvBO7ThcPkWuZpjatT4oPCB78ORS1PfatSo8dPxwYc9q8mmRo0PBx884dSoUePDQU04NWrUuDTUhFOjRo1LQ004NWrUuDTUhFOjRo1LQ004NWrUuDTUhFOjRo1LQ004NWrUuDTUhFOjRo1LQ004NWrUuDTUhFOjRo1LQ004NWrUuDTUhFOjRo1LQ004NWrUuDTUhFOjRo1LQ004NWrUuDTUhFOjRo1LwwcdYlSPCWosdSzAGjXeO/xiJZzjyKhGjRo/D36xhFOjRo33DzXh1KhR49JQE06NGjUuDb9IwqnNxTVqvJ/4wAnnJGqpDcc1arxP+IDd4lWykeK/FvEeKkVUQX6O3JynIEL1/+bX/6K4cUr7i4+k8nttOO8AABtqSURBVM+0fvpFdUSNCXzAhAPTB6xBCREskPqrqqQjlf9eHBGJHvVsqfw4GCOoalEb/QUohVpsTBCMXwrKXne7pNT/t+yJmmx+6figCUfGpmY+mA2WECFFC+lmUhrKJ8AF1aso7ijiUJw26yeYWtDqxFNf9w8Fk+3M+1wQVS9k+vaJl0JVir9LaU9qzvmF4wMmHDfI8/EquIku4lQq6wewFOtpTjTG3/AOVC3VQ1SWfy5SyivT615+rmoBS2AcCaVWEQX9oCZf9X24PhcFI4E3FAoqpVQTVEnGt1WL3z98Ca/GdHzAhAOTalIVVgyWiEATgjFpJicfPfb+s1VDJ56knvwmpauidv5f476XlCCA27fvgBqePH2KamXx/0AgqhjU/U8UUcPd27foNALevH5Btz8kwyBqEaQw4yiCKljRsbdT45eHD9xLNQ7j1RATBITNWWgsYIMmJaE4SULIOKxqnReebFRRVdD8ueXfuZSVy16qGZAgpKAJUZjw8OEdfvs3v2bt6toHq1UYlEAtxpvuDcrdmzf4h98+5Ncfr7DYMYSaYWyMaIyQIJIgkiKSebvbu3ovNd5HvHsJJ1+iCrNh1cpSVYBO/aBjMG58zUtaXl7m9oPP6I6U14+/Jt4dFN8KWdU3NOV5R3hYDlVFCpXHiDf6qnXqkYIYd+O0Q6RGALVYtTQbEZ88/Jhf//pz9vYHPH/+zBFV7skq9bQT+mKyHflt/i2cl8VOJQSWxl+Ty3he2nn5/Bk3loTPPrmLIvz1+xfs92Ks+P4TQAMkt2mJ4Re2Dtao4N0SjnqriarXycenifGqhrvw8Agu/RpK4dEem3hauU7G5kDu9VBgaWmJBw8/ZWdg6W09Z2P3hberiLMroFjNlR8tLD2IUOgy5HahfAJV61BahhAhDAICY0jThDiNCQqV4bDfSfJvxBAFAZ/86hN+8+svOOh1+eqr/+T16w3yaaswYcuZtBid7FYW8vbmthHfx3m7xtzTUhi8Vaon7qXS87ZoP2PfVt6NQoCT7p49f0qa7PG//v2v+fThfYwO+frbl/QSQyYW9ZKQ5IZ0rQ3Hv2S806WklDdyj4OQC9i5MqPIFA9MdWA7hScVJTWQibPHKIEfmgEqAUpQKdH5qyyKxdI92OP1q2dsvn3BcHjgpkP+DCmnR0EHkssiUtnHY1CMIympSFLF7PcG6CAkmlmgs3QN05rFirgfjPuRwNdfiqllRAmx3LlxjS+/+JyABn/+0/e8eb2B1ZzQynk3LsPl0oQd+/uoH6fmeFXOv4WqRFLtDSMllea/B/7+/Mdo5mwwqhj/42w3uPct+PdrUBFSlOdvd/nDNz9iJeXLL+6yemWBUEKkeKdS1KZmm182guvX7vyf7+JBpXRSHXABGaYQnZ2E4YhIoDLI8knmyCkJYGQc4aSAqBucYEBCLBFuf0dufBVPN4oVGMRD9ne32Hzzgt7OJmpThMA/w4JoZZA72rEEkIv5bpohGIxajHHTG/WmTpGivs32HLce/IbF25+z191n1Nvyzw6wEqCETr4RBd+GhiZ0Qss//O5L1laX+OrrP/PD0xeMkgyMI7pcFipdxXkPe4IQBd/mUp2huCK/OyeKTDKsWHLJUPxjRfJesASh8VKqEgSAWkI8sSCOjiX1tTMYq4SAGHV6ohgnCfp3r+I/I6TX72PMAXdur9Ewi2y9OSDOMjLx11O2e5r0W+OXgXOqVOOifT55nSpkMdJATQtLhpWUMOgQhk0UJUszTDYAjat6ip9AhiBqEhtBxTLK+oTiNo4FpkHQaHuVzZIOuhV1QxEiMCGBBKSJsL3TRcUg1hL4VbSUhly9kYBMmhCEaJa6ZoVtwrAJaggN2ME2qrZQQYrpLAYTNGi25li8eo/oyj3Cp88x4bpb9TGoJmSaORpV6+5RwKbcu3mN29eWeLv+jB+efE8cZ/6e0jYkuadKc4JQQlWaxildEjgvlypkVkmxZN4nV8iMiiMNETIsqVoyMRT2NFWMESIRQoHEG7qbYlAjiHVU0DENMknpEWNVMSo0jaEthiEZQ1FSVWIRRE0xLvL+GsYp3z56xsP7t/nVxx/x7PFrDt72iW2AVSrX12TzS8ZPsOHkZDEuCguWdnuRmflbdEebJP9/e2e2HMdxpeEvs6r3RjcaK0UAXECKpERJY48dnnCExxFzMS8xT+or3zhseUa2LGsjKYkQCILY0ftSa+ZcZFZ1NQiKkriYguoPIkBUV2VnZWWePOc/S4kRC60b1KqX8YSiN+kTtbeI+/tEUZy2pbXxLq2+dZXAaRAXJLuHXxJ6AyrVBq3WKo2FNRyh0JMOjx/eR3maJPivVJ6nOX8NIV0iNFGpTFAo4J1sEXV27Qo0LE/CAGnhUpy/QrW5SP9oi4ID1dYG5bllHOFQEj6DvS8ZnB7gWCmghAYpqc81qbdWKFQauMUaslChtbhJLS4Zs4OYbmeH4XA/o39YbUTArZs3qVUrPPr4Y7zJGKUKCCHN4nvmmtPUpWSz3qBaLFEoFnEAHce0A4/jyKPrR4RhnD4hKaBWLLFYqxB4Iw78gBFYMtmMXr1aYbVep9fu0tcxaGggaLUWGUU+NV3genWJsQj4NjhiPAmoyhpvlessiwJH3pC9cMiJ5+NjBaaWGG3S9FxoyXjocnwUc3VZsb5RZLuj0L5j7y3LKeW4qHgBgTMlXbOHNILWygab7/yedu8x0h2y0LyCEE2GrsuyI/EOl9h/8BG90yNE7JOQrxrNzRu3iUuXKTbmcO4JDve3ePft26ysrEGpSa3sEvYO6B7t0vPGJIu4Mdfg9u27uMUSSmiCagu/0uDRJyFHncfpbpvsvQlxvHb1Npc23+XRl0WWW3OUmysIt4orXRoVF399iU/++idGp8cIEaPRuK7D6qVV1q/fRjtVCo0mqlxhY+MqbmseqSOkiPjqqyHD4V5mvMw9litlmvPzKK05OTklimOgaDWZWeI6udLRUBEO1+YX+eXaBqVyEV8aDcbR4AtNJ5jw6eNdeu3udBsQguWFRd7bWOP4yWO6R4cMlSW1tZkAN1Yvc2d9jb/85UOGlo+pIPjVrVsMRiPm3AoNXUKVYFHPc9jpUam0WHLLLGuHFSLk3ja9/QPb7/OkhkRT5clul7s3+qxequHeE+AZj1Zq5011sx8/NXO8sfiRAsdMjMQzJABp1X4tBLK5QH3zLpXRW0SDY4a9fYaDHQaFRZpX3mX17V8S4TD85E+owSHGRHHQSjEY9omDBneuv8vG5fdYXXiLa5ca+JMhvc4ul2++zSRqoLXLVLPSRGrM2NujoItooam0mrRW1zit1jnWCnCMiaUNryHRKKVotVqsXFqnVvw9yh/SPt7BH+8ghKSyscnSjV+w2vW59+EfKBAZHUlFTCZ9+t1TZCmiMReg45DJ+BA9eIwkRgJ+0LWmorA7vhm7paUlCsUCpycnjMcjhHBTziWB1laHFIDSVLTgWrXOb2+9Q9N12Rm02Q3HRCqmVCiyXKqyUWvypNrlaytwpDaLuVKrsLS0iNc+NS58+wgdBXUl2Kg1WGstGRpemGscAdeXVnAqHo8PjrjfPeHS8jzvr19iudLgURCxfdKmVyqzeWWdpVEHd//gufPm8OAY37vC4uIirutYIlsn/75DYOW4CHghDUfMmCjT46FwCAplIgWPv93mye4nBP4xY2eJheGED375a1Y33+fJV5/hDY5JuATQPHjwAF/0uPP+b7l86QaOvsTuN39jZ/tLlBRcu/wWSmnGEw/jRjWSrt9vc+/+3xGOQAvNFebYfOu9pEsG1m0vEw9XuqsKKuU6n37+CSd794j9HkLD8ckJ/3n1PS5tvsNnf/2DDWqDKArZ39/jtDum0ljlRn2Vgtvg0c4Dhnv/NBqUFgS+b75HZ1kVTa1aw3Vder2e0W60Y8S3dQmnCy8ZFjRl6bLRaHFtcZWD/V0+f3CfR05IpDWOI1mmyLXKHIMgIIlkSRzVCccsSH4L0Cbypaw05UjjKGXPzjxVIVBxzBcPHrAdBXj+gN+sX6KHZGt7m/3TE1YWFli6vEKhUHjOfDHPd+KNiWNFpTJnD6e9TOdPjouLF47DMfu2tmvFcBVmk1IcHn7Dw2/+zGh0DCJA6QmdhxMm19ZZ2bhFtdYkkAW00igdg3Do9fp4wpDDzcYCB09O+OKLLxn2jyhVSuzvHSA0eL5nO28ERhRG+L2+9YhpPN+37njzkzqltWMNK2Vc4MIIn0df/5MnW/8k9PoIHYFW9Pf20MKhUqtNqXENMRAEIZN4SOjUCFWIVgHDyYDOoIsDOMroLFIkHEXiXYoRQiOFRCU8ShqdbJ3UCe+RDLL12jgIXGHI2jgI8aSPpwzZ7Sto97uEThFXSzSgrNDKuteNwE39XzhW40u+N7ZmcSwEI6HZ8/o8nPTxhctk7OEgCCYeh/uH+HFIEEaEUWzCDZ7rXVKY0TMCWDoOQiiUUggprVmdC5yLjJcQ+CfO/DWN6xiN2ownhwjrji3qAIZHTPpttIaFhUWGuyWCIDBJl0LaXV3biF3JV199Ra/bRwoIg5DPP/8MV7rEcYyTeqhsUJ/dnROtfOoytomEZ4LWjPJgrjo6eETs90BFJOSy0qC1dfGnpOZUXbLKx7S0hLQu3cR7phKTM2Mw6SSuh1SrO4vkaBpzKyS+itkb9TkeD6g1GtzZvInrdekMB3iTCeMopBdHEEcIUZxp9SwPnXjpUne9dY3PdkUTCM1J5DOSVu8R1u7RGhWFZC/SIuFizhcYifmtk2elwXUlQgq0Ymrq5bjQeEGBk5lc6azO7NbWJJBIhLYZwhrGoxFhGFCv13BdSRAItJYIKS1pmi55vv12Cxu6QxzFHB4c4EqHJPImjfnVGi2SEEOTx6SEjYhJa9OY7d544zVJ2L/UEEchWO9Sem/ClFHQOiF8kx/zHQKF1Ca2SAgbnm/bVyR1YOyBDIeDPY9zFpmGbA9Ss2gsYSsY8H+PvuG9pVXWl5ZZYRE/CGh32uz6Ix6Oewz6E5R1dSXXZ8Va9ve0Lk3G12iFoLA5YEorlFC2mBkkoZHajvE0xuh84Tlzb3YTSAIFVRyZkAORidzOcaHxElMbstPbINnAjUdEIBP9Xls3uJRMN/sk7YFpO1oxHo0oAmavj0Fr4jjCyWguAmEzsxXTRrKsQHZZ8dTnM9+ZHrdLUAj0mVPN91n9Q5igOEc7SC1xtLBKg7CCNhNUoyUCSRQZM6JUKiGlPNN2tpdWcGiIhaYbB3y6u82w22a50WSuWqNer7G0skqz5DI/7PLl1iMOOoPZWxWz35DwM1qcFTvTU9NqPZk6PSkHpEnr3IjM8efBxOfI1CulYnt/dpPJramLj1daniKdoDay2AS/aWqVKgW3QBAEKEtWZtd/OsGT656aiYmwSdzc0jAyIjaLKdEmnprA3z2r03kvpt3R9oOpPwxAIrUkxkkXrdQCVwtclQgcs7iEFZRaKMOdKEGv1yMMQhYWFnAdJ73XpHeunl3+RkYbbePUHzMKxlRGHYoFl1q1xnyzyZ1L6/xqdYOg73PcHxOpaYW9aVNT0ZFyPOlfmfPsnynRfGbkZjmhzPnPHFlSs7JSriKkZOx5JuZIOzPCKtdyLjZeeT2cqd1uTJ5CocBcvUapUKDf6xOGURpwnKjpiRZk1KOs22baajKFp0gEjZj50TavCbsboxIT7Ew/k06kFI1OuZanaQlDvRrXtSV9tUqTVqfSyqgDUiQ9NTxIp9NmMOhz6fIK8615ToZ9Es/R2TtN9UY7LrGAoY4ZB2NEKJDemOKgSwOXd28usDTXpFgsEnneUxRRwjWlnJMGpTWlStmkVIjvXvDPEwZnPxdWBTJ9VwgxZm3tEsWy4ODwgDAKQRSmzzfXci48XmkdgGq9TrVWR1lbX0lYXF2mOVcnGk/od7tEkSFpheU6zBw1arbOLPos1TlFdv+VaAogXLCeJ1MYS6JEASVcE/afTcQ8B1olmeqmD1I+YxXaYlFxrAnCkIIrKZRLBEISSkEkNHGGkBVaGtZJRAShx8HBAXGs2Ly+SaFQsPepydY2zuZGScehNT9PqzmPTNI9EBDH+L6P53mgNK7r4rpJjJL5FYQhKtZUKmVcx+wxUhv9a36hRaPVsjlczxgTniNsnjVEM88uplQec+1GmXJV8GhnhzDwmWWsclx0vJCGk1Wnz5twi6tXuH73txzt7RF4E+r1KlduvU2jUefbrU8ZdY5IhY2dtK3WAqGziJTG1l9ZXsaNJYHXYzjspZpCoguY6nLglueoNlbTXbpUa6GB6vwKC1ffAcCbjAk6+4hgZDudJb1NvhOpi1ZPC6GnQuoMuyI0oe/T6/W4dL3I6tomk1GHKPAoSEmz4jLunjDonKZ5X4ZklTx+vMeVq1dYX99gZeWYnf02SWHUVDtL/quhWijyqxt3QIUcHe7jeRNC30dKh2q9xtXFVTSSiecRRiFp7TwhGE8mhFHEytIKV7sjVLtDqVimVa9ze3WJaqVqTD9LgWn7xYmre5blSXXWDPGcSTSFlHhOYoiS6ocbl5dYW23R6Xls7w8Ioiy/dhFKx+d4Hl7MpEqsn4xxMzNpik1WNn/Nwlse/mBEZb5Jbb5G++QJ+w8+JByfklSNSa5/95076NIaUhg1/N8+uIsbnfJk52u+GXRJhI3ITFINzLVWuPbe72wpCJhbWccRmqX169QacwgB/c4pO5/8ibhtBI5pxxSSiMMAdGzLMii7BiLi0Dd9mblt4yEDTRz6HO7v0VjdY3HlKpXyPIE3olSQzJd8du5/xKjXQajpGyQ0Lqenfe7d/5pf/cdvuHv3XTqDv9PtW9Mq44ZPxrQQQyOE1bkF7t5cYjQcMvHGOI5LY65BuVBk9/CI3YMD/DAw92e9bP3RmL2jY95b2+D96zdZafaolCuUikVE6DEeedSaJROfiCGTlTUXVSJ4MJxPbMtvGFMV83+mQklk7jI7YssLLe7eXKNEhY8e7HPQKxBqGw1tRzOtS5TjwuIluMUz/ARZn4emc3LIpP2YZm0OR0f4gzb9zh79nS/oHT+GOASbuSwBpSHyxqDabH35V0AR+AOUGhEGExtHk53e0+RNHQWEo65dANB9MqF/tEMUBaACEIJwOEDESZa6RhJzuvcNIg7whm3QCkcKYwIqhYw9vv3szzg6Rmpj+qV3rW1IoQ4ZnD7h4Wcfsr5+hWKhiI4jfB/a/T6j0RAwZTMSwllRYBLHPHi4R3N1j8VLa7x96yb3HtxnMByjbNVAbQu+azReGHBv6yG9hUUW5hvEUUQUK2QcMu71mAQBB0eH7Ay6xFqZmCZMiN3Q87m3s0McK9xChQBNGHh4gy699in1Ro1Ga56RUkTChEgOtOKL7Ufst9vEwpSO6AQh//v4MfuDIaGQxLbtrSf7RP0BEYYwN1qnMiafUrQaRT64c5XV1bf4eusbvto6YhI6aRpFVjx9l7crT+z86UP8+y9+96M1WaETUWH2QrMDai5/8N/c/a//Yfsff+TJZ3+kXCwhhCCOY8IoJBz3Uf4EpYQNAtOpF6VWb6KF4SA0MWij53u+Rxh4KeFr6OEkHB+cYolCeS4zKbP8jtk/dRwTekOIjAagNBQrcziFEpPxwJSoSBcBJsp4rolE4w06iFSvwRLGEoRx0AvHpVyu4DhJ7LVAqIAomBCFAdP0BkFRSVwEWgcsryxw49YN1jbW2d7Z5v6DB3Q6A5KCY9iy5FJpilJQKhQoJmkECfOLJo4VfhgSKGW0ELsNOJh6No7QVMolpCxg6vKY2KMwDHBcB7fgMhyPieyYuUJQq5QJowjPD0y/pWSuXCaIY4a+Z8bdcaiUiuhY4fsBsTYZ9bGAAoJWvc77t1d55+119k/GfPTxPY7aPZRypo6CGUP5fKlinsePnak53hS8oIZj6vNli1klAWMCjYx9gv4xoZBIKYhjZbw5Rl+3sTMZ1y8wHHSnGpOO7YQ0HpQk0/ssBBAHHpHvzRw7D2nZUttWOOkTTrBxNSKziEES4feP7XXZb06WRkJ4Koh8guGI6dVTIzOJV0kQCwe0A0Jz1O4RP3xIsVrk8tplQhXzt4/+Yb1m07ZiCR7ghSGE4cwzmLp3DGeT9d4pQAtBiMbzfCCc6RsAobJtTh3egYZg7JlWrbY00dgcNo0Q9vV2ShNOPDteRpQlOovSgo2rV7lyfYODo30+/mKbw84Ypc18UHoqbHL8PPBiAkcoa38nFfKmtdsEGqViwiBESoHjutYDNGvtZxeMsKTQ2SmYaDJPx+Nkz2Hmwu8zjWfd3VPFfmY3PachYXkO85GNbBazn09FaLaJ6U4eC4HAMbE13S6ffv4FN25umnFKWSpxps1z7yL9nmn7592VnDnnmTd3Bud7qMRTx2fGLumHlHhKsbXbZmd7l8OTPkpppHSslpjTxD83vJDAmU46E8ifxLJoW9smjmOUik3aglDnp9mcyb95Wth83x3w+5+Zvea7jp4VF8/+tueKwhko694zsdcuKoo4Ou3hxw9xnQJK/9A3F3wv8foD2vuhsKI3JZd1OnY7u0/Y3QV/PEHFUwJ6VoPL8XPBiwscW6c4CXXXCNqnx3z6yUf09h4b1VvaHS9jrqR4A+vXvrpFkBibyfslACRKu+g45rQztmPo/gQNDfs2qgyHprVmOBynZjYAWhOfKTCW4+eDF4zDscF5TDO1NYL+0S4n3T8iJ6eUpUzJwafn2Kzr9yz+ZbvfMwLZXhaMBjBNPRDWCFU2Clom5uVPaP+ffRFOpt9qWnIjMZlTnJkQ+Rt+Lz5eOLVh6hRPvDsaN+wjo7EplSDFzHnn4Vnz7CJ6Jab0+pToTd9WkDIg6ruaeIORDVkAUtPwrPkkOPvUkyMX8JHnyOClCRwSwleD0BGOjjMciMi89YDpGxefgzeBU3z5C0CYNzekxHJ28U39fRdi4QmdhjU8va3M3qGGmaTZHBcTL60eTlqFQQA62b/F+dLlzFb2TA3nxTr3o/DSFvq523USQ5TVC89epJ82PX5yyLrszmprP1zTzXFx8AqyxcU5Pz8dZCJaXg3EWd/X+UInR46LiJcscM6oLd/DA6XP/H7qs9cpr16bYpELlRw/T7zS8hQ5cuTIkcUrL8D1PDzXO5ErAjlyXBi8ERrOm8TyvEl9yZHjouHVaTg2fP+8JWwdWU+ffv6ZL7ljrwm55MqR4ym8QpMqqZv7DIHx3AU5rer3L8OPlXWpsM2RI0cWr5jD0efEYfyE8KNlXS5scuQ4D6+BNM4XX44cOQzeCNI4R44cPw/kAidHjhyvDbnAyZEjx2tDLnBy5Mjx2pALnBw5crw25AInR44crw25wMmRI8drQy5wcuTI8dqQC5wcOXK8NuQCJ0eOHK8NucDJkSPHa8P/A2ucJFJrQwYHAAAAAElFTkSuQmCC;" vertex="1" parent="1">
          <mxGeometry x="40" y="270" width="192.06" height="188" as="geometry" />
        </mxCell>
        <mxCell id="qzAXN5MgQcx4XRJyxpNU-35" value="&lt;span style=&quot;background-color: rgb(51, 51, 51);&quot;&gt;или&lt;/span&gt;" style="text;html=1;align=center;verticalAlign=middle;resizable=0;points=[];autosize=1;strokeColor=none;fillColor=none;fontSize=19;fontColor=#FFE599;" vertex="1" parent="1">
          <mxGeometry x="90" y="470" width="60" height="40" as="geometry" />
        </mxCell>
        <mxCell id="qzAXN5MgQcx4XRJyxpNU-36" value="" style="shape=image;verticalLabelPosition=bottom;labelBackgroundColor=default;verticalAlign=top;aspect=fixed;imageAspect=0;image=data:image/png,iVBORw0KGgoAAAANSUhEUgAAARYAAAD7CAYAAACv4LunAAAgAElEQVR4nOy9WbckOXLn9zP4Etvdl1xr7apmkeJQPYfUiA+j+TKSPsXoRR9tdEYPM+fM8FBkc8hmddeSlevNvGusvgCmBwDuHnHj5l57WJ7IuBHhDofDgT/M/mYwyF//2/+gLMnKxx9SVN7+XIEfte4vk7X31flOlHeq+7u027vIj93mP9Z9/5xFfpjnlb73jvGrfNivaEMBMGtOk1ef/mMP3o1s5C0kfe8l/mi48uMNPmn+e9kRAqogsvI9qG6AYyO/LHkvwOIHlh84+qucXSXghXAd4KTzWvle2uM1As9GNvILkLcEFl0aPyqCCe+iq0PrlzxYxEOGSAsb1zQXaU0eEd8aqqhqA0YStJj420Y28nOXtwMWpRkMAGIMiTFhTMjS2Pglq/kSFBEhamuwXmPx7yIdnUYAjaDigUkV3C8aiDfya5G3AhYRPyDSNMUYgzEJSZISCUoRgweYa+rLS+SnMKDelCDS9hQlmIEBXkRXCPiuueTQoMUYI1hrAaWua+q6Dp83spGfr7wxsDTzrwhJmpLnOWmSkWU9IpdgTIJI0rGYXhc0fkxwuRlU1jEnXpQlZGneFQ02oXTO7Gp5rSanOOcwRijLisViznQ6/UVrehv55csbAEtAiaCtiAhpktDv9RBJEPEmkCJhNn7Z7H/ToPkxXdU3X3tdbZ0qpiFg47ku6CP+X6OhqDd2lgnaDq8iBhGh1+sFgCmoqqrV+H6NHvyN/Kzl9YGlGQ+yBC7dF+JBRZcGWxwZq8Nz3XB9FSB9n/JyDaEhWJvDFILJ174UCdqKigbuBRDTli4r96eC4JpykyQlTVOqqmw8bLJBlo38zOTNORbVZTCBzt8GE0FlSZXXG97XXuCNq/R+pBv9uqxV+K8885oYQ5IkgNfSnFNsbf3gDxG0gvH/1CBqPNDceF8RoN4x+nYjG/kJyesDS1Q6ut4gkeXPdAfQTbPsTw9UGj2p4UR0+VexGONIs5TRcMBwNGpidxZFwWwyoyodVl0wkQxK4oEFg8MC6wnZ2KSNfrfBlo38AuQNNJbg1VD18SrxRWMd4RovUCAwWYWXn55KLwhGIVH/LtfATTDJnOFozu3bhxwcDMhSgxjBIVQ2ZzJOOXk64+xqTGUF0RRchmIC66IgHWDRbunLrbJqKW1kIz9HeTNTKPZ6jZARAzlWYjTiyNEVJacJ4Pi+ZF3Zr+BOCOCCD/KTNYxGlih3jkd8+skBdW25vDxFEKzAYHuLD+8d0cdQlhPOpxW4DDTBYVAxCPVS3dTTuD5ITpeNpI3GspFfgrwVxwIG1CAEtzIxJsMHygkGp2DruuM2XUKeFT531WW7Kq8DRjcRvy/nLhTBAbXRhkRdLUWTIS67xdlkh2++/YbZtETVh7Lt7PX4yw8rPt2F8ZZhMqsptMaphw/BRBgJnqEIHtoE1W2UlI380uQt4lj84HAIYhIMhhxhlPfo9wekeY6RBOcc8/mcolgwrUrqMIQ0DCMJjEwstZWb1tqsfrdKscrS9139YLnM1QUHnnS1ooFzvg5C1goPn8x5clJyeeFwmuE5E2G+sHwwHPPJvYS9rZz8oqC0YF3knBwmRiRHMG28yA1xdcO9b2QjP09JpTuQJHbtNgy9K6KQqlCJUApgEhJnOEwyvtg9Yntnl1oj9IDsOqbzKf96dsLTYobVxHMOCmCaILL2UgLqVqootCXGz+BYPlWCdhC/l+ikQWkXMMXhvOKjadzj6703zjoml5fe2yMZRitggZBDUbNYOOp8D/pCbQocIFIBdXBA24YcXrm1IOu1qpsD8zaykZ+2pN0h61f1x4Vy6xT0yEAIlkjiJmQIIyCtKiaTGdbVpMZwMBpyvLOLTR3Tp4+4KlwY+DHmpVuyD2/3AXYdM0FbkGtmeTFkvRzp95rzTWN2gAtk8mI6x5UlaUMkRwaowwSF4kXiEavAxjL/EmwZocaQghOMySDrU+mcReVJbMGGJgwm0Y0IsYGPjfzyZCXR0w3WfvjaKdRhsGQOUKFIEp7bgt+fP8RdZVyVNeosBrh71eMvP/iI+wcHPHt+QlEt0PQGx6tAmqYkicE6R11VWOc6FYhmjpBlObt377L9wV1sBAa8pyYe7YA/ffknFs+eM3LeAPPaWQAQCUAjN9712kZQVYz466GQZQn9Xoa6mvlsRl3VKKkHIm29Y9q5inawZMOvbOSXKGnrFn55F9cwAm0wMTIUYwwuzZhVc57NJ2iSUTpvzhigv1gwm024vbfFlhgyVQr1HiTXKRkEYwx5npOkhrq2oIotSzo+lLYyMQbPSKt1GANpElzGgd9IZVnxWrXw1hC1L2sBX2vTWFXGWPYPMw4OdxiPJ4wvJ8T4FtUuo+S1qKakQKtsQGUjv1RJtXGDvKybd8yRYAoYnI9jSVJMbciMYSvtkUtOIkImwpZzDJMMUe8xEuMjTJs1MyEviTEmrJSOa5AMLjVQapjdPVHq1yMpVbXg/MljLs9fdIAlQSUhwa+xtigynzNQi8HhIrXTsUnW3vZaq0TxelbSOUYZjhwffJQw2Ep4/PWMi8sZRlMfDiddw3EjG/l1Sdrv95kvFitxKNclajSth9jTkjjoS8q9nX1u7x0zSgfBJFH61rIzGJAkKYlJWv6GZbpSBNQp1jnEePCKqQSuTe3Bc1PXNVK0zIkkBmPSplxBSK2jRqmNN+OUmFzJaxIGvIbzyqg0BXGgbd7aXq/Phx/tcefugOfPT3nwbMK88vxPe1ZLCm9kI78mSf/Xv/1b/ut/+a8URRFGeGA+u9JEpHoS06G4ABIpcHdrl39ztEU2GPFiPONyNmfmaoZ1DQb2hv1m9u6WCTRaiLWWqgJra9RBVcWgsq625Bc4JlnG8OiA3uF+o4lkWUaW9kg16BWqPPj2W2bnZ0tDOy4bTCMCaSR+XyENMVKTZYb79+/y0YeHXF094KvvJjydJFTSaxI1+dbplrwBl438eiT9P/73/5M0yflP/89/wlqfF2Q1lGNJzwhZz1Q8edlPM+4e7HM0zPn67JQ/PHnK2NUUCexUFTu9nO29PVCvNTiJpldIhCRek7CqUPvcJBDjSbqkSFSplMQkbG1tsXt8hA3AYsIiyCQAi6hi0sR7aLq+3vbydG+rm3/2uohPXqUVaV5yfHzMvXu3mUxmfPPNc56+sMzdvm8ndSABUBp391s/n41s5Gcp6enZGf/+3/97/vP/+5+xte2Mula82zdGjIaoESckCnkgXedlyePLC07qgkIU66DnLC5EqIaEAksrfbWrGali7U1rgHUJYmy1YPL8Oa5c+LIFnFO/VilIIgY7uaKnFnGdcrTVWkzEGgnAga7FFr8mypCkJce3Uz75ZB+05uuvnnHy1FBrBqb25YpfQ6SYwOc4NsiykV+bpP/Xf/yPGJNSFGVjlqwTlTaeA/HAolYx4fjKOWpVauNn6kSFPMnopRmJtlyG5351KYakuQZrvmx+04Zsdc4yvbxgPr5qzosA0yoiijoltX4ZoESNJJg+XVlhj65fWxWTJBwf7/HJpwOMlHzz1de8eD7D2S1SqTCuRElw0t0/SBHRl97XRjbyS5R0PB4DEnKMBBPkBjJT8G5knGDE5xyxzlJUJWaQsTMasVdW1M6Rpxkfbm+zt71HJgnb/QFZOkVdmy76XYZa5GWazywHvEWvk4hpmZqbQnZeUZEkSTg63ufzz/fojy55+OCU6aRiMBwggz4ZJT0pGbuEi1KxVRMG2AT4qbyPu97IRn4ekg4GQ8qyDK5gL+s9rt41rDHITAwqwrRc8PjFc+58cMzd23fIRtu4Whn0+gz7OdO6JKlKDo8P6I3HMJ9/LzdyHTzarTYar89b5iTo9Xp89NGHHB33KaoZ+/sH7G/vI+qp2aEIW0nK40nFPz14RnF5RTS72gUEXc5oIxv5ZUva7/c9sNAGwa2VTrY4xVCLo1CLinIyveJfnxTcObrDfm8AucHVlqdn5zw6O+GD7RHHuzvUOG9GfQ83cp0aasnhwDm/tVhbc3V5yUlvAjIDfG5aWGBkinMD5uWARVFRxxXdm8QqG/kVSxpNoNcVRbHhVahF1FKo5fH5GScXY/Kk702kumZiYOIqJrMrvn3xlAvNQG5aUP2OA/Ga82UFJN8BXIqi5F++/JLkqwUiU+oKEvoIJSIFifYxrk8lPQqyG0p504u/rpt6A2Ab+elJenl5+ZqHRopTcQI1PrrVaU1ZlxQ4psZR2SqYAEqlYEWxiWGCo+6Uc1P5P5asI62jFqQKtVOszTHSAyxWLSI9cHuU+Ehb1LThvNrQzbRBcq93j7pEFq3+vXrwaxW5kY38oJJa54J584pOH+JQ4jahnsi1JGpxQCmGKrxEfDyKhuNdCBRTjCczvycM+d7GmAiqBr9OKAUsSIVqCppijWLFe5+MMcvxMW0hy0W+JCLX2tZF3cbDvEze8c7f+nlsUG0j6yX14feR3LyJuJUWJMI0novSM0Ie1guVqrgQ8u4PDWRwG5cWNjG74SJr4mfeRN6FQ7nRxQ6dppFmC1RRQcn8jyHAJ0YWa4z3eUl9Wtf3dXBRxS/CfO3R/q6gsgGHjbx/SWOSo1d3Lz8I4mATfL5WCSq/x4tl9T1aBSEWtvNaI81g/Cl29Bjw5j8t75sES22zUv23uptN4tuN/MzljVNTquprwNA68Fhe97O+cH6S4BK9ZVEjWXvMGi/Qm2pR0Z1vTEhY5a4nnbrpvO77m8jGebWR70PSH4Y0XaeprH7u2kzff43eXGTJNHq/0sYLC5Dl+XLwXzcWx3/R0jjht81ezxv5KcmbZ+nfyHuXVUzo9/tUVeX3bw6Ryt2UE92TNPA0Xtt5o6uG8x03rdDayEbeVt4iS3/7HjLUQqdr3jihL63vW9eRY0Tvm9bolyHNbRtDluXNZnDuJmBZOa/ZUuS1xR+7WMw22s5G3ru8GbAEM6XdhjSuWfbyMnqkEwTb+WbliJ8gv/JDiKxEI6dJQtxEzQOLBjd/dFH51pTmXBPKgddD5tYfXhSLgErXEoBuZCNvLa8JLG1HbDWWNZEvL+mVEYCk883103+d3bpLn8S1RSYRIMFogm+ZNn+vNMDi44Ok8VK97nKJqB0q/f6A6WwSL75Blo28F3kDjUXDTHlzhGrnyOvn8ipQCSEhv0JTqLVEut4dr6X4fbFNRyuMgG68C5wYFxOzzLzWFZvXaLTFbDalzX28kY28u7yRKRSD+rvpFpctfyVuLPrqie/XPjWuD46LA15j5jtZ1kT8tiLh+PiNCnTA5/Wv7UjT1CenctrZw2kjG3k3eWOOxe8wGILjVtykuvR5vVay+teS/Or6tTTaXgMf0dtDNJEsGKWX5ySJwQBqHUXpqOuoZRjvHXrj9hOMSZY3qtvIRt6DvLO7eWOWv53EhZreoHF+6/gYEKeBZxGLSUq2txPu3BkyGOagQlnWPDtZ8OK0oqpD65voen7Ni/s/UA3buIjBObuJmNvIe5HvMY5lFW5u6rD6ymNaw+tl17p5QAjdlcY/FWl3ZzSqJHGJRLNgy5KYiuPDIb/57JjdvRHWllgnCCkHOykP+xO+e3zGvHyHWmjL6fxkYxM38rOT1weWG6PwO+tkwjc3rzJcJRi9ne9/jbsHBh0orD3yya99eS4Us+wYjdeLZS8DVWOyXVvL9GpZMuo6/EdzP417d/nu33RwKn7luGnuXYGCnV34/M/ucXz7iIePnvLdoxdQwa29A37zySfsfdannC94cFLgVJotjbRTxTU3dO1LWdlHeyMbeVdJl9wwr4gjaXmTQONqVOJ9+qdeYhimPZKw4yGIz4lbFDjnqESwEoerkgNZlmITYV6UiMbzFOMgRej3epS2prI1CqQq9JOkWUeT5TlGoLKOsqgQI/T7PYwYamtZlAUWh9UAbNdGvTT/L9PQ3c/hV6WJ+SDGjwQyROXNwcXDql8X7UEzQp8jNTV3b+3ywb1DTs6u+Kd//ooXFxW5M6Rlj88+qDjcUe7e3uLkqmJaVKybJ14euKgNv+I3st+Ytht5P7LcE1vGsPMFfnLWbiRKjLlNcKSo1KR5yv3RPr/ZPiBNEqy1JElCWZacnZ4yns85cZarMABTdRwofLB/zHkm/PHJ46UI0L467pmcW4eHfDu55OTqEhVh3yT8dmsLrR21FbZ3t8n7GbP5nBen56R5zv7hEXkiFMWMfz094UVZ48SElAfLDRAzGPh9g7ortVtdyiiYsCe1qm3axHtiOhS2LK+Kar03rStX2j/C9dTXS1pPkDroi3A8HJLVlvMXF5xfXCCmTy837O5m9AZgKdk/yNnbscxPC2qS5jqrINlcs/nGNTUXkfbZi4QV6z8DeeuUD/IrRs8fxti9eYqDdtQ19ZFALHZemjDIDPcOt/n84C4H5MznM0pn6WcpO7vb7PQynp2ecX55Ac5576gqWwq/PT7iy3oOEkLXw5zZU/hke4t7RweclVOeq0UkYSsxfHGwS54POZtVFOWc/Tynv7PDdLTFzCkLha1E2Trc46qccXl+Ru0cLHk+/NWS8J0xgrXRyOpsUxLuW8SQZikiOQ4X9iJKURK/V5IAaqGu436uodmUNjyQZvWyr4F6cAk5XZy0XIdB2B8OqKYzLi8mOAuSKDvbQ27dOmA8uaCsLxht32Zr2yBnNY2rP4BWvMuY9qXtUvE6rV4Wz/11SHBv/hrB5Qe65zcKkGvYlCW1X/hwuMPfHtxhbODvnz/i/PIM62rSJGV/b4/BcMAzZkyo0DDLAyBK3kuhrlGtkWbnIj+DDwYZWWYQ5xANWdWMIx+kFL2ELy/POD95wkfugC8+/ojdbMCDZyd8+fyUe7nhrz68x+7OkHxywaKIe0H7WkflK0kSv5WJSVi4Euu0GYwawuhrEcgzju/epT8cUavDqqJN4quw3cdizvj5CxbT2fIQbbQiSNIEkyT4DdpqnNoAYNqYWU4USQ2H+wdczhaML2Yk0iMxfW7fukcvH/KnL3/PcASfHn5M3us1EBF1yggmTV6tNTbOUoRMOHFjCm3kfcgbeoWC6hz/DqrzXtbjg2zA7y9f8OzsOReLCYXxqRpP6hlZnjGfL1BNG+DQRv23YeZ2wSPiGq5H1XotQC3t9iMOFcvJ5IJ/evYdpioZ1gPu24J6XvDw9IRH0ymDylBVB6RG8CtvwrALJKwCqUnI8owsyTAmoSgr1FkwMVS+vWtJDbsHB+wf38Y6h1Xnc/6K8+eoxU2mlFdjFtNZp7VCjIhzmCSh1+uRJAmqSlUJC1u1GkZzPd+2/V6Pi/GC+bSmZ3J2tofcuXWLi/GUr759yG8/vUWSZH5PKAF1vow2xL+jpiwRPxL+aXiMcafpjWzk/cg7uZs1dMyqrimriqN8wJ8P9/nWCE+qKbW1FGVBXVf4PZ+hm7fRL6BrYKrx3jTlx0m8+RwIRhGctZRVRZoIs1QoBKSqqSoH4jPWiZrGydLlNqKLNc9z8izHGK+1SLioqA+WN3HGF8VUJVfPn1LPJzjngVHD7zGbXl1VFEXR3o14XSbBcydGDGmW+X2mPSZTFPNrDGsbAauIJqhN2e4Ln9/fot+z/OnBOXNrwSRtClDfoMsaR9yypf2zKde/regnmxiWjbwneec4FkU5nY3511PDwc4+f377Pjt2n/7lCbPFnLKuGVcLFmGr01WJxKGf1eMG7i0INH1dFSN+wZ2E440x1FhKo9i4+jfuwyyC35y9Yw90xtFqqgBrHc4FH02Db8H8E8HZipOnT3DqcEEzMGIQY7wpFWZ9a2uiTRFNkAZK4/WNNCZ+Q5yGe/RvjpjMSVXAJezvDPn43gFPL8/4+sljNMmQFWCRDTBs5CcibwksHfrWwEm94L+cTvh4PuU320ccbPf5q6O7gLCoSr68fMHXF6fYdYFc0v1Dl7P4rwwUg/dYNGqMtodIMMv89OypSBvcuC6YP9EEirIoFqRJiojFWb+zgAsAtsSziIAx9EYjTJrhotfESFgg6MnbxNaUk5nPsh8tRW3xxDlHWZaBBBaqsmy0sFhDr9QFkwbBiNDr5dy+c5cs6/Pk2R+ZTOdsJQlJmm20jI38JOWtgCVa8D54DeZYJnaBvXjB7GLC9u4Wg1GfYX/AaDjkiw8/xgKPX1xSrKZxXfKeRHtfG4yI30V1PhpP0hzbenra7z30WfXxGW2WtFZt8QvvHPPFHMGE7Uo0gJKvWHQ9O4U8y/n0s99y6/YdLEodQEhRKldTq8VNZzz+6msuX5wGkyqAUzD/nCpFWVBWlfdC1XWXWmHJkBGhso40N9y5u8W9e7e4ujrjydPzUJ+M4aCHq6tOGsvoV5MVCN3IRn5YuQ4sgTi9SZq4jxAcJs6RiOcYxlgKN8dczTFTIRPDvdu3+e3t+/zFzhGT8zknrmqGtyghnB2Mi0Ri0EgUjPhXh3ForJrm1ZmwpfPyio3gFJy6zi11Vg7jTRcjSXNvJuaPbREK8GZSsVgwm8+xqtR1jcPXtaKmUosuFljn3b4GcI051G4NYlUBizj/hSesAxgEoFIUq8rZZMKgn3L/fkqS1Dz4bsJ8atDakhnDds9QLmbMF4W/M21BKd5r56FuZCM/mCwDy6tABf97QwmqYtTRc9BzME9gknjtQKxj4KBelPSskktGr0MmxnejsKXC0CqlMX7gqWIQ8iyju+LXBTK0AZfoPep4qyKRGsY8TtXzIji6ENVYU+JdvQbjQ+JbKys0h/PE7GLBn778kq+++hpQfOCvByiXgDNK6hzUtkNHd1tueXA3JpBIuBH/iv6rha356tlj/s0Xn3B00OPZs2d8/c0T6lpIUQ62BhxtDTmbzJhPXfC4xfbtxqhsQGUjP7y8lSnkB7bvuGliuJeMuC9Dnpiar+sZVeW3WT1O+nzc22IkCVedwRy1FZf4YXQkOYe1cJZAmUCW97i9vc3+7l6zjkWh5TaaMsIA0k5ErSrOWRQTzvOzf9xaIxxCNIeWb6zDr4YDvXWkOKfY+QyN3q2mEhI0neAhMv5H1/LPb9CwjQHG3Fb8y7OnfPjZB2zVwvjigrIqSBLlaGeLT+9/wHZvyNfPpkzGAtpDTHTlu+VCG9mAzEZ+GHlr8lZDlKgR4e7+Af/u8Ijv3ILe+Dmz6QxR+Hi0y8cHxxQGnhVT5mqbbm4FpolyaSsOtnf4zeEtdp2lzhJ2tnf47NYxvarCGeP32QmkanegiFMwXiNBfK5YRbHOYpKc3KSkuDb+RW+O1NDmf2l0B38R/2aCpya6yzuO3G5YXyCKO+DE8tBe25YBTFRa8Kud4fllwR8fnPBnt/bZ3tvi448UTMrhrX0+vnubZ2fP+O7xFcXC+F0mmyC7tm6vU4ONbOR9yzu7m621jGczTvMreoOcv9i/g+75GbOnwng+55vLCf/y4hmXtkQlAYVK4CqF3z9/zG+3Dvnkw4/4JE3BpFRlRX12xcPLUw4+/sjzGdZ53sIp42LBbFEGTkIo6ppZUZBVFaW1WHV+43rnfCStu66xyApI3SjaDnpR17p6oAEXUc/NuMbH3EpIT7v2So0JFwFFvBZlXAI6wBY5//zHE7I84YOjY/7m6DbqMpSci0nNl9/NeXy2QGXYASXB7zy5MYM28uPJWwBLZyYM9Mfjq3PmFycMRiP6W1vNSl+DcH55yZO64BKHDYkBfGwILBC+fPqEM17w6eEdenkfdTAdT7m8OAVKRq7idDIFMaiDcV3xP5494bRwnph1ynQ65w8PHzGYVVyUJUjCRVXx+yePGKujstYzMI0pJR2QCX6lTlzLkokk/jwRCaaGLB0X40jWhMq8gZgWgRCMGBD/aMbzBX//r495ujvhqL+FuIyyUi7HNRfjilqyTjkRxSL4OZZTVWw0l438MCJ//bv/0BlR8LLOZ1B8yL0hTXK2t3cZDbcwWIwricFpTTJo/CxeqWKN8SX4ABBA6fcNVTEjdYZE/bkGUCeoq0BqwOBIcSbFGYNogbg5tUuoyVEsJI5ME1IVakmwCIlzGA3gg+JEcCG9QWMsiJCYBGOSkLIh5iVZIVoJJM8KXyGmTXng5PrwbU2h6+Rt9GsJvp6C4vBu426ksJWa0s0xzpPkEqqXmj6pGeDUoCTUolQmGGAqeLeTQ8O+2cuEsr+uqKLO8uLFCVVdNIsjuzst/nLlBjVyI+9F0jfRluMAabupJworUWziO7QJS/ejXyKeZzorUTTkXVGXotKjFJpoVBNYUGe9u9h7jpImAK6WzOd0EYHoCVEfeWvFIGIQFawx2OhmjkDXcTk3+VRCB+su2lvqcRFoOv2w69uK3ql1zMbrSfeMThs132UhklipjYdqjzypPz4k0da4N1HXrU70EK3To4T4lNrInVab/FUMuh/LUnydtr2pbj+T55K+cU2DmRDJ2zhghQTC7Nm2SpsdDrp7H3twKkvFSO7Lwy86tDZ2cm8OKODENFG33tvTi+sfO+5ogZhTRfERvJrSuHpCSipH4DKIiZp8kJ2EENnV1AHLpO7K0+6YTO/WR0NyBTER8xoxGHKSlRxVvj41pllwGAOWm/rG2Bi5Yc+EhmT2ZDed+J2u9+6nLe9Sw3cboe9y9tIyjms/vqL0n0m6h7fiWLQTgBXzeEhADW22olieu+OCPV+EBG3EtAmgg2enG/fanh+uGTt8E4kb3cxhVo7aiUawM8E8a/wuCK7hgFrAC9rMuvD4AIRdSyhyMLp62Iq8ij6NUNUct6bDxHXIq3XTpXddAwbSHLA+x3bQPqXlm2CJavrp07/vNLrfWy1+YPnJPxXgfaxupkOIAj4kPqrf13mF5WZZMQOUwA1cjzHpUh+N7tCNMI3AFusUCeSwWNEvgXQB8G/ukS/rq2/Tj28+Z8n2euU5L+tK7zaB/fQ76XqRBvTfXH4CU/61vvtzgYzXk3df3bxijy8/sm4zLdv6EVJiYJsEd62o3DDDLpcdjZNWwwklds71eWSd/y2YP4jxmo74Tbo6hb2iu8lahebd5HXIDAy10LsAACAASURBVLkGsu+1BiKkaUZd12t+jebujTV7DzX4MdSOzqB+C3mrLZw6117eGM47AWIO51+KfI/bf1yXxrDRFlSaJo58bPj7dZ7ccuqDqNb7AjyhqdgwIyRN8iNfvqcTpAGdX4MfZL0I/f6I2WwaOveqgac3jr93arN3xiS9Pqu90fXfoe43N8nrndx5Q9p1Yr+klerfG7CsbSK9fkx37pCV99e/WAQMJe4v3c3nKtAJkGsXIEYGWDRoPG+tWr8P+SGv22lpFfr9Adb6lA7q7MqR+pKq6Xvaa/tVT/v67xK4vJu1qldVLJz3KrL0pTVaZ+53yl4rQWNZARGfVRCfi+cXgC/fC7C8ul284WI6ps87awzqcC6UE9MkdFRWF7WkRoFvEzA4OhPY9zBrvP6d3XTt1xkkbypxDZYhTXO2tgzFYnFNJX/5xqstsLwdP3CTSbJq9F6nySVu53Ltd+0c9ypm6vsAFl15vy6yZmmJhhXzVVXidJ1Z+vOS7wVYbsbqZTHOYEiwWMA2hOtNs+B67TVmWvOZ3Tzit50rZqRzzvm4X/Ebm0L07gj4mD8/OLoscfcq74A3L9PAVrmi6+e+fIC00SpvIJ2xF0tO0pTh1tbKtV9hMYQf44rzJdN25VJrTn7JUV1tc/W3Rt28YXBbEAeacFMW3zaLT0xw0ZbUkG0rN6Ir9W014pvrd/267ftSuwo4ZynLirJcMJtNPMD/jDWX780UehW4iAqiCYbEpzQIM4fe0JMbkrdbfpNpLa4Fsp28uGZJO8Eprkm/EHb/c6aJX+nSNWsWPb+jI+FlNGdnv6bVe9fVQXNTKdr5/8af13z1Tixk27pxLK7cwk1u7q5O0ZL6q0csm7LdX6OWGfXeFkCk89b9fp3ENussFQ2823pQkc7nOHk5YB3pev3aUTFqQG3lWRuT0O8npGlCUSxw7h32zf0JyHsCljXq37VB4v+LpKrgXcGZyUAU+xrq37V+GvpAYhLSrI+tffJun/E/AotX+Z0TkiQlTbOwFid2QqGqKkyg+t/GWn+VvBqTuuxS96RVUHnfU9jyEH/zs2Nk9A0ruV9hH92kk7CkUawzhda94kA3HUBef/HAtHXKC/Xo7NLZnciaWKJu7ZQQz7UOvK5f+/VMxbAI1cQg0/Ux0z8H+Z40ljVNIcvwoyhZlnG4e8DczXh2Pn+j/u0XJ/sTtkZb3Dq+TV3VPHv6lMVs3gJHOMapcrB7yM7OLmmaouojTpMk5etvv8ZH4ep6u+Ut7fB41ut1jthAN3EEr8MZvIusKfuVRUpjPjb3KJCmKc45aueWNMF4me4droONl19Wrg10r/OFKO+4KFRXPVztUBWUxOATgjW3GtJjRXDx9nV49BqivuNk1N7BTQbsq2X9MSLSbOcSP68mfv85yPsDFmm9Lt21M+HH5q8WXIQ8y/n4w485m5zy/PxkrVK5ThozSL3WMxpscf/ufaqyZn41o55XneP8gEyzlMO9Q46PbpHlGVVVkWU5WztbfPvtg1adZ13HfvsH++YzzmqHe5NO+v12wBihHPchiuIErEKaJvTyHju728xmcybTSRsr9AZXeZlEHUFDsKMgJOC10Syj18uZzWaUZU23t4FixOfryYxye6eH0QqfGznyRF5TsAqLomBRVqDgNAkmk//9BhruvUmMLP/5wUkr7wgs0swC8fPN3h3TeSB+z580ydjf3Wdez0gl9TEntO7OmxtXW6MeoSgKLi8ucRac9WZQ5FpivEqaJswnM071FJMklEXJJ598zP7OPlmSYtV2FiCuzqE/pqyaKz9idwtxI9r+CWLQLMFkKdvb29w6PGRnZ4dnT58xLRa4qrpWTNOib3Er0vQ2xSikiWXQM+zvbbF/cMBg0OePf/wj52UZCFx/rE8U5i8+yoS/+vwO1HMKK1gMPqFogpBQVI6HT59RF4smcZdrKpt0NB8azfjnqFV8n/J2wBLHNYJRv95Hg2++sV/DCuYIJFGFjdaGUeNfGFJNmr+jVb1kOTcaUNx2JJArIbhoPB7z1dffIKQs5hMs9ZL2IVgqW/P87Dkvzs+8N6iG28e3cNaRmjQAkusQc6HeGm8jQGboSGZp2tLuobwKmLphNy+Xrg7XbZHuNW6y899MbvL+tFeJHjY/QSRiSHs5Wb+H2R3R299jfzRitzegKBbMbUkljnqlYAGSbrd4pbvtOlehQVPtZxn7u47btzIO9nvs7edkWcLTh1dcuQLR7fY89eS9SQxZknL37hHjq1PGpzW16WFxCAmJ86virU2xdRoWrRriJOpThwhqvCctSRLKqrtTwmrL/Trl7TUW9akQElJs8DdKXPHcTQobcnuIQBJXEyeJ32xLExJNMBiMCokKSZYhqc8y5+raJ2mKdu9K9nkJ31lnmU7miGYhS37YNCwc6xURA+IQp36DMQR1FrWWNEmobBy2IZWl4D1XJICj2QIWf99ZknhbWJWqrv0K4QgwazkZCffQ/h0i825qYBBHqtBTyNI03jHOWRau8vlXNH7/buZa971be799ia+qE8GlCf1ej+FoxM7+Hlu727h+jutluHnBd48ecnV5weXFpc99vFK15lrafZ6vW8O2TlmWcef2bT66n7O9NWM2vaJaWPrZDglzjFrUtef7hbIatBhBjPLi7Iw/fH1FSR8rfk+rNGRsXywKnCYBWDpb0IaZcTTa4vDoiLyXc35+wdnZmd/x8z0aMT+2rvwu8kbAoit/Z1mfve1jZvMFs9kcwWfDVwk90UiTbzYxwsFwi0xyTusalRw091uIipLlhq18m95wSDrqUztlMZlwdnVBVfvtLRqnoghZmjEYDkKiJkNqB2S2z/nsGZNi3pJ4DQg5RIwn7RDvBdKQaCmmnURRcQFcAJJA8DksFYmm9M2ArdGI0bDPsN/H1Y6r6YSr2YyiXPgcMOKC6hz0l+A9CNASABgPul3WsyuiGKPczvvcccLOYBTWPkFZFXxXXPGMkqp2QTu8XkRT1Orz62J/RxNaApPOz/66Bh0N0L0RW7dusbu7S5755FuLyyuunjxhcXFFcTmmrErPZUjoBtqpg8aUFdGgWR2Eq6bfGohWSEzK9s4uWT7k8eMZJ09P+ew3OaPBNur2UK5w1CgJruMPN4JfkyY5ZeG4vLiiMpYyZBBJtCZR9bpzuHfVhLhiX0PCsOOjY7748y/IejkvXrzgn/7pnzg/Pwv9buVBdBKfvSlc3Mz7/bTltYFFVz4pytZwl88++YLnz1/w6OFDSltgnaXfG5ClGYUrKeoF6pQ8T/n8g0/IpM/kyWMKNVBlGE3J04w7t25zuLOPM2B7GRhDdkv49vFDvnn6EOdsRyuCwWDAvbv3yDK/KfpI99nSPf75oWV88iIMHKXtulGbcF4TMT5XizrX7K7YJLQWDwtNdKf6/Y/6aY97e3e5e/8Oac/PgKLKYX3MxWTO05NHXE4u/K4AJm430h3WMe9Lx6MROvx1s0jJMsNHH9zhbmEZZT0cQoaSOMuO7SNXz3h2WVKIduBhjTT7GkXNj2ZgR9ZiddKIfhYRIRsM6O/sMLp9TLK/w2A4wNqaJy+eM764oj6/xF1NMGVNpkIq2u5pzXVgWepTLxlnq/EtXSmriqcnJ5yfpVycnVHNF3x4z+BsH9UhqhNUvIETA/jiNY3x28rkaQa2IjFKImnYf0pQDQGbCM74gEqfs6dleIZbI46OjjCpwRjhT3/qedCUdcDY4e1eW1P7OcJJK2mLiV5EOuYLK/OHdHkBoZf2ONo9hspw/uycqi7J0pSPjz9mf3DI0+kTHp4/oFhYRoM9bh3fZzEpfTY5pxgVUhIOBwfkx8J4Pubs8oKpWkajEb/96GNEDE/OnlOWZaM9oA5rLYvFAmstaZpyNBpwd3Sf7178yWskIemTFRv4D3+uE28Lew8BvsfZbmaUwLMQtYmExAmJ63P/4D5ffPg/kW+lnIyfcnF1hkmEnZ1b3Lt9G2MMxcMZ06L09SQPpkrwUBg6uXM90dwmzFqWGEQ1SSxfmwJjF4Bhv3bcNzmf7u6S2Dn15RlP/IPz562klRQgMSEhlLWdhNtRtL1ePEdbYMnyHnc//w3ZrSOGWQ+mC86+fcLF+RmTiwuq+dxraSg96Vp3Hq7i/H2z/rEMIIJgTNgHe92KX/XgVFYVJ8+fe82irslEG+04AkNM4tXm4pGgPSsJFXlSsZUr6SBF8iFlWeGsMpstmnZymrQ0kEZtThlPrji/PCfPvcYyn89XQFPX3PN68/hG+RkvSkxXcGUJTbdGI8aTSftjR1cWFaqyopgXjHpDBvmAy/E5O9s7fHrvc+7ufMDgtM/V+JwzO2WQbZMmfaazMbZu7V9RIUsyppMp//r1n5hrzUwteZqylw84vHXEqD+kDnsVge9Ys9mUR49KTJKQJglbdw75eJCSaBKIxsbwQMWF6itOYoLp9l5U48KwcJNhtbPERYuaMEwGfHD8Ibv9Xb559DV/PPkT08UYSZS97TmffDTk9q07nF6eMFnMmrJjs8XB5c2xkF/XaaczdjqlKmKUqir406PvsK4iZrw7qh1zyfg8ucOHvRHf9GY8KW5+wMYYsjzHGENVltTW0m5j0rRQy95q/BZQJc1z7nzyEYvtEcXZJeOTF7x4+IjyagyuZoBSpRK0Jgn7K/nyfHzL+sw88XlEs0zxeXPSwF0p3uV73dvSTnquMTECqETNQP3kQ5wgPBq1OcbVYSkZjFI+/eQ+Wzt36A22mUwm1OWCb74ruZjOqEnC1jIdsxa/s+bTp099fdOUs7MzJuNxO3Za9cx/lPj3tan6Fyupz7DWUUVCRvrbt25x584d/v7v/37ZNg9/Coq1FUWxYJD3ydKUnuYcDo7Z6u+R97Y47N9i3+0zrSwpPYSUReEXujkHTiw1NWfzM/74+CvOZ2M0S6kNuGLB5cUld+/eYbs3YHp5FdzRvgbOKWVZIVQURiiLogmKElkBlu4D1TibSLzd5p6bjeWJl5EQCZkyHO6yt3vIZDzh4cOHXM2vcFIDlpP5YwaDEZ//9s/YHh2Rnl1QagFigTpcOmaz8xHAivqflc4g735WrHXMplNfN/UgfOocCynIZ2P+cv+IXm8IxezmB5ymjbloRLBhZm1xJWossa3CAAqrwYuy9K58UTQxyPEew8WckUkoijllVeBcHWIvpEkZ6kuJgN6RjkkSP8enmqUpvZ7feE1Vqa2lqjoxSfHZEnmacOZKusYWN6MnD+IqdoNf7Hcxn1FnKVv7+wyHPdRdsbdt2R/tkmcl/+Pbp5xNSh+g06yajxVR5vM5Dx48AKCualTd95o35+cmnmMJuSB8+wu379zhd7/7HVeXl9dNozDDiEBta4pyzmgwIEsSMpOz298DJ4wnE3qmz5Zskbsxo3SIqHI1uaJ2FqeB6jWWcXHF+ewClwi1+hwqSTBlMpPSMwmiLqSYjFwFSCREFdT53Qq7M64GLiGq9v7QEK5tQklhdwCH87NTB4Ca+zYJw+EOea/P1dUVVVUzHA7xi92UsrZUpTfLhsMtsqxPWVZ4E6jVkEL/9qp+R1FZHXhdt3wPw34+opflfiU4FnCYLEcS7+58mXhAMSGhU7oS3KaxkToDUZshqyiz6ZQ//OPvyQ732T88Zri1xd2PPyK/XXJ5ec7l+AK9vMDOZjjn0M69xnleaB3nS0bYEh74iNMkTZvjkyRpgKV5JtEmF20nBbjBbGgnj7jeVBAWZc2//OkhSsXJyYLMJLhyzP5WzvDz3/DBB7e4rA3nX36LUdNx+kcPpx8AVVUtaVSrPNKq0flrknRn26uAMdHMvXv3+J9/9zvKouAPf/hDS/h1en8czGWxYDIZc+/OfUZbW2T5FcPRDkUx43JxyfHOLqPBiL5J2R+McFXBfD7GqqOW1HtLjIT9lRUVv17DhWA1USEVE8hVF7bu0KZzNf9UQH1GOJ/OoutxCGARBnCX1PUcgEHUYLHUUi+bJqqo1oiBfDBAspTeqMcHH97H9kq81yhBVen1h2SJIc0cSVID0fUYEnovSWsiadCWVpkRwWsbH2zt8tutQ/ZH25SLEotFxbHXS5uJ4GXi1G856/9e5izW5hbSdsALoLVlenKKuZxin12wvb1DeXxAsr9Fb+cWt/SYndNzxk+fUU1n1PMFriqXgIUOgOhKX+qKdQ5b20YBWcpqt2QSddA4BkIuGZzhpwhCzUTke8OiUr78dgyiXI5npJJgauXickqafsff/LsPuHu3xz//8RHGJMSFxnFha+tpbPtZqwG3T/JmwPvlS/r555/z4MEDJpMJR0dH/PXf/A3z+Zy/+7u/4+zsrBlopkPvxXdrLfPFHIA87zMYjBgNt5kWU84vT9kbDdje3mF7MGSnP6Is55R2gRPjXdF416yPK0nabiFx4PuZIWbRJXAlcd8dCbE0EViaZE4qzaBV4mpSX+elxW1LGk1wM3dvMHYgEZIsAaMkmWF3b4c6LVBShATBYCRhNpkwnVzitELEomHnAunOearYQKKqa7mf5c4IPYQP94/4s1t3GZaOqiiYjMdYHE5qBjqCreEr+21dlaCKMQbr3LV8K91BEW7Wt1BomzxNkbxHod79r5M5z85PqfdH3Ds+5Hhvj1vHx3x0dMRsPuPJs2dcnZ4xn4xxZUmiDQvS3uES59DWo6p8CH0kb+u6boFXtSG94/HEEAFt/S7S9Jf4tFuz2D9zpXJQzH04pJUMVUNGn6Ka8OzsAivQ63nzUTSsITPtRBbbbDAakCQJ8/l8SbOKdf41S7q/v8/h4SHPnz/nw48+ZDqZ8N//7u+4uLhYOlA7r3Y2MswXNePxlDTL2B7t0s9HnE1ecD5/zsLdY7C1xc7OHr1en0V9Se0qNAnbd1AilCQuIdUskHHWuznx8QJWhFoEK+rTKwCIBBemXxpgiBxEzPTfgsry5CjNOgwfb0Nk1jyoSMdFLARSN9j7rsJqzdX4km8efk1tSqxRrICxCYk1lJQs7Jy6qmm9TJEZCsDnFFtXIXdMJBbjzO47owG2k4z/5c5HaAL/39OvuZxMKUvvbVIsf2mOOd4evDKU3Frnl+B3F7NpC5ixrWL7xLfoJxsMBhx++jGP5jN0usBdTCmvJrj5jPMXF7jBAO7dYf/wAN0acnT0Z2yfX/Dkq6+4enqClnXDa3WusHy9IM45yq6201Gp4nNrYFjbV5NqQ1pwaTg2idNFfCKd83EY8bxLEjx2tdYUduHBQ2rU5Z0+H9NtKDu7O3zyySf0+31OTk548uQJi8Xilc/j1yLpV199xV/8xV/w2Wef8ezkhH/8x3/g4vzC74oXwyaDehxHaVRvEW9+VLUl7/U5POiz1d9mXsx5Pj5hWsy5s3WfvYMj0iRnfDWmsgWYPOjhIaJVDeISErU4Eb8zoIm6huBEPXkoMYo2DsDwT43XOtTPyI5QZlRbm/ixVueyzhIXssWZrGsVd2MPrKuZLcbUtqSsCk7Pz6ilojaWWiypTUhsSm1qnHFYU6Om425UGgIWFGf9RvZdW7xp0/BhYBJu5QOezi95cP6CBVHbcIg4plp7nuEVuVubARrBZNXqj2RU+9b5TcjynMO7d5A8QeYli6enyLNnzMZjqtmcyWzOYjbl4cPvyA522f/gLgfbWwy2t5g8P8XvZrmsm7Q3u6a+XVOiG+/TaB1ttdsSox4a3OoannWzY0QElmWdw4hBqBFjvNYsBskMaZ6gs9Jnc3N+C1t1rtHmRIS7d+/yxRdfkCQJR0dHFIuCR48fNVHbyzPaOlD9ZUv65MkTrsZjbt+6xePHj7m4uGhVz8h4cXPnrcqSxWLB7u4+vWxEojnzRcF4PmVazOnf2uLg4BZplnN+eUlZF5Bt+TVG0KwzUu1eqzvIo+3qScuWWpSQLMoDCwFYvFYAkiRhQPsZvouKPrLWNjPQYDDkYkbokISZL3RMsdSu4mpywayYsrO3y97+Ps+vXmBQMrztnfVyjBgW9SK0TOOzuCatyRZn2pV5XKJmJSTiFxUYpyQYnDryPGc4GIAxmEjeXotPWS+N5tDlPW44TYFZseDBgwckd2+xv7vP9s4uu/du8+LxY4rLS8qrK2bTKclijhlPmD85YX7rkIvJFa6syDoMSGyXbqDZ20g0kePUEbeLNQJG1G/5qz44DklxqiR4UyrFcHhwQFkWXF6dg8SlGpCkhqPDffI0o5jPcHUk2b2jIezfieKJ8DzPybIM5xxp1ok1fb1H8YuWtCxLirMzxldXVHXdNIoCBJRe6vhLU4WyWCwYTybcu/sBA3ZYXMwpihKTpBRFhVPY3TukrBfMFwus+kHeLOkKSZfiLnx0tAcjBmMSVB21tcQ0FQrkac5ObwejKQkp/UEfayyjwTZH23dIspxFXTIvT7HMvWkVBzSAOopygYjw2SefUX27wFJ5V2emPLl4DI0abZktpjw9ecoXH/05n332OcmjjPl8iogjS3vs7R4wr2c8ef6EaWUx4hozZ620ClHXAmlmXGsds9mMYZrx2f4xp5eXGDEkqXBwsMdH+4ekJqHf65Mkk7AI7vXVcF15vybhmRdFwfjrbzHn58wOj9nb22N3NOK3v/kMVcvTJ484f/KE4nKMzgsYzzkvn+CMkmqXm3tfJoLXN4xThnnO1lAwMidxOTs59CnZHyaUexnWZFyVGedT5zVhEYxR/uovv6Caj/n665ppMUbwi2D3dnb5809vYxcljx8+I64rUro8jkNVOD875cmTJ+R5ztnZGePxODTby1b4/3okjQ1WRvKpsU87THc8Onhq/GERYZSyKKitRXJhshhTFgW9rE9dVdR1ydbOHuPzMWVdtaaxqNcqjICx/tV5HnGeq61Xpeu6JsnbWWE0GvLJh59gXEpmcrZ7u2juuHf7Pjt7u9g85cXknAff/SOz+dxv4K6doCpVzs7OOD8/58N7H5ElPhhKEsHmNSf/7QSLbUywebXg0ZPHHI6OODg44C8GX3BxeQ6i9PsDer0BJxcnnF6+YFJeZ3fWiRJJ0nDP0VQSYVFXfPfsKR/evsXvbn/IRX8HRej1MoaDHDedUQ6UwXBAfzBgOpm0E8A72vkRCAQhVUicohdT5uOSMnnKfGuL/MMP6B/ucHz/HsfHh1w+e8784ori6orp1SWJ1bDJ/Ou1xRuJCKKOu4cHfP7pDqm5IHE1h7tDRmnJbz8+4tadEZXJ+e7UcfHlM2xYlW2wFOWUu0dDjnZ/y9nlOQlCVjv29oYYU/P4m0c8eXTSGE0a4lhUA2gIPH/xnOof/oEsy5lMJ0wn02bSixrVr1mSu3c++r+7X0jHRbdO4uI+Ywz9fEg/G6IKVn2k6LPnj3h2+ZhayhAjApNqwqMXDzm5+I7CzdB0gGLIVRn2Ei4uX3BxeeoHmvGBc0YMqaYUdcmLi+dM51NM6ldHiwqDfMDWcBtXO2ztKKoFk/kVi2qGtTUFBYtqxnhySlXG7HTS3INgqEvLYrwgTVNMIpjUULmaaTnjyfPHS+5KdWBLSzErgwdASdKEJEkpyoLzi3OePn/KZDqm1rqJ9g2t1po3cUZTwr7K0jhKugl+EnXYqmBRl2iSYCWBJKG0ltPLc7599pixLbnQhNOipijfLkfqOrKxywiICgmG1AnGOqSy1IuC8cUlp2enFFXBMMs43N/n+P49+ge7JGnKYj7H1jVGXwItzeC7ub/dUGuMOna3t9je7aFa4jRhsbBcjgsWlVKqoZac8QJenM08hS5CopaLsxOKxQSTGSTPMIl/jpPpggePnvIvf/yOaQE1CVaToKloUN4NEuKQqqpmsShCjtrWsdDEhHVvNfzfaKU33LOqUpaF72M3NslPH7Tkr//t//ba00mkTFWVNE3ZGx6w3T9AJCVJMgRHVRVUWuCMJdGMRDJUJKwnmeGkxvUOUfoMa8cARd2cytZYMqxAlZQkJPTcAKeOhc5xxkLqB6RRQ6IpmWYevFyCSh1Ws3pitMbijJIYRSQQb0EjAAEnqIXtdId+3semNSp+DUplawo3x0Vi1Bm0FhKbMDAD8izDJIZ+r4cxhvlijnWW0pY4cVixWGljMDSSt5GA1I5q3bUyO7NcqpZc/ErbJDEYk5KYhLJa4FyN1YokAZduUWj/hp0MXy3rErwt09gxVqhNWO3U+ZgTtUiibI1G3L57m8G927itPof9If/83/47l4+e0g/A4pYALHAs5qZM+2091tZOFXEWIz7Rk5GaRH2eF+/jMX5lshFKJywqRY2PPM61JtGKul7QH2bkoxzUkGpGMZtjq4KyKDFpH0tKSdqsDxJ8Hhgxgfg1geVpvHtdyv/6HUVL36wFlmBoOct4fMVsNiWGV8Ry20N/+sDyThnkHA6rJYKlrkuUMKDC6uDaVFQa3Y2QxO1O1QEVVh2F9WHvMfitWc8hYLVu1mqYyDYGCia6gH2cQY3D4vCeHl9OHLw+pWBruHUcIUaotKauZhTFHKuWNM3CNSM74CNzSf0As+IotIJamdeLsDbGDzYXooO9rJ+NVuMbbqLGawErBsUi1vqZv64DGAlIBihSO3iHfWjWddHlOkWatY2dNeEgo4BVFuMpD+bf4J4/IzvYpTg8opgvwlmrqRzXDbc3Gyj++RlqddS1QaTXSegdQEsErO+jxrTROiqJ32zGCFfzGlf4xZ0G6wMy6SNZL/QhnyuoCyyNVqmEtWStZrfM2b4bPU28RnQkdL7/OUh6vbKvUmBcE70agUQCs95ketPOvj0NMSkIWbiEQ/HBT7azKLBVN0PDigusPa0pI7EsQli+C2ghCAkiSQMcTv0y9magxOqEB0YClVpELWISEhJvarHcKr4+BknBqltK5BSjVHQl8chy0Fnbtm3qgnW/d7+Kd5n4zhW5LQjtJYFLSVpv1g3ysgnulVRAM4A6w0b8lrUqPnY5hrjrdEE5K3jw6BlYv4+Tu3aR1x96Nxjj7XMkPBeRJnfK9bNM5xsJIGEwaYZBg1Ya2lojTKMp0QAAIABJREFU+Kuf/EQCjK7m9G/TnrbfdgINu2+rw0ni2evvLuZ8icd03eU3t8lPT9KlG39FrbuhzCKegHViEfGh8c2CjPh/hzPwjRyiCNTPYyoxQUF7ha6/wkn0IIUStdMJgnYT55Jm8MSgr3jKOpa+c592qXt3UmsuQ0voEMErIG0dwyWXjlffOCvXanSlpWpc/7ZTl8b80KZu7UXiUS9/aG9Lm3YVjC4UXD9KG9xIFeICyujk025Ba6/wNkMltm0Y+CsxLmuPDpOPhvNuqpV2Y4PCc71WwwZn1wOmNB7ONRdgXe6d9rjlnnW97fWVT/ynIW9sCgntSuAWTcPDEDrpByTocbFBaJ6wqG2+s83Di83VJktuNIPmOXVneW0ekHbGcQSAWNarb2gdsbjKB4TvIpDJSm06/dCPrZvh4nWlA6frZ/bYEfX/Z+9Nu+PIkTXNx+DusTG4U7tyqbxVt6vu0j1n5syHmXPmt89f6Om+fWvJrFyk1EZxDcbq7oDNBwDuHsHgKkpiqsIyJZERvsDhwAuz1wxmH3+gVRhZcVTNNiy7+3VadBetvk6u3/o9XHlH8SNxEXwuUClvNcXnzcLbnP1bgJWbAotSA0lFQCqyMLFprviyrPt1YTXjAnV+idlQicwFedUUzIc4N6+hvi3ot1EzC/jX+PT2rWje7KqrfMphtsykumhyffS9MkvH1YUH39j7WwF7NcjmI4KvCHi+xvUXWlhpXT5dxuVn3n9wuRmwLKxQTRfqSlbyJUrM0TsHThXndOFZy79eMHfm7hFix5xzlLaxofG2Df/M8mF1heSuV6brduP9ArKota3ky5RmBHXcinG5Lrn8O9EG39fkeRS/OdUW5HmOmyslsozXuv/yQcAit1AxL5ZF2uriu95HWYVxf1kyV9o05Aty1oZkYq7hErrovV+isiw7Wh15UZDPZvOpLeYucz/H/jK5BXn7kexnoX6RS1D6Ys8En7W/a/Z+WSN07piLBuGHgdLVD/+hfMDHkvsb51U7EsDnHZrOppRliXMhIXmVNOtmwHLRI6tquH50mjfZwprAvLddtiAfqSj8TUUrtvx8OqlAas2Ru1fMlE/U+1ULL50hAVwuPETPwc915WKn6bJj7pcoVEFln0UuQdvAqIS9QT5HzGg0wjmf2xaiwnIV1zJ/zea/Vx97lbl1v+WeAEuU5iSb79SYGib89ikbdQ25SOdoxkNcfv4/rnyOd3nN/hZQGzQJ69NszO+tuj6wXNeXs3zxvG/j/Wq5R8DS1FQue2H3r5OXl1RdyW9VvDLiCVtV9fWftGmaLI7Vm8n9G8F3L/cIWOC2L2olK7lrqaFDF0ClecTS4KvLL/gPIvcMWH4L8qlV1Mvcjfc/WGqRfvy4d2nK/e6XL13uFbA0w/rrvy89YeGMu2jDZWzJokbViDBGfC3neNRSz1mIJA4L3XxdnVpM+NQtdcHHe0b+RueY4aWwt4hFdyD1fuErD/T/NELg9U4AMWoLy7Tc2LFVgH7s+ZvdYoVNt5Z7BSzn9p5clgltbl/HFcde+/Yx+KlqgP87fGBUwfncp0Yg7jL21QQIpcPBLoxIqUp9htif2OTA/JuQFMUZvxM3UYjF2aqM8hKjQA2ICaVDQrpxiXeRqr119gapu1Xxe7qu6CrFF3WzAoVAKkLq4jxuMg06/x5YxLBGT2o81jdQ4YNioIyE90HshwgxcVOqCZs4I6TczsdSb6NdyU3kswLL/Kq3+ALPjzqtMrBfeWEqM+GaHpk4aUJgdaMFWuWHSVXJrKWXpvSyDGNSVIURloErcTYWLqFO7oSjlSmIIy/AqQlw5KeBUcda4qsdjBXAkKKstVokqhT5jDTNSLPElxzNS1BDkiUkxqeGKKxl5oSi2qwuYdEO0ynO4KDdNMGl1vjqlT1mgJilhtlGF6xiziakGnaRN9Io6FwlReZ2MzcKts7l+q4+u9b7WS6pKl0gS1Iy4wvJg5BjmbqSqXUUEhYKDeXpG+rtxd7mxhdV5YaLXL+NB7+BfJi+dvs++5Ry58Byk26Ogy3uk6jPjVO6/i2mMriwT5v+aI3awVWvME5DbQBWrVr7RVa9aaLKuiQ8WFtjb2OTfq+LMSlOhdNyxv5owOlkxigvsC6q/v7cx5trtBPl5eGQcemLzftUNY6Wge8e7TEeT/np+AwnkBnDs51degKD01PWN/p0ux3UOU6OB5Ql9DfWSDspOMvR0RFvhlNKjU/jn8RUgBKfNvZRLIBBHR+k9YpP8IYk3S5P/+WfcUennP3n3xeyzcUMeEH/MgtvR0DEoM7W71Pr825pnFSSqbLT7bKzuUEnS8lSn/i6cAWjfMLb4Rknsyllqfgc/Y3RFbphydLF/AjWhhZ70ci+3RN86TrQR9FYrttpVcUPaQ7K+bOFhdVlQbGZ390uYYLc/LVFcPMrXBPiFOMcmXN8vbPNv+w8JGmlTMRiLYhJWU8TniYpL1oTvj85Ip8VgC/LkQB/2NxmM1FOjseMgupuFKw4ulmLf/v6a16+fMUvh6c44/Pd7fX7PO/1OUxSykRpi/Boe4e8u8l4XDIhp8xgt7vOg6JkPCkYlhp4m4YeGJJtVWZMI5VF1X+NTXWKw0kotNJOefb8GSNJOC7/QoKBaF0IIdcNgKHVbpNlWePaEUzq8PQ8z30VyLAX5kMW3lRgu9tlb6OP4JNKGYQeKa1el91uxvfv33BYlEwxVGrntaWx6KzkxnLnwCLGhOzsodyGcxe/mkiQLFQFOHdCRRLIfE6QoO1UGczEJ5Fy5bIS5OfFhMTIJmCKsyVxKdNKq/DmSscYvn7wkCedPn9/94oXo2MKJxiTsZ6m7HS7mFCmtVr+/ULOTtpiVyyd+HAV36C0s4TdToeDkMdVATE+195G1mLgHL++f0tHhCdZm4fbD3idn/Dzr79QZI6tx0943OmynrVw5SyqSuHxQ782UgwsBniZ0HdFUaKJoVBfb9IJpDicWjDCzJakWcsnki6dr3hgfJlSMbC+tcXm1hbqtLpnM8ewiHB4eMDJ6SnOxbrZC1yUCEkslKf4onIXmBpOHePphP0jyyyfgPNgvZOkfLW7w7OtPuNJm+E4ZxZTx145Iup+qVYzqUF3JdeXOwcWX8ip7RNoW0s+m2Gdq7efL2gYMXulhJVUkEbAmSzXWOLX+EkoSYJJEsQYrLWUoTbyZaNIgCzz3EViDLa05DO3sLPUH6kKJkvp9dcoCsf+2Sk/Dg4oJUEloZUaetOUmUmZFZZYTce3PRgYznM1JpZWDat9IoKWFnEecJrFzGye8/7wkLeDYzZabc7yKaolP4yPeTE8odUSRtNt9np9TGKq4d+gTLkMq+MqbxLDZDol67YpCkcpPuduOxGsKs4Itp1i262gMBZk1gN5ETSXdH2D9QcPcfFdN1RJVV/VYVAUFGdD1Hiw9m2oW5cmKe12CxFfmG02m1EWxVKWd4ryanoGM0fpfEUIo/AemGaOP24+4km3yy8yZNBIPxm10Ys05JXcjdwtsIiQJAlZ5jPzJ0lCWZZY586DCvHXmNOlXk2l+rvJMNYaS03+eVLQF6IypKl/HDEGOQcQ86I6DyxGDEU+WziIoPJD4RzjPCdt9djc2GRbp5zlBePScuYKTssCQ4bR0IaKFdLKPBDVCiTrzJXSML+k3lWrilrHNJ+Rh4leqjIsc45szlCUnipl1PSkVtpFo9eEyqW9YEFSpQ0NGqVJErZ3duiIkhvIBbKNNUyS0Op12Xn6mLVWG3WOZGYpT0ac5VMExTk4OxuSmgO/iDA/eRVfY2g0GmNLX7WwbkzU3sAkhjTNkJCc3FpbVR9oUsGCT4Y9UUumlrYkpIkhkZQWjlIdxilrJiVd6Jd6fK3kY8qdAkulcje0kEobWcp8+AOvQ7Euri9Ry24OtrnEU1f4Mud3jtbpHyKp2TzOCUxszut373j+6Blf7+6xtd7n/dmQw8mEfTtm307QEkysgxz/SJOmlLqWkFKBgUKVkV2MqbUWpDJL/GX9pLWqFKrMxGAX0mRW1iXebe3Un7/Q60E78jt3TZj43U6Hx48fMjUwNaCdjDRNSXpdnn7zFf2s49OhTwre25eMD6a08XURJu8PKY5OuCj3mTFCWVpaRQnqMEZqbWUhsXjlYqcBiAvImCr0kpTHrR6PsjadVps0SRFRuu2ENdPhlJknbiVqjpdlZlvJXcqdAouqr1woeU7kWKxzC/Z243i0ypHbNKV14d84ppqTJwZcxRXeWgdSUpYX2+VNERHyIkdxWDEh14abAysFcJ4Qtc7x4nCfdXXsrPdZ6/V4vPeAByZhrxixPjji/fGA0awkxkwEtqFqeVWWAioyseKHwpP6QuXRreT7TSWYOVrHtviQGpnbvS80NBQNPKuynLdU/76c1lUSBqenmG6bQmBmwPR7JEnCtLSMJhPcNKcrCUxyrC193E5QPnqtFlm/Sxlf2MINExGK0YRJUWCj5rbQJmstRVFUZnFZlrWbOppXweO3liZ8vdnnm40tNiShtI7SKU5LbxZjQGNkEfMDrB4FFw+QS1e7lRl1ldytKRQGg3UhSKlaeeGil9DMzsUCAOn8gY3PY40X/0kEhdKW8/WZr5CiKLG2JFI6586LJomAGsMJJf9j8J72+Ihuu81ef4udzgabacbj7cf8hTb/+X6f3M6PSj/JA9SEj50qarTxWBI4p1hyIrYpfBf4kJhtTBykNgTThUOiZtLM7b9MqlzFAUJVHaowOB1wNpmg4q+R7m7x/PffMRuPefXLCzKrtFRIrSKFrUBMVXnw6AHbv/uKoVFfnK5KWerv0ZKEwYtXTH+coIWtADyCBYGTm06nlTvYNhMeheu5wMM9Wuvwb3tblCbl1cmAg9EZw7JE1LLRbdNee0bVc0Fri4B7qYTOrAsxxIVhXo9dcTSXy93HsThfzW15SPviwWECyhxuUK/wNDiVhVOrS8R4jAYYXRNYVJ13GceBsnhe0Ir8uDIURjm0M1xpkekZ78+GbNDi2946/+3xc77afcCLyZjxyVnl9q0nTz2hY0sjl1A965x2A6oxqZDx5CRBpY+cjJoqDiVqSIZ68tjKhLqg7+JiHiN/yzJ4xjxgJb0OqXWQF0yHY6x1OIUUIY1tDSaaLXNm0zFT46skNs0bBawxlMUM1CIBeOKaUk1R1VDc/tyL8u0L/xojbPY67HVT/nJ4zN8O3zMoc2aqJOooE0uuJUYsvmRaXcVRK1Xp4vE5b1wuAZYl2vdK5uUzR96Gvy94R7EMKUReoPpizuZunn7brGSqteESJabe9H8MSQJFmeNQCmc5LSdMbM6WGmxesr67zVpvDU6HC2WFhDTLSMWQOFuv5s7RSdKgieg5DU9pAotB1LtUE1UUQ27M/PaB0CdC0F5iG4RzzxX70QRTUvDxMwlUtZ6MQtdC2ypGtSpjKpW56CpgeP/mNe+P3lOIdwUvvpvECKawkM98XTdT6XBcNsmrazQ0HBHBJKBSMsiHHBVjLAYb+sa70J0vuxuqb3rTSIJWN19uZiV3L/dqr9CiKXLeNFl60rlDbj1UlpwoQKrCRqfLg+0txoNjTkZnjNzUF6dvt9nc2KDdaTG0ZYjRqNe8aAy0sxYP2z3OpkNmeMLzyfYO32xt0xITYnB8lnYNSBCrOVqtdCrv7UF83WPx+5S00dpFErdSKhqBcc0YuaZbuP5ZsSJI6ciPTnFnY5LgLvd/apM0alp5nuOqwvQVMVKZthZBjalfkNaa3KW4IlQ8XCS9nSq29BG9a1mbDZMwLRSLYbPV4vHaBt0kJQ/xVIi3E387iR1/+/JZgaVyR17HdLkuWlw1UG8gERjaKjxIO/z7o+fo1i7vjw8ZFFPUQa/b55v1LcRkvDs85Gx0BuKDvyJXMMln0G3zh91HdKXHQBxWHf/+7DlJmZOJ8WYLDS3NGDRNKMV7gax4c8IYA8aEQMQEjKEM4CI679Oa20DXiN+oPGmB0zpfT9obD2464+0PPzKeTskqTcWLIdZljuVNw9us2NaIaPV9HVSVKSVqDdfAlgV1C3WO8WTGZGJ51t/FbCccTaeUScJef42dXo+WZmi2xnp/g/dhu0PUzEKHXD0AVnJr+bway8JoupXG0rjWzVekxsRb2rBo28NoOuPg6JiH630eP3rCjqh35VphmM84PNrn57MBo9mU2qRSLMpPh/uIndBvP+Dpk2f0jSV3luPxmPHpMabf5rQsccZzJs4Ip5MJB4kwcg5nhBzhMJ/RmkzIrUXER6iOneXA5oydnWt1PcmpgKS5M7l60gu4MAFcUXL07j2FtSQVUITvtaZRqoBG1wS3qMt45IjEq69aWdmX13lJ50SBg+GEvx6c8Gh7j4c7D1hHKULk9fvBKYOR0Fvv01vfIhm9p6D0rv5GB9zfZN6/fblXptClcoMFZpH5v3oANQFm/mAFZgLvZlPOXvzM7nqfXq/nTREVZnnJeDxkOhszUQmah1QnW+DH0SlvJ8c86OWsd7YYupKZWo5ODhFbsv9LycHpACcGxVAqvHh/wOFJwqlzOJMwdo4fDo8wwymnoykqhtI5fj09ZTAxHFVmyLKOqwnhc09+IbAoqo7pdOrdw414mfpPoKe1zrDSvFz0PUnokzq6uu7q25onx9bxH8cD3k5LttsdTJpSquM4n3I0OqPjDFvjnAE0Kgsuf8cruXuR//2//T9NE53LZ3DM/2FIkpS1tXV6vTViXpJ6qMmSyXz1y7xMY4nJkZqXO7ebdsk9lOutTJW3ZYFSjIaDU8U4S8vUPgbE4FRwONSAhowsDvy2OBFEHE4nJMbRcR1SzSgk5DrREkFpWYdzSm5SFCEFEnWoK1FjcGIwKKlaxKRYNdVzJcZ7QnIMhSQQSEoJ/aGyGF4f+tQ1IoMX3rmnZb0YfyhWGoCihP3C6tmiQKb7dxQ1EWkATjNwP94jAI253SQXdQiOjiqdQOoqwtQoU2fJNKElKYWRav+TEjWWZeMztlCrZ0QUW5acDgZMp5PGYc1xsjKplslH0lh0SUkMDfb0xQNJ5pc7FnBj7t9zx3MJdOn8QUuHgpy/QtNPpCjWQG7mT/Ju9WSuBZUbl0hKtFFVpuqZiYBhEALfZsbvGo4xKxZwJoFEgjck8hgewCsAFShVKFUaan7DHSMN7U1qUKn2UVUdcbE5BLXV0tRWqmNUEAMeiubTIlXvR3W5ZvQhioMIqgkzcRTh3gDWCSoJBYkP1nMN3imYYctuez6+RZf8aRx8zZCGf1T5KMBykeJ9GagsvYie/2j5L5eP0eZ3ugBYc21bSPN4/ntv6syr1PXxyxS+6MhVzofWV8dIDV7xHP9RUh8kVNPnvDJYmynxrvNtON8uf18ufN7Y/1EzWoRcTzQ7UOf3G6lFNWoqvv3G+I2hIlGjXWz27ZMSxCRRFsGyeH2t88REDF1YsxYftfmvPykcJUuAZaWpXCn3mmOZc4XyKSzjYDos0Vz8PLu8BQpVNPC57641Di++/uKwnj/rgm8DTl5277k0lo3Pqu8uaJl/Vv9WRIwvPUr83WtVRgyEVJrnDVU9p5XeSpYWPTu/Kp2LfZR5IKr/XYHGXci9BpbPIxesoudW7eXyIUNyKY+68JkufCaXItb1Zu5lHNRFVxcRjCQYSRpWZNAcwtxU8JHYXATKdzWBrwb8pWfVlhoxx3CVfFt1bsf9Sm4mK2BZyS3Eq0GR1K71gxA+36BwIp1zIbd1GznnNr/+lZvpO6o0HVJ949tdkbN+/5LPgrcCmJvIFwMsd6FV/3blCpXjo3SMzE1wjbuk5zZ3Vem8P0JD4haIeO3riceQwEmdY2yDFys6zpwlz3PKsqi+X8n15IsBlgtNmEq+1EGxhOWe++7jS0xMhfqI4pjOgshX3TIQ7rL7OWdxYVf2jd+teiBUYlvra8SWqnOUZe7jeKy9+T3+weUjAMslg1yXrRLNMz90AJ4//7Yq829JPrzfbnvfSNdGL1HUIsSnDKU6oNHztQdLuRwWl93RWctsllOWOefjiK9xhdhG53DOLuSY0sZxDluWPkfPwn3+cTXj68sdA8vVQ/xiLiy6J+7+tS0O6i8JX64sSH9RucUPvzPRHKngQSARE3LW+mNiLSh/1MIEjfl3zrmclsW8+HvN8hmj0YjSFtRaxjWZdRq8CiyAxuLYjcfVkUyNxlzvZv/A8glNocYgWPpt0x6/7dUvky90MFTs6DK5yFn8wTf112xUGmzeJkbVntcWtT53oZXLXcbz53ttZeYzy93SLdwElmVRx/Ntbf6++P0XOp7uSL4AjqWePJfrS1+QmjInV2kkH2MCxKiehr82elWqbOFU/1Zu2zotG82UndcVVcVZh1N3bk/SzWmWy2JWVrEsHypfALBAHT530UD90gfJp149o5vWhfrJ3j2bJAmtrB2CBB3qFKvWcxVV8idfY7oudlaXab1ShDphOnWc8lXvt1ktIFymERC07PzLfl9pKteRLwRYPoXcBJzu0+C7e7U9mhG+nIkjSxxrnYRur8fu7h7tdooLgDKZjDg6OmQwmKAuBVKsCE4NTuZTLFz5JDG1ZwPMrqVdVBTQZcdd9X5X5s9N5CMBy0Uv4Lf6YqIar+c/jj83NgHqwt6Vc0P2sozOjWte5ElZcsD5y0QLqTmhmnuKKjftzd+JP7X2rmxsJnz39RadtXXanRZZZvCJLjNE2xxtK9//7ZTRUHCuRQVNWqdU+JgiS/LQNJ7kule5m8b8g8hH1Fhu8yI+58u7ZJCJAn7DnV+pQ3lWDYPWhMkhgEojE+wyl6pWbthl4eJy7hepOAxbAYyeP3bJ0zjiyu6PjuZDLGim7oJdx9cQlahBwMbmGo8ebzMtHK/evGQ6HWGAVivlm6+e8bvnO9jRMX/9+5BJ3jRbb86zLHvSy7c1NMJo4mEy/z5Wcvdyx8DS9ELcYMDEreyLg7wZ2dmcnecuXU+0S8fYpbUfLlapJYR4p0bIEkNbfK6PRH1m+4nmTClQTVDSuSsJITl1RSPEHxptXuIl8a7ceJzgjIGsTZYaXJFji0Y0qMz70xS/k9qqhxef7S1mcwu0pfXHJ7fJh1JlphPUJJzNlB/eDBid5RzsD33uElUkFXK3xv/9Xx7yh6cP+fuLMXlZl+K4nSe8yvhDnTTqqqss1wGvAhdZ8tPy31eyKHdf/uMWK1E9LWRuoMQcIxVNF+fkRauseq/EUnC5srj3Zd87MiPsbayzu75GN22RusRXBcxzjienHE0GnOWOifr9MrGgWk0wNtpvZM7kEZVGm7UBNj5RgqpisozNx4/p97ocv3vL4PgYE9IxxUninb/BDRPyu/hrh0RI4n8XwJY2NMNU17iZCIgnYfdPRhwOh1AmaNlCyUDAOuX12xHF1yUP1rpIYijM/PiYM+2ud9cGqNzSezNnGV50/q1QbyVBPoopdNv3YUxdasvzc27ptv4oi+NRYwKepQP1clBpciUuVG+sv3OkJmG31+Xb/jpOYTKzdATW1no87rcZj9r8+fCEl9McEYc0c6kQ9Q4/uY3xs16tbTSr0s2qoDGFKiG3pCnre7vsbKwzHpzgjsPxGkjUmIRWIM0SWu2Wzx0Tv69MKh/ENjNTiryOXr1RisjQpujZcSWUZTC7lCr/iqK40udrQRJf0VHS6nFvte7r4i9XX6jSey/QdK++z0puKncOLGLEZ48nJE8ORccvP8mr6kkSUhhqLCGKn4BLBk7UXExIbxbNDKcOZ+21xkUsJg++7EbUhJrZ3BX/DEVpOT095t10zGSWMyosbRF21np8t7fLk51d3o2nvJz4ZNp+aW2YHnhFxT9ngjpf9DwGBvrmaygeFjbwB7CIaSIlTSExWIKZo3UxeVDECBhDp9dj88EepuVfr3POF/tSUOfopBmz0ZhXL35FxVX7Bs2C38QYgzES3oWrM9DVLyB0UkiJSQMMgVRLNrotJE0ZjKeULriWqxZ/wOydW0RWKHDf5M6BJU1TslYbMFhnyWczbBiUF4Zeq5KmGSbxq7wL1fCMMaGe8vzAqSYqhOJVCUmSIGKwZcHU2jDoLl7KBCHLMtIsQ4DpbBp26NakpL+X4lTJy4JXgyMOElAVrBUSI7x1Y1otw4Pdh7Ra7ZqUDYBow6wV/MRNTEIisSaQAXW1Wh84FeecrxeU+rSPTgnlPnzSJCf4EiCqVdlVccHswZC02qxtbJL2OqgIFqUkhNeXll6a0R6MePPqTUjQ5HukKcYYWq02aZLgVCnLgiIvloBB0+wNoKiKEUsvmfDVgz6m1eLF2yNy6/CJN5t08ofKClTuo9wtsIiQJCmtrIWKkLgk1HJ2F4MKASSMqTPBzxXRWkJuNrQA8FpHkiSkaUqBYvICp0tKdS5Iq9UiSX2x0KIssKXz2laT14n3RCnVAoZ2mrKWtZBEEONBpyxLuu02raxFMYsARfXMEp7LiK/BHPbVep4imBDxBKdK1uvS3l73ybQdpN0+rU6bpJ2xtrtNqY4MEOuYjSZMR0Ns0EzG4wn77w+QVhY0HCXuzxXn6EiCTqbh3strAiZJQquVkZikinQty7Iqx1o9VcWqRxJZUAqMFOxtJHz9aI2ZhZ/3x8zKCCWNjlkRoV+k3CmwSOXdqSdSXZjqasW3NgnknJayVKrdtLH0pj9XrlGzplm0i0AG1txGc+B7TaNlEtbSjN31Putph/W0S2rAJLCbpkiakGYZrTRlnPv0zgZfpjRO6sq9HJWpxsRuttap0tlcZ++ffkeOP7+VdOj016CVsvb4AWm/R6JgrOV0/4BhPsbNSkShHI8ZTae4wOd4cy4ApXMkIohzJNR1dpr3n5vyDY7rfI9qeNfxCf0GRHUlvZ7h22cbbHSFv70b8OYYCpdVukr07YSrrOQLkzsFFlWltBaTF57Ya2xN1zl/8XmpCFOh5hkqcLmceFWnfjXV8G/FSlwsIkKeF8H6mD9fwrNEzSkTYafd4/nuDo821xEn2NyirsRA8Ay/AAAgAElEQVTgSE0dEBenSvQA+ZIYoVCXupAHxD9jVTojPGeDuqYocibDETlCKWBbYPsWscJ0POFseIZRxVhlkk8p1IIoRpRWK6PT65Fk9evVwLHYUDvalSWjwYBUPdcU2x71CWd9kqMkTVFViqKoirIv9n8kuOPzbHaV755ssbe3zfvTAT+9mjCceTOtYcRW/bSSL0/u1hQKE9NaV22Xd7pYLGpe4riytqyBRf0AdaohE/zCbaqT/dnWWVxuKaiJ36vbCkVRUNqyyr1R6TFRYwo8TYeEb/rb/P7BU2w+4eeTA97mE8p8Bq7ku94626lfjY1JMMbUWoo0drVoMwdIABYcOA2Etw9ZT4yhHIw4+eEXSvFVENNen/V2n821HuM3+xztv/MBcM6h1gZg9ntzOmttvvrmK9Y3NyozyIoPmHMB2CajET/8x58xk5J0SX8555jlORLiZbRB3tbdL779GoDLFHQ6yh8er/PPj/qcTJQ/v5qwP5jhXIov1E4oDROKtF5Azn8KuWiYVLz0SpW6tdx9HItzuEgUXud4qMpvxvwYVTIeLgaJSjPQ+t/a1Lh6RFR7TqxPQaghA1qdtrCOY+gkKU/Xt1hPMn45fM2rd284SMBhUS15YFLvOhYJ5S4aKr402xj/uNrkit4d6n0wRgSxFnc2QvEciStBixLjFDsckw+GILUJaELKasVhy4Iyn5BP00Dc+ogYG+4hIpSzGWpt5c6G+XnktarLNb/4fry729FvO755vM43Tx8wKwq+f3nMr0cFpTWhcFrN6DR5nc8xhy/XgVfMz4fKvdqEaF0kXDX+vzTs3csC5Vg5VW7nxIwmSeSFFK1ukYjQNinWOgbTCdPZDJMlkPo6y61WRjtJPRjUnmOQhclaPVMo7rXE0qtc3UoFrt77EwCHUKVQfQVEESExBE3EA2Q+HPL6519IkqRK36hQudQFH18iZ2OSdidMpFtMJfXahxFHtyP8/uE6f3yyxdAa/vJqwOuDEUWegBhEFKOx2JoSc/fHflnN5C9L7hWwXFRida7UKlAvs8Fd+YHLXVVbMBK/zE806xxn4xFb2xv0uz26klIUJUYSur01Hmxu0e50YDSqtKXqbG2uyI2/VStgaUJhfV5zF6/vg9l0yiQxlEVBjD71CCQYrTUeV5RM7dBfy4VYF/WA5slVDzZtFRK92Q7jOVHfTxtt5dtHPf70fIueTvnp3THHpxNSUTayUKvJGIrCu+kjsLLE47eSL0PuBbDUZRhk7vfFnyEMf40pD7UGGp2foDcREZ+jNRr7ixvzcmd5dzbgYbnHk60d8jznpMxJUsPWZp/tbo+ptbQ6HVqtFjqc+es0pqxW11UEEzSMaCbV96vAVKIr2p9hreXg4IDRScp4PPZBa4BRxSleo4GKYBVXe6VExWs9GkhTk4TrGjQU/HK32IzoTRt4tNHm356us7fRYXA6Zr2X8t2T7eBCNz5mh4zXB2MOB3lVpH2RK1vJlyP3AliiXFYUfu5zPLjMD8gPUFuk6eoO/zSunYvyNh+ztv+Ox/0+j588Y0vA2gLVgneDAYM0Id/criJ5Kz0gmmjBvbzYTAEwpj5IGsWhvU/at805BkeHTBBcUQSzqKlXSeM/7yIPdQgDByN1/fUIWCJYj3iXVZe9oMtC4XlVkqxFgeFgbCmkT3czJSWtnMqeJ2pxOHqPjErUuqqHah1uBS5fktwrYLmNRLPiTuSCsZ0LHKqlOHjPweCE/lofSVJyVzCejRlNzkjbCelsxmg8o6qiR9zJu2AeNSJXYplSnfvdP5gLJI2IkjoL01kAVR+LEuEwni2YCjwkxp9E0JRGN0nUouRW8zl6TSIv9e6spHw59HuExAf/ucgGifOaERlHZ2Mf6VsBrDSvuCArl8xvWX7zwHJ3cvEMcyLMBI7LGePZhGw0QozfwVxoiVULtkAmDufihHfV3mMJe1ok7qdxEQiWTaxgDjZIGlFv0hinqESPGdVCLxXAEDYABvZJ4k96iUZyGbJcjTqKcjIqOJvm9S7qwPc0gQUSsMabRnOYcT1kq6F4pd/8FuReA0szs+n5L+9yaMmll4taUSkGl8AEiEmf/OkJ4l01QUvw8R1SbbiLszoQzsHdXK/ajQ0EErWbqIPEFnoepQ6yi6agVhpSvH7TfStNoGqqLAQepwlx57p6eUqpBgPmQwVc5HakcV68dlJ9Jpxvw/k7Lm1IAM1am/tQZFkB08eVew0sc9zHp7jZFeLEzJGc1fTR5t5e/+95P4tW0z5uyIw/M3fuQoukAS5LawjXlfxEpXlmZfIsus/r1jMHHIs9UH+3pG8Cx1UfY84fc4EsPoEu+eX8HW+T1/8DZGWJfZDcb2C5R+K3JCybev5PBBGV8+DiJazFS1zo9ffnl2Kh+VFNd87lqPE3vrjtFz4TFfjcSoKJVwX6XVdupG2uZvhvUVbAci25YCJo88fm2r8cVG57n0XzIGoyV5+qjb+XX/jDpu3N9Idr3avBJ1eGcGPz5s37dCWfQ1bAshKWT3lZ8v0CyfxR5rbOKW4xbUbFRF1rY+pKPrd8RmBZxsBdZ7BcNpo/8WCbV0uuKXfdxmXXu4t7VMYdH087qFmec3fWWgsEvx2hKGaUtkBkBSr3XT4TsNTcxLx6G7+7TJZTeLdOrPwB0swzV4XXz/tMGpSj3Dpu5DotufSzMFOXe9jqjG611AbdvFdo4biKTL5p39feq+Xf1LdTp1hnfRqJ8Rhrfd3m61PFK/kc8kmBJXonVB1lWVCWeajFe7kL8jqzseYhPiW4aAUZ9R6h+lkUWfj5Y/g1LnrmhhcoqgBzUrd0+X6dC8Dk3L0va8PlcuHbDk0X4xObO+coi4K8yGuX9Sd1Ea3kpvLJNRbBp4EcjYbkxcQnvtam1+WyQX7ZdXVuqnxKaQLLPB/RpHI/1kxoPnfz0/nbLc9Vq0u/mT/mqjbfyh6szpyX2n0ff188ofaSfXoNdSXXl08KLBq2+U+nE2azKdYV+FQF5gYeyMXB7gfYZ0106JOSLH5Yz25p/n7nN/+g7z4oU/5SgvdmZzbjfJZeY9H6uuX9VvJp5dMCC6DOMZvNiBnxzy9by1bW695AG6vZp5RLJoU2fombd+761stEzk/Bi3vlMq/QVWbqh4gu/Kwf71Yr+aTySYHFxAJXIVOcXCuQ4qoDojofYx0+j4r8eefCbZ/3gol8zhT5mE93Fexd9mwrBLqv8sk1FoRG6sbrgMBVNnw0heqf77eafA/b9kFNuivX9k2/X4HKfZZ7FSB3vaGyhMv4TcjHjAe5XD48GuUizeXzPdNK7rfcG2C52Ll5kTfjquPuo3y+Nt58+l+nrbf3CK3ky5bPBiyRZ22ueXKtFfAyW/zzDPKLC4Vq5RT6WLldL4v8ubveWCRyr9OCq2S52XrxbqkVgP2W5LOH9NexnZHMveUAkvvKrYTn+wyOqqunfDzoGuCwtP0f8FDXfl8fe1vBSj6G3BtTyMu1ZsPF595b+ZDnuidyYfs/0CP1YTdfyT2V+wcsX6x8yc+2kpXMy2ov10pWspI7lxWwrGQlK7lzWQHLSlaykjuXFbCsZCUruXO5Z+Ttiv2/uXxuUvhD4lhW8qXKPQMWVuPtpiKfOXjs1reWzxDcs5JPJStTaCUrWcmdywpYVrKSldy5rIBlJStZyZ3LClhWspKV3LncClhWlNtKVrKSy+TGXiHlmmT+jY9pejduA11LMrlIs1D6ba/7KeRD3ewXnf8pnveSPLWrrJL/sHIzYJlLJCYhxWRzhMjCn/MXiOUdPIzElAnNNE+33QmsoPWVNG7LF7kBGn4m+ZDsA42/b3ODD+6Vy0pxnBsfK/lHkVvEsYSagzGB7ZLvlwOLXvptDSofDgDzkR2/gVweHxSKctmzXaMywG3z36xkJZfIPSNv3R1e674mflrJSr58+bSRt95aAXym/vnFcgUCn0M+VJdbvbWVLJNPHNKvleq90sA/kVxlCV6/BOWSa69e4kqWy6ctCi8G1JJmGUWZM8+2CIrhpiaMNH4SSRb4GwUMiMGbWVdfVxtc0E1EQtbs6jydK6N2yRWlVuNuvf4vs2hjP0qdufxOJfa0Bkp+0aN3cd2Fi5OPr+RLkTsFlvm868u8BP6vTqdDWRYURb7kAOU2XIuRBGNqYFEVP+RV8BMvgtZimzWAQBR743tL8JAlxnulnDrOW3l1delKc5PQNqmvdHdkc3OyX8wOy201FjVoo5ClV16uB961H3AFMF+q3BmwLBZz0CXj1eOK0mq16Pf7jKcTULf84GveNbpbDYIYE4BFSVEcYdLPgYouXAFUtdLqXagpfd35Fu9nBEwAFlVfRtahWGuryevUH51IAKBw/yRJQhuCtnSTyX6ZOSKLz3xXE7l6ajQAplMFdSiKUefL6Yp/RlHFBde/qpKKAWcpy+KO2rOS+yZ3bwpJbU4sSmVmJAntbheTJo150VSdL6guE2OxqpIVikTaRhWnDsH5AR4Gtmgz3ua8uq7hglHraBpCV01DCZqHUCLqXeWx5dY52u02ThV1HqxceLbMGFQVJw4HGAzOKc55TefGwLK0ocvA5GKN7UYiJpxiQNKwoAioQ0QRtST49cIJiPP3sQFYbJGTTyb+gCoOZiVfktwdsNxY6RCyrNU4uTmprwCW5ocBWNQ5jDpELaoOlaCx6GIg38IgFoOIQSQcZ5qgMt+OufmueABTh6hB1BF1EAGMCN1OByOGvCiqewGkSQLi0MSCgXyiOGdQpxVjwcK9Lpx6lwLLIqgsAxaWfn65mPqPJF5rEYPB0W23EBxlkVO6EkRIVHAKZWiDNQnjs7NgEK1A5UuUz5ToKRgw1UxtErgXgAphYus8ISrhb5Mk4AzO5YgU1AXnxZPGy64pBGBZiB6OsXpXgWXUdDDVwis4jBiMEdQ6rFqwzj+X+BW93YLuWouth48oVfj+ry+DORgKuMkCpH30Vf1mq4KEtnqg9KAChgR4/vgR62tt3r79laPTAaoGHxFtMKI4tWStFkYSVN1vIn5xJTeXz5pBrjaDrl43LzKuPBncYqO/h7oWJ8dvmc0GSKIIFrhYYxERDw4StRQJYLNsJQ0eEFd/bioAqHkcQTDiJ50rbfjWAAk4SytzPNlq8ejxJp3dp/z86gicqa+P5ySuSzt5KLom6CxBytvMaWn8F8FFxCDO0k4Mv3vY52l/j//4u2X/tKB0HqWTYJqq8/6/SNGvdJYvT24HLGEkqHo7RON+HDg3UpdNz8XvZeGTptayaPbM/+An49bWJr//7r/gbJvv/5bz+vUpxihipL7GnOflgvaFA7UyL7Q+2bt7/GHhuiyQraKBRA6nGtEw8QUx4FzJ7laP7759RH+ty99eveP1yxMMkaeoW3S5h1iDtkR1/4r4XXiWOXK3+fNSdUyjjrekh2pgrjU8Jdbb9vu/hPdv37HdGvK7Z5v86++/xv3tFYcnYwrnyWkjBlXryd3QzaIfwN+v5F7KrUL654edLvxNYwBL9asiCxqKNjwh89qE6tx0JzDCiAYfRPw+aCJpmtFba9PuKiZ1qLialBUCOVNzIPGaGlV5T/n6dkoDMBf+uHDNNMtotduYxKBzz+G/d6o4VU9kisOIJZGCXjfn6fNNetsP+fndmF9+PSLPHcY0Vn3xcTfN+y6CgzT+LEK3qAauKX7X/FMzWDWjJRXXoejCu1MUzyOpanWMxs8XfxfhbJLzt1+P+Muvp2xvrPFv3+6w08tIw3IhDU5rJV+uXF9jWVxB48AP33nXooD6SeoHDzhXD2it1Ha/VFnrV16ThAEe4j+kupdfHSUCS1iBa9XfcxfHpyf89Yf/pMhzjk72SbMESeIq7j1FzWnkmxnMD+Ofw6pBFBLVYPsveJFCm9IsY3fvIZ21DQ7evmJ8elT1gaPBFoUV2Rg8uBjL82c7PHq0ydvDIT+8PKGwCc6V3k2uFlWtWCN1JWoIXieCJtTUTCIXMx9uZgATTCkPo/PAYyL2S/WD/1z8czunwcaTABhl4EiCsVcR4+Gz2I/ir1UChyPH5OUJm70O3z7cYDgqmP34llEhWDEBlGrzVO/zzvOV3EquDSzzNGvURCJMCA6DU4NVP+iSJMUY70JFIREBifEifmW0GpSJREkEnA2RJ+o1DRHrzQsx1UIaNRG/RjoQ4Ww0YDg+wzmLc0qaxBWxXnVjq5NA2BYqkBpUSqxTrE287mJzDA5VP5H8mPekq6rQSTo8fPwV7a2nnByfkeghDqEMqKJ4j5ARUAyqQpJY1te6fPPsOZlkvHz5K+NJgWKwON8vEiNC8C7q0GatPE2GRBOc8+33k9P5wMCgcRG0ORNsjER8uF+DxvYqavheG5aSQXHWeu+aGFQSfwct/DtQQ2oErCUXKIDEGExYQLwGGEBCDMPxhL++eM3ezh/57qsHHL39lV/PhJIMpw0tFt9Py5iWVYTub1euBSy1m7eOmBTiCucwrS4m7VCUilUhbbVpdXtkxpFPx+STCU5tvboG9d4hrPX6pGniV1kzYzyeImmPdm8N00p8TIQqk+EQtRaVoHibDG11SNKU4Czybcwn2NmUBEEkBGYp1YQl65BkXcrplCzJMO0eadoG20JcSTF8D66ovE+RQ0iyFmmrS7u3QdLbI2/t4dp7JN0zDyKqFLMBtpzQEs+1KCaYRPD0ySPW19Z58/oVpycDrE1xiI+3wU9IoxEKPZgYdSQomcBaK6MnKahQOCV3M2ZlgTNgxT8rob0tY8haCVYtU2ux1duDRCFLEpLMMCsKCvXntIEsy5hOJnSSlHZrjZwZYzujmFo6ScJGq0NS5gzKnFNbekBEqpERTVAjXtPcPxpwcDblj4/WebbX491kzMhGbSosSiuL6IuUG2ssUVRDQJc6ehtbrD34mpPBCEybjZ0duv112olSjM843n/N6eEb7GxakY4qgIOv/+kPSNJFUIZHbzh98YpHj37P9rNvMBtbGJ0gk/f89L/+P9zwrNI/ku42G8/+SLe/jhP1qyDC2a9/ZfLuJzCgagOh4Jdm6wzZ9nO2Hn2Ne/kDm+trtPeek/U2SJ3SkYKDX//G8buX5OMxRGBK23R3nvDg6e8wrTXYeE7e3qP/9N+R/lMkc7jU8v6X/8lg/0fS6GUSxYmSJIaHezu005T37/Yp8gJIK36m0gOl7lsjSobyoNvlUafL436fjSRBRMnLgrPZlIPhGe8Ky6EWPhINH9Ha76+xt7PNYHjK4XDoATWaLjh2NtbZ3drgxa+vGJSOFNhA+O7xUw6Pj3iwscdOe4upzNgvOxwcnrLVf8jjtQ3WbMm78Rk/Hr7nqFRmaXSN1Q5+335/t8ODQ8qdNrvbmySvp7hg/tpgrq1w5cuUD3A3BwNIhLWtPZ7/4b+ydTbEOg3z2NJut9nbe8ju3kO+/3PC8dsXiJ1WDgvE0N/YwiXrPHrylB+/T9ksW/zh3/43tL3GRFI2+g9g3Obnv/0FJ8NIs5K2Wmxs7dJZW8MZRVrrtNa2sWfHjN/9FCiSpuEmWDVsPfqWJ9/9K5udFhudlGm2wdRC5kr2dnfZ2FznexUOXnyPaOkjR42QtTusbWzikjWk1YO0Rae/QUKJpiWaOdJOJ3hfpSKCEej2unS7HYqiYDwegybVZJSqdV6fc0GbS4F+mvL7R4951t+g7Up0NkWxtLst+v0umxt9dHDG0ckJuOCBcpa1bpfnjx7yzpWcjoZMNW5u8BzLw+1tfvf0CUdv33E6nUCS0DbCH54/59nWNqlm2LFjvdPjcf8p++0Nku4O2axgu9Nhc3sTay2jg2NmFT8SOSkN26C8p+jt27fMvt5lc2sLkx6gRRw9KzPnS5ZbAYs0JoSikHbJ1h/RT7sc7b/k/cu/UwxPSNe2ePLNH3j09Bv2voHhYIA7e0fkAgT4+ZcXzFjj8Xd/Qna+5dnuV2hmefPL/+BseMZ/+7f/itEEVyY4DAaLUaWcHHHw4r9jEgFxrD/5V/b6D/xKGfb+KILRaLYJSsJad51eq8/Ww8ec7v/M/ou/M80Lyjxn+vw7nv/p/2Dr6z/x7tcfMVp4TsLNGJ+84uUPU0g3efKHBNZKjl7/T/LDH1AjOCNMT9/7GBbEA5J49qPTbpMkCaPRAGstaELlVDeeZa2pYm+6tTA8aK/x7MEjyHP+/OpXTqZTHJC2MtZ7XTZ6Xcq01dASwrsRZa3VYs2klSNbw94Hg9JLM9azFj5G1mGTBGuEdqdDRwx/+fsvvBlOedhr8X/1n9Dd2OHPxyMO99+x2+/wzddfs7u5TvvklMjehJbXcBF4lNFohLWWtfUN7/2q/OhNcnwlX5pcD1ikMR4AjeZMMIesE3LNOD055vVPf+H07QuSYoQ7PWEyLeisP2D70dfs//y/GI3eoYFRVIW3b94ytC1yC/3d55SzEX/+7/8vg7c/kmmB+fYpJttEirIiCUWVYjrgeN9rMIIl6T3EOhf2CxFoSgfqQ80dnlA14ZuT4yP+/tf/ZDg6IkkM4/GMs0nB9h/+T3o7j3HiWRK/o7BkOjrmbDgkybbZefIVSdrj5PAXxu/+gkkyVFKMs1WHxr1Kit9kmBjDaDSq9gNVXVvxV03HsJKIsNbusNbqcHQy4O3hCYeqFHhytD0Y0m9nzEQpy9of5TcEOhKErIL/KMHDpIo45zkdkeC6UpzAYHjGD69fcpq2kSKhUz5hkBf8+OtLxtMxhfTZzWckJgl7q+bd2fFpfIoMqT6Oxpj/5S4zBa7kPsq1gMV7YlgYO2GQOOf3gThhcLjPbP8FmZsiBqScMtr/lcHxIY8291jr95gYKMtoJwCuREswztHL1vn7Dz9x+Os7kumErK2cvH2JJAdoPiSpnMaN6BPx8SmROPTRs4kPqXcaPCieW0hEA8mpvH7zmtPBMWiOWjDGMB6NsaWSpa3qYWPKWBeYRjECIdbEiaDGBI3Bhd0ztXETIzyMMah15EWBdW5hxa5dzBK0FfwTMctz1Dp2On2e7DygmI4ZFTPy0jItS6a2QE1wuktS6w4a3fN1b9W95lAT3fuQqJCqkIbWvJ+OOVMXNgwKBsOkLDmcDDFpSmEMhQgqSQWe1ShpsLEaU0IQYnQg9FvQJgOpvZIvU25mClWai5/W0XWsgMWgxYykHHsPjECCxZZTJqMBZWnpdjuI8buQ6/0jgkmERB3t0vL+p18wVkmNwZUzfv31Z5ymODuDxMfzXVTRI8ZD1KSgVoumoRG6L8qsmPlYl1Kx6qEHVdSBJA1uxtsr/loaQSvxsSfG+HgY8chTeaaovUmKoq7E2YIkSSmd+L4KhLJoiGQNqQW8AiGU1nI0GfLm8ICv1rf49vkzOtMJZ+MR48mIwWTCsJwxKfKQ0qWOZI0e/Uj0REf2ol4RH1BUiLBUCNjE+JikJMElgksMhTEkBqzgwVQWrlURxI22hBWpjs+tbrrYiEvkc5hLK8T7ULkRsFSaCwQvzOKXBC0iDjDveizLEoeSZQlgUWeJk9XHq/iB3cqn5Af7qOTYRClVORkOsSSoMdUKFx09RiOIhLuFOIqYiYUYLdoIwKpiOiTggUBiEooSrGrgARpDK6QI8EAa2KUAJnHlpeHdiO50E1oqgLVTIKfT7oBpUWpKIYYspHkQkdCfIZ7F+LiYgRb85e1LJpMhW/11Hq11eNxtoXmPsyLnzeCEX46POXW2vn8zWjeE0TuJmlx0bfvucShWIBWC9kLcTukdTAaKCCbheBe1QwkO42pxCXE/1T6r2KJav2y+k/PHXDTgVvJblDvahBgGivi4jLhrOKgKZFmKEZ9zpEInpSo740lOIbElFFNc5r0xMXLUBvPF6MIQrEAl8TuKmV8f/cCPV1mynyZepgEMIjWZ6qdIjN7xbM6cRkBQ6RXwGUga/eEwmiAYZtMpzpb0++u02l0YR6+RVIfXofH+vlagEHg/OmM6HrHd7bO5tkYvy1jLUh5sbrHV6VE4GJ2d4mx8snhNRULUcwQ/ryXWWwFUa42uWggqVaNGcRfc5t648edrQF+NtqI2oaLus3an7YHSll7b9S6joKXFe6wQ5EuTDwKW2lQguJi9rmACsWcVVAydbpcsScmnOc6ChEno1K/OQoKKoQRcIBO9VuFnvDWKqCNxgplb6QJyIRgSUjE+MC58FVdug6MKVkNIIrEYeQ0cRlJEPdeCk8pd6i/luYZKKyJMihCR6tf5pAE7FglAmGAYD8cUpWN7u0ev0yIZ55gAdk6SCgCau6ojV1KgnFjLcDTk9XRKyxg6acq/uIQ/7T7meFd5NcsZTqZotYM4/BG/01rCRqhEPJdlYpxuA2glTnrwrmtVT3RrvZNIgFQb2wIqKNTa/JGoUfr+7W9sYLKEwejMb18IOlHC3RZ7Wcn9kptvQmxyGtVECoquSVHTwpJiSZmpwXR7dHs9jDqGoxGlizqABwfnFGsFpwaTpIgxPrcKtdoulYoujTvGyF+LdSWK4mHFa0rOeU6kSSxEwlAaphoQtKYQ52GipkNl6sTUld6DUk+yJG2hpoUL4e+xH2K7NczwvCwZDMegjp31NTJxGLWoCo6k0oTqCe63QKQKmUkRSSgVJkXJ2Sxnfzji+HRISzI2un3arQ6CBKD2vFWC0JKE1Cpp6UisI7WObprRSTPSYJZ4WA1RJSKeNwraTK3KBT1EwbgGAGkNTvGD2L/x9729Hehk/Pz+LVNbVmpq1VPSeEEr+WLkRsBSbw704vlBDWaNsLm9x/bD52i6Rq4t6Kyz8+xr+v0+o5MjhsMziqCWm7A6O/WBa4UFk3pgybIMMYKG9ATe9ieYWqDibRWTpKRZStpKMIknU43JSJIWSdpGSdDgmWgSq/HeUSOKOVT8d8bvmdHajIhAJsHTNJtO6LQy1jd2cGmPXA1khu5alywxHvAQnDhKseROefPugGI25fHuJm3jgcWJYAOwSNCm/DxT2knKs90H/O7REx7011kzCa3SkZSOXtamu9bHmszm4AkAAAyRSURBVIQ87O+pns0klXm2tbbOetKiWyo9Z9jurPHN46ds9dZ9HlrrXfMOsGjQFhu7vQUKdZR+V9YcGNeAEm2pOu+NB2JLv9fiwcMdTl3OD4f7TNRGRa+6/gpUvky5sSkk0Qygtqf9amvY2HlIj3+n9f49s6Kgt9HnwZPHpMDPP/2V8fCUGBATN/j97ttvGLOJMVAYw5PvvqXbPuP4QBmdHYKz9c5eqW33Tn+HrcffkqReqe7uPgHjWN95QOt3/0qSJkxGQ072X2CnAyKQGLVkiedeRH1+kFg43gDGFWRJyFCp9QY7gllhi4KTg/dsPfyW50+fk+QjpsWYdjdjr2MYvnnJwcF+AAgJJGnC4cmQw4P37Gz0efpoj/GbATl+s1+iZaWtOBGcCmmS8fThE3b7a4zXTjk7GzKdFagIa/0+D7f2OMqnvD0+ZjqbVW9DgdFkymgy49nWLr9/XrB2cowkbba2d1hfawGGwkFeWoxJQIVSoURwJsUZg8XvRC5NQqnezHEilMbgkhQnJrij653PAOr8hs0kgWdf7bG+1eKHF685HIYd5MF8iqbzSr5MuSGwePoO8Gp0JGLDyj+clThabDz6mlbWIksS7DTn1/2/s//ye8rZkISoXQutVsbjhw+w6Saj0REHLqP/ZI/tpI2dHjIeHAWb3A/iSEAaErLuLv3H/+IDtWxJYVocHb9B0hbdvd+RpIZ0fcpwcIKdngFeU5mMTjk9eIOdTYKW4I0sp0oijuHhG1JxHmzEVOCJeGaoLEtO3r/l9U9/5cnDR3z1+DtsK6XMEtrTfWYHr/1Obueq0iNJ1qFwyk8vXrL+x9/z3bffcFa+5ufDIWWM5wgqQWIMzirWOo5PBmR5yV6rzc5210/6oJ1MZzNeHB/x4uSQvCwD7+P3TA0nU168fUf7gbC1sUO7teY9WsZwdHTCcWrYWl9nFnaOiwq5wruTAWeTGVYMVoRclaPRjJPRBCGhFGHolMPRGDctQiS0hxYTOV9VjFiePNzl2Ve7DKfHvHp1TDlbQyQD9Jzmu5IvT25B3gbCT8QTnWHyiSjHB+8ZvP6e9fV1er01tLQMByecHL6lGJ+QSBnIVb9uGRH2X79C0xM4OGBoDbaYkZsJ49EoDEDv2q0iJMTHm8zGY/Zf/eqvZi2FOArjSC1kLnodLEWeE9NGGoTDty8Zng2YjgbBS2EqMjYT5dXf/wO/ecDP9IrerCgHRzkZ8P7l99jBIWudLqbXYyYOHbxhenyE2tJPt2qPTkLplP2jAT++eseTb9f53XdPGLif2D84RTWmQaodMrm1vHi/z7FJOO2v0261MSajtCVlUXBWzDgcDRnbAhuD9PBaRQG8ODpkPJ2xvtFH8GA1nc04Gp2SdjK6pwPyaMagTBX+9uIlZ8UMlQRRZZSX/MerNxzPpiTBczec5bx4s09iHSWGRE01HrwpCY+31/jTtw9IEX746T1nZw6xnZB3pvYizee8WcmXJDcElpqokJAw2ucpCcvVbMjs4AVu0GKYpDh15GWBzadkFJWGQKA6y6Lk3ZvXiEnBZN6Xoo5cLGqLuQz7fjjGdU6woxPOXv6n/1RrsrRQmNVMAFJOamARGJ3sMxwcIeUseDcScF4Py8Rx+vZHQnaZarJXz66eZk1VYXLMaT5gZMSnncRh7BSKSdDIgttbwZbeT1SQ8f2rI87kZ55/+5x//qddbHHK4CTHajuQzhYRKIGhLZnYkpPTEmO8dqDqUGcpVSmdJUbMNIGlRDjBcjY5IynGxERZzjnUlZhxiZlMKU2d8WQCvD4+wYaeThQmpeX7kxMf3xP6qXTK4dkIg1CSYJwGt7n3SD3Y2eFfvtugbyb88NOQN29Kyrzlgwsbnie5ElQa3rHLR+NK7qHcMPLWT65oDsXwCL8HR0nFkropbjLFqY9/UJRE/Upfc3X16lzMppVWkoSCYy5aV3J+r4v/RxAtMPlZbJj/b8kolJBIKd5V7BS1hjoetY7FEPn/2zub3shtGAy/9CRZ9FIULdBiUfT//5lee+wlwQJN2iSbpJtJZmyxB4kSLX+M7XEazS4fLJKsZcuyLVMUSVMO2D+j5UqK9QDeWuLdVMQOqHdBRDbguIKiFzTy2vhZDoWWfEC92+Py0z/Yc4Vff/uIn3/6BY/31yG1gT9eYsiYvBF1zwyqG6RVGl3QbKqYYU/SLzBVaADUoow0ql2A1zxYHp6E2xNqqrCLbu8NQIQdCK8u+qvkzKiZgiGdg2eJQxnh+x9/gNuc4c/LK1xeb7F9PQ+6oku3NFwfSRsPiIg+4WJCpWxmayxMkqsM0Wi3qUJG/KYGnAspDH0cR9XpApLsCSEZkp5wiHcjTX0EMfv5f8GroyIhtDk5b7OmCs5dUmWiYSifR+/VJ91J9uVWqSP5KxNywdYiwXyvO4erqye8vHxA4wjszvynBCo0XzSxfqpW/X5pEWVMj+3o0lBPvUQAZw5CMVrn28OJ4vftJN8+eYHz9+d7PD4xHu9fsH1hOK5DRjrd1r4LM1HxNTE/pF/9j9lPF163z7i9+YTtl0f/+rMkTm45KIMBlqO3RNzUYszVCZb7ki1T62WmrKyzqXe/9pYhRXuqaVGEJCWBEBqiHR4sBui0Ac2e8df1Q7jOjdeW5NZQ+/hp7ZtuDu3N2jb0RWDPdlE6W00MwuXu7hYggqv9daXxIWTLc4wYn3iA8dSUZv4tmdmCJWViCVnaCfh8e4O7P37H5ukGF0B85qIV+FCX5AoQF65fo4eBSkZ4zs52qDWa9zAEqguKb0rShxJVdxsRGseIEyWiGBOkI3BLRU8WOXgFK2afdzh8ZOmjl7Ve6b1vlQOo2oT4m+60E0hiY1h88Gip8b4scDe359wAod4+YPfa4DvsY7BmjN7kgVxhzLLiaNRO0uDY39liExCMxf2F/yMhlD2Mxr4J+TjrX672wvTo+VsMD3lZgVBy6vjfyYBLnAYgWYZN95XuopTZNfMUoWKUzizBIpYNsX9w8DRcVDtc8L8+fgOyLIiEwvdPXVofukECpsKecR2gIbTgKaT7SUqGToGKqAXUS5QsmV6ba29LNpMCUW3TX020NdrMqxMstQTC8/YLOHwcmgtSrfeNNsAomkWRt151B5gd9rtXv2REtQNTBUebuCcQnA9h6Qw9KsU1icQMrIwklNtbUhHi1CrrdxIbs4Sli2f5dgbbSWhzVakpTWwbuoIj/g6rDjQ+Mfn52XkwUpebFVa8gQCiVsLBGE+Z8SQaosMRz8/PeHx68Ks2SHBgRtpUglZqLGH2VEjEg2OHuq5RN/uwCPoGcSU/tFe6y0O3Sf2Qb93SLilzfTouaTfU8t60OSZEvH3otHq8S9x/oyTCkDLB0p4K9NfvEGJMmHG22cQlQ0rloC4xYJklArbbF7hmD4qCdmTaO3r2gm+QsXTtZp/yoHGNmtKkBEje3Soai3bPekQ7SbaVJET0sqscFeu2YOFOcFWags0mBlPIOebWkQzPSQNDHKGnoCcN5eopXYbd4X2CNN1bf7v09I8P1JdjhtvSWSZYtCBQNhcAKqlQ3ktSZ3BB2CS1OZWl8SiM2hKpqXodxRUVkV7qhX2NtLUwbJmjLXAUSukFST8PvykcAzwoxrEc8DUXw7jHprtNBpwkglNwXb/Bdug+BCGVIuyMwlic6InkocZnrOwjaj+tRcRcHVHjCN2KxVipjs2EU8emksV6HOuhTZrV/Pc6d5XLiDypGm1ACkLqpMbjKFgnoLLNJVOvKu5UnAt9ZNMsEy6lsk5qSlLJkkdeKC1kON83tytw95h0Oj116q9/KXPqiNO9/sJpdfRUcDJCBZjV2Pa0uBvtc0zdRlkcJ1i052bi+9hryB0om1pHqUx9L97y/XnrOzWn7VyyRdpYlbZgYcyeU1DnjxNm9hyEj56D6QXL3oo3W3id51952+Q+du8kkuWQOseTtcPJnMa4VTRdjYWBwW7ep7e3DzxtFvXPKdd9nB3gULPey5N0jMBKaRMGQgey3+rIkb1XgvCG0vjbYKXlP74eTq87nahAJ+8RG/Mstf1F3fJJJ1nKMR3hRB/JmphgKQLricsYu2/HDhHHqJjmqZq//IdhGMYBTLAYhrE6JlgMw1gdEyyGYazOPOPtgjgXY9yQl+JQ+3dKTtlxt+xoCwp9XGPm1fiV9FIbbKHX/K0w3ys0FudiLCKFTAwIFx5PezTG6T4pGg+bMorGpkKGYayOCRbDMFbHBIthGKtjgsUwjNUxwWIYxuqYYDEMY3XsI8SiOF3nsGFoTLAUw4BQsTgO4wSxqZBhGKvzH4JXP6BQ8+COAAAAAElFTkSuQmCC;" vertex="1" parent="1">
          <mxGeometry x="35.8" y="530" width="200.47" height="181" as="geometry" />
        </mxCell>
      </root>
    </mxGraphModel>
  </diagram>
</mxfile>
